<?xml version="1.0" encoding="utf-8" standalone="no"?>
<!DOCTYPE svg PUBLIC "-//W3C//DTD SVG 1.1//EN"
  "http://www.w3.org/Graphics/SVG/1.1/DTD/svg11.dtd">
<!-- Created with matplotlib (https://matplotlib.org/) -->
<svg height="504pt" version="1.1" viewBox="0 0 792 504" width="792pt" xmlns="http://www.w3.org/2000/svg" xmlns:xlink="http://www.w3.org/1999/xlink">
 <defs>
  <style type="text/css">
*{stroke-linecap:butt;stroke-linejoin:round;}
  </style>
 </defs>
 <g id="figure_1">
  <g id="patch_1">
   <path d="M 0 504 
L 792 504 
L 792 0 
L 0 0 
z
" style="fill:#ffffff;"/>
  </g>
  <g id="axes_1">
   <g id="patch_2">
    <path d="M 53.3 114.629565 
L 250.154839 114.629565 
L 250.154839 25.46 
L 53.3 25.46 
z
" style="fill:#ffffff;"/>
   </g>
   <g id="matplotlib.axis_1">
    <g id="xtick_1"/>
    <g id="xtick_2"/>
    <g id="xtick_3"/>
   </g>
   <g id="matplotlib.axis_2">
    <g id="ytick_1"/>
    <g id="ytick_2"/>
    <g id="ytick_3"/>
    <g id="text_1">
     <!-- CTRL -->
     <defs>
      <path d="M 64.40625 67.28125 
L 64.40625 56.890625 
Q 59.421875 61.53125 53.78125 63.8125 
Q 48.140625 66.109375 41.796875 66.109375 
Q 29.296875 66.109375 22.65625 58.46875 
Q 16.015625 50.828125 16.015625 36.375 
Q 16.015625 21.96875 22.65625 14.328125 
Q 29.296875 6.6875 41.796875 6.6875 
Q 48.140625 6.6875 53.78125 8.984375 
Q 59.421875 11.28125 64.40625 15.921875 
L 64.40625 5.609375 
Q 59.234375 2.09375 53.4375 0.328125 
Q 47.65625 -1.421875 41.21875 -1.421875 
Q 24.65625 -1.421875 15.125 8.703125 
Q 5.609375 18.84375 5.609375 36.375 
Q 5.609375 53.953125 15.125 64.078125 
Q 24.65625 74.21875 41.21875 74.21875 
Q 47.75 74.21875 53.53125 72.484375 
Q 59.328125 70.75 64.40625 67.28125 
z
" id="DejaVuSans-67"/>
      <path d="M -0.296875 72.90625 
L 61.375 72.90625 
L 61.375 64.59375 
L 35.5 64.59375 
L 35.5 0 
L 25.59375 0 
L 25.59375 64.59375 
L -0.296875 64.59375 
z
" id="DejaVuSans-84"/>
      <path d="M 44.390625 34.1875 
Q 47.5625 33.109375 50.5625 29.59375 
Q 53.5625 26.078125 56.59375 19.921875 
L 66.609375 0 
L 56 0 
L 46.6875 18.703125 
Q 43.0625 26.03125 39.671875 28.421875 
Q 36.28125 30.8125 30.421875 30.8125 
L 19.671875 30.8125 
L 19.671875 0 
L 9.8125 0 
L 9.8125 72.90625 
L 32.078125 72.90625 
Q 44.578125 72.90625 50.734375 67.671875 
Q 56.890625 62.453125 56.890625 51.90625 
Q 56.890625 45.015625 53.6875 40.46875 
Q 50.484375 35.9375 44.390625 34.1875 
z
M 19.671875 64.796875 
L 19.671875 38.921875 
L 32.078125 38.921875 
Q 39.203125 38.921875 42.84375 42.21875 
Q 46.484375 45.515625 46.484375 51.90625 
Q 46.484375 58.296875 42.84375 61.546875 
Q 39.203125 64.796875 32.078125 64.796875 
z
" id="DejaVuSans-82"/>
      <path d="M 9.8125 72.90625 
L 19.671875 72.90625 
L 19.671875 8.296875 
L 55.171875 8.296875 
L 55.171875 0 
L 9.8125 0 
z
" id="DejaVuSans-76"/>
     </defs>
     <g transform="translate(39.388438 87.972439)rotate(-90)scale(0.14 -0.14)">
      <use xlink:href="#DejaVuSans-67"/>
      <use x="69.824219" xlink:href="#DejaVuSans-84"/>
      <use x="130.908203" xlink:href="#DejaVuSans-82"/>
      <use x="200.390625" xlink:href="#DejaVuSans-76"/>
     </g>
    </g>
   </g>
   <g id="line2d_1">
    <path clip-path="url(#pf9290aa04a)" d="M 52.90629 70.133952 
L 53.3 70.078221 
L 54.481129 70.180766 
L 56.449677 70.276623 
L 57.237097 70.370252 
L 59.205645 70.392544 
L 59.599355 70.535215 
L 61.961613 70.439358 
L 63.930161 70.167391 
L 65.505 70.147328 
L 66.686129 69.948925 
L 69.442097 70.084909 
L 70.229516 70.220892 
L 72.198065 70.25656 
L 72.985484 70.419295 
L 80.072258 69.882048 
L 84.009355 70.200829 
L 85.190484 70.174078 
L 85.977903 70.392544 
L 93.852097 69.922174 
L 100.151452 70.323437 
L 100.545161 70.22758 
L 101.332581 70.323437 
L 102.12 70.22758 
L 104.088549 70.044783 
L 104.875968 70.011344 
L 106.057097 69.84638 
L 111.569032 70.200829 
L 112.356452 70.459421 
L 113.93129 70.405919 
L 114.71871 70.644448 
L 115.506129 70.820558 
L 115.899839 70.840621 
L 116.293549 71.1059 
L 117.080968 71.404618 
L 117.868387 71.990908 
L 118.262097 72.13358 
L 119.443226 71.698878 
L 119.836936 71.66321 
L 120.230645 71.411306 
L 120.624355 71.016731 
L 121.018065 70.853996 
L 121.411774 70.820558 
L 121.805484 71.221821 
L 122.199194 71.397931 
L 122.592903 71.8683 
L 122.986613 71.765755 
L 124.167742 73.317306 
L 124.561452 72.753308 
L 124.955161 71.324366 
L 126.92371 69.235569 
L 127.31742 69.043854 
L 127.711129 68.542275 
L 128.104839 68.446418 
L 128.892258 68.473169 
L 129.679678 68.519983 
L 131.254516 68.671571 
L 131.648226 68.548963 
L 132.435645 68.61584 
L 133.616774 68.901183 
L 134.010484 68.907871 
L 134.797903 69.112961 
L 136.766452 69.520911 
L 137.947581 69.690334 
L 138.341291 69.895424 
L 141.884678 69.772815 
L 142.672097 69.683646 
L 144.246936 69.732689 
L 145.428065 69.507536 
L 146.215484 69.507536 
L 146.609194 69.616769 
L 147.002903 69.418366 
L 147.396613 69.384928 
L 147.790323 69.066147 
L 148.577742 67.779876 
L 148.971452 66.79901 
L 149.758871 63.575531 
L 150.546291 58.131729 
L 151.33371 51.452928 
L 152.908549 34.838409 
L 153.302258 32.647067 
L 153.695968 32.477645 
L 154.089678 33.422842 
L 154.483387 35.518327 
L 154.877097 40.716913 
L 155.270807 48.349827 
L 155.664516 59.228514 
L 156.845645 100.291099 
L 157.239355 108.115728 
L 157.633065 111.319145 
L 158.026774 109.747532 
L 158.420484 105.781715 
L 160.389033 76.699061 
L 161.176452 71.513851 
L 161.963871 68.765199 
L 163.145 65.432487 
L 163.93242 64.010232 
L 164.719839 63.07841 
L 165.507258 62.193402 
L 167.082097 60.936112 
L 168.656936 59.895057 
L 169.838065 59.643153 
L 171.412904 59.574046 
L 172.200323 59.955246 
L 174.168871 61.656156 
L 176.531129 64.60321 
L 178.893387 67.730832 
L 179.680807 68.589089 
L 180.468226 69.351489 
L 181.255645 70.004656 
L 182.043065 70.568654 
L 183.617904 71.569582 
L 185.586452 72.352045 
L 185.980162 72.595032 
L 186.373871 72.617325 
L 187.555 73.052026 
L 188.736129 73.433226 
L 190.310968 73.649462 
L 191.098387 73.887991 
L 191.885807 73.908054 
L 192.673226 73.854552 
L 193.066936 73.930346 
L 195.035484 73.671755 
L 197.004033 73.562522 
L 197.397742 73.399787 
L 198.578871 73.439914 
L 198.972581 73.506791 
L 199.76 73.419851 
L 200.941129 73.535771 
L 202.122258 73.575897 
L 202.909678 73.535771 
L 203.697097 73.575897 
L 204.090807 73.691818 
L 207.634194 73.297242 
L 208.421613 73.194697 
L 210.390162 72.929418 
L 211.177581 72.840248 
L 215.902097 72.902667 
L 216.689517 72.916043 
L 217.083226 73.025275 
L 218.264355 72.895979 
L 219.051775 72.833561 
L 219.445484 72.840248 
L 220.232904 72.704265 
L 224.56371 72.051098 
L 228.894517 72.064473 
L 229.681936 71.997596 
L 230.469355 72.173706 
L 232.044194 71.92849 
L 232.437904 71.977533 
L 233.225323 71.792506 
L 234.012742 71.623084 
L 235.193871 71.4871 
L 236.375 71.331054 
L 236.76871 71.159402 
L 237.55613 71.168319 
L 242.280646 71.221821 
L 243.068065 71.268635 
L 243.461775 71.37118 
L 244.642904 71.241884 
L 245.036613 71.139339 
L 245.430323 71.255259 
L 247.792581 70.867372 
L 249.76113 70.644448 
L 250.154839 70.541903 
L 250.548549 70.561966 
L 250.548549 70.561966 
" style="fill:none;stroke:#191970;stroke-linecap:square;stroke-width:2;"/>
   </g>
   <g id="line2d_2">
    <path clip-path="url(#pf9290aa04a)" d="M 112.356452 58.898587 
L 147.002903 58.898587 
" style="fill:none;stroke:#000000;stroke-linecap:square;"/>
   </g>
   <g id="line2d_3">
    <path clip-path="url(#pf9290aa04a)" d="M 112.356452 61.127826 
L 112.356452 56.669348 
" style="fill:none;stroke:#000000;stroke-linecap:square;"/>
   </g>
   <g id="line2d_4">
    <path clip-path="url(#pf9290aa04a)" d="M 147.002903 61.127826 
L 147.002903 56.669348 
" style="fill:none;stroke:#000000;stroke-linecap:square;"/>
   </g>
   <g id="line2d_5">
    <path clip-path="url(#pf9290aa04a)" d="M 147.002903 28.803859 
L 162.751291 28.803859 
" style="fill:none;stroke:#000000;stroke-linecap:square;"/>
   </g>
   <g id="line2d_6">
    <path clip-path="url(#pf9290aa04a)" d="M 147.002903 31.033098 
L 147.002903 26.57462 
" style="fill:none;stroke:#000000;stroke-linecap:square;"/>
   </g>
   <g id="line2d_7">
    <path clip-path="url(#pf9290aa04a)" d="M 162.751291 31.033098 
L 162.751291 26.57462 
" style="fill:none;stroke:#000000;stroke-linecap:square;"/>
   </g>
   <g id="text_2">
    <!-- 44ms -->
    <defs>
     <path d="M 36.8125 57.421875 
L 16.21875 26.90625 
L 36.8125 26.90625 
z
M 33.6875 72.90625 
L 54.59375 72.90625 
L 54.59375 26.90625 
L 64.984375 26.90625 
L 64.984375 13.28125 
L 54.59375 13.28125 
L 54.59375 0 
L 36.8125 0 
L 36.8125 13.28125 
L 4.5 13.28125 
L 4.5 29.390625 
z
" id="DejaVuSans-Bold-52"/>
     <path d="M 59.078125 45.609375 
Q 62.40625 50.6875 66.96875 53.34375 
Q 71.53125 56 77 56 
Q 86.421875 56 91.359375 50.1875 
Q 96.296875 44.390625 96.296875 33.296875 
L 96.296875 0 
L 78.71875 0 
L 78.71875 28.515625 
Q 78.765625 29.15625 78.78125 29.828125 
Q 78.8125 30.515625 78.8125 31.78125 
Q 78.8125 37.59375 77.09375 40.203125 
Q 75.390625 42.828125 71.578125 42.828125 
Q 66.609375 42.828125 63.890625 38.71875 
Q 61.1875 34.625 61.078125 26.859375 
L 61.078125 0 
L 43.5 0 
L 43.5 28.515625 
Q 43.5 37.59375 41.9375 40.203125 
Q 40.375 42.828125 36.375 42.828125 
Q 31.34375 42.828125 28.609375 38.703125 
Q 25.875 34.578125 25.875 26.90625 
L 25.875 0 
L 8.296875 0 
L 8.296875 54.6875 
L 25.875 54.6875 
L 25.875 46.6875 
Q 29.109375 51.3125 33.28125 53.65625 
Q 37.453125 56 42.484375 56 
Q 48.140625 56 52.484375 53.265625 
Q 56.84375 50.53125 59.078125 45.609375 
z
" id="DejaVuSans-Bold-109"/>
     <path d="M 51.125 52.984375 
L 51.125 39.703125 
Q 45.515625 42.046875 40.28125 43.21875 
Q 35.0625 44.390625 30.421875 44.390625 
Q 25.4375 44.390625 23.015625 43.140625 
Q 20.609375 41.890625 20.609375 39.3125 
Q 20.609375 37.203125 22.4375 36.078125 
Q 24.265625 34.96875 29 34.421875 
L 32.078125 33.984375 
Q 45.515625 32.28125 50.140625 28.375 
Q 54.78125 24.46875 54.78125 16.109375 
Q 54.78125 7.375 48.328125 2.96875 
Q 41.890625 -1.421875 29.109375 -1.421875 
Q 23.6875 -1.421875 17.890625 -0.5625 
Q 12.109375 0.296875 6 2 
L 6 15.28125 
Q 11.234375 12.75 16.71875 11.46875 
Q 22.21875 10.203125 27.875 10.203125 
Q 33.015625 10.203125 35.59375 11.609375 
Q 38.1875 13.03125 38.1875 15.828125 
Q 38.1875 18.171875 36.40625 19.3125 
Q 34.625 20.453125 29.296875 21.09375 
L 26.21875 21.484375 
Q 14.546875 22.953125 9.859375 26.90625 
Q 5.171875 30.859375 5.171875 38.921875 
Q 5.171875 47.609375 11.125 51.796875 
Q 17.09375 56 29.390625 56 
Q 34.234375 56 39.546875 55.265625 
Q 44.875 54.546875 51.125 52.984375 
z
" id="DejaVuSans-Bold-115"/>
    </defs>
    <g transform="translate(119.079053 57.442806)scale(0.07 -0.07)">
     <use xlink:href="#DejaVuSans-Bold-52"/>
     <use x="69.580078" xlink:href="#DejaVuSans-Bold-52"/>
     <use x="139.160156" xlink:href="#DejaVuSans-Bold-109"/>
     <use x="243.359375" xlink:href="#DejaVuSans-Bold-115"/>
    </g>
   </g>
   <g id="text_3">
    <!-- 20ms -->
    <defs>
     <path d="M 28.8125 13.8125 
L 60.890625 13.8125 
L 60.890625 0 
L 7.90625 0 
L 7.90625 13.8125 
L 34.515625 37.3125 
Q 38.09375 40.53125 39.796875 43.609375 
Q 41.5 46.6875 41.5 50 
Q 41.5 55.125 38.0625 58.25 
Q 34.625 61.375 28.90625 61.375 
Q 24.515625 61.375 19.28125 59.5 
Q 14.0625 57.625 8.109375 53.90625 
L 8.109375 69.921875 
Q 14.453125 72.015625 20.65625 73.109375 
Q 26.859375 74.21875 32.8125 74.21875 
Q 45.90625 74.21875 53.15625 68.453125 
Q 60.40625 62.703125 60.40625 52.390625 
Q 60.40625 46.4375 57.328125 41.28125 
Q 54.25 36.140625 44.390625 27.484375 
z
" id="DejaVuSans-Bold-50"/>
     <path d="M 46 36.53125 
Q 46 50.203125 43.4375 55.78125 
Q 40.875 61.375 34.8125 61.375 
Q 28.765625 61.375 26.171875 55.78125 
Q 23.578125 50.203125 23.578125 36.53125 
Q 23.578125 22.703125 26.171875 17.03125 
Q 28.765625 11.375 34.8125 11.375 
Q 40.828125 11.375 43.40625 17.03125 
Q 46 22.703125 46 36.53125 
z
M 64.796875 36.375 
Q 64.796875 18.265625 56.984375 8.421875 
Q 49.171875 -1.421875 34.8125 -1.421875 
Q 20.40625 -1.421875 12.59375 8.421875 
Q 4.78125 18.265625 4.78125 36.375 
Q 4.78125 54.546875 12.59375 64.375 
Q 20.40625 74.21875 34.8125 74.21875 
Q 49.171875 74.21875 56.984375 64.375 
Q 64.796875 54.546875 64.796875 36.375 
z
" id="DejaVuSans-Bold-48"/>
    </defs>
    <g transform="translate(144.276472 27.348077)scale(0.07 -0.07)">
     <use xlink:href="#DejaVuSans-Bold-50"/>
     <use x="69.580078" xlink:href="#DejaVuSans-Bold-48"/>
     <use x="139.160156" xlink:href="#DejaVuSans-Bold-109"/>
     <use x="243.359375" xlink:href="#DejaVuSans-Bold-115"/>
    </g>
   </g>
  </g>
  <g id="axes_2">
   <g id="patch_3">
    <path d="M 53.3 230.55 
L 250.154839 230.55 
L 250.154839 141.380435 
L 53.3 141.380435 
z
" style="fill:#ffffff;"/>
   </g>
   <g id="matplotlib.axis_3">
    <g id="xtick_4"/>
    <g id="xtick_5"/>
    <g id="xtick_6"/>
   </g>
   <g id="matplotlib.axis_4">
    <g id="ytick_4"/>
    <g id="ytick_5"/>
    <g id="ytick_6"/>
    <g id="text_4">
     <!-- MEHP -->
     <defs>
      <path d="M 9.8125 72.90625 
L 24.515625 72.90625 
L 43.109375 23.296875 
L 61.8125 72.90625 
L 76.515625 72.90625 
L 76.515625 0 
L 66.890625 0 
L 66.890625 64.015625 
L 48.09375 14.015625 
L 38.1875 14.015625 
L 19.390625 64.015625 
L 19.390625 0 
L 9.8125 0 
z
" id="DejaVuSans-77"/>
      <path d="M 9.8125 72.90625 
L 55.90625 72.90625 
L 55.90625 64.59375 
L 19.671875 64.59375 
L 19.671875 43.015625 
L 54.390625 43.015625 
L 54.390625 34.71875 
L 19.671875 34.71875 
L 19.671875 8.296875 
L 56.78125 8.296875 
L 56.78125 0 
L 9.8125 0 
z
" id="DejaVuSans-69"/>
      <path d="M 9.8125 72.90625 
L 19.671875 72.90625 
L 19.671875 43.015625 
L 55.515625 43.015625 
L 55.515625 72.90625 
L 65.375 72.90625 
L 65.375 0 
L 55.515625 0 
L 55.515625 34.71875 
L 19.671875 34.71875 
L 19.671875 0 
L 9.8125 0 
z
" id="DejaVuSans-72"/>
      <path d="M 19.671875 64.796875 
L 19.671875 37.40625 
L 32.078125 37.40625 
Q 38.96875 37.40625 42.71875 40.96875 
Q 46.484375 44.53125 46.484375 51.125 
Q 46.484375 57.671875 42.71875 61.234375 
Q 38.96875 64.796875 32.078125 64.796875 
z
M 9.8125 72.90625 
L 32.078125 72.90625 
Q 44.34375 72.90625 50.609375 67.359375 
Q 56.890625 61.8125 56.890625 51.125 
Q 56.890625 40.328125 50.609375 34.8125 
Q 44.34375 29.296875 32.078125 29.296875 
L 19.671875 29.296875 
L 19.671875 0 
L 9.8125 0 
z
" id="DejaVuSans-80"/>
     </defs>
     <g transform="translate(39.388438 205.91303)rotate(-90)scale(0.14 -0.14)">
      <use xlink:href="#DejaVuSans-77"/>
      <use x="86.279297" xlink:href="#DejaVuSans-69"/>
      <use x="149.462891" xlink:href="#DejaVuSans-72"/>
      <use x="224.658203" xlink:href="#DejaVuSans-80"/>
     </g>
    </g>
   </g>
   <g id="line2d_8">
    <path clip-path="url(#p4b97893bc8)" d="M 52.90629 186.787807 
L 59.599355 186.428899 
L 61.961613 186.522527 
L 63.536452 186.462338 
L 64.323871 186.442275 
L 64.717581 186.558195 
L 69.048387 186.333042 
L 71.016936 186.299603 
L 71.410645 186.183683 
L 75.347742 186.36648 
L 81.253387 186.270623 
L 82.040807 186.243872 
L 84.009355 186.263935 
L 84.796774 186.13464 
L 88.340161 186.299603 
L 90.702419 186.283999 
L 91.489839 186.373168 
L 96.608065 186.183683 
L 97.001774 186.203746 
L 97.789194 186.061075 
L 103.301129 186.183683 
L 104.088549 186.087826 
L 105.269678 185.713313 
L 105.663387 185.590705 
L 106.057097 185.305363 
L 106.450807 185.176067 
L 106.844516 185.291987 
L 108.025645 185.216193 
L 108.419355 185.10696 
L 108.813065 185.216193 
L 109.206774 185.590705 
L 109.994194 185.543891 
L 110.781613 186.283999 
L 111.175323 186.393231 
L 111.962742 185.835922 
L 112.356452 185.965217 
L 112.750161 185.802483 
L 113.537581 186.326354 
L 113.93129 186.333042 
L 114.325 186.114576 
L 114.71871 186.190371 
L 115.11242 186.645135 
L 115.899839 186.80787 
L 118.655807 186.943853 
L 121.805484 186.678574 
L 126.136291 186.482401 
L 128.498549 186.428899 
L 130.073387 186.379856 
L 130.860807 186.442275 
L 132.435645 186.277311 
L 137.947581 185.985281 
L 140.703549 186.114576 
L 141.884678 185.971905 
L 146.609194 185.809171 
L 147.396613 185.746752 
L 150.94 186.170307 
L 151.33371 185.720001 
L 151.72742 184.850598 
L 152.121129 183.107333 
L 152.514839 180.59721 
L 152.908549 177.032656 
L 153.695968 167.14821 
L 154.877097 151.862317 
L 155.270807 149.153792 
L 155.664516 147.950002 
L 156.058226 147.738225 
L 156.451936 149.153792 
L 156.845645 152.051803 
L 157.239355 157.344016 
L 158.026774 177.195391 
L 159.207903 211.264852 
L 159.601613 218.810827 
L 159.995323 223.505604 
L 160.389033 222.912627 
L 160.782742 220.750265 
L 161.176452 215.074622 
L 161.963871 193.836661 
L 162.357581 186.903727 
L 162.751291 183.809543 
L 163.145 182.400664 
L 163.53871 183.013705 
L 163.93242 184.841681 
L 164.326129 185.69325 
L 164.719839 185.905028 
L 165.113549 186.618384 
L 165.507258 188.35942 
L 165.900968 189.257804 
L 166.294678 189.320222 
L 166.688387 188.651451 
L 167.475807 185.809171 
L 168.656936 180.481289 
L 169.050645 179.787996 
L 169.444355 179.400108 
L 171.019194 178.657772 
L 172.200323 178.448223 
L 173.381452 178.550768 
L 174.562581 179.10139 
L 175.35 179.638637 
L 177.318549 181.060891 
L 180.468226 183.849669 
L 183.617904 185.971905 
L 185.586452 186.83685 
L 188.736129 187.788735 
L 191.098387 188.107516 
L 193.066936 188.392859 
L 198.578871 188.312606 
L 200.54742 188.149872 
L 202.122258 188.087453 
L 202.909678 187.904655 
L 206.453065 187.918031 
L 208.421613 187.77536 
L 210.783871 187.719629 
L 212.75242 187.523456 
L 215.508388 187.434286 
L 216.295807 187.39416 
L 224.17 187.563582 
L 231.256775 187.530143 
L 232.831613 187.576957 
L 234.800162 187.51008 
L 235.981291 187.57027 
L 243.461775 187.135568 
L 244.642904 187.148943 
L 246.217742 187.108817 
L 250.548549 186.917102 
L 250.548549 186.917102 
" style="fill:none;stroke:#191970;stroke-linecap:square;stroke-width:2;"/>
   </g>
   <g id="line2d_9">
    <path clip-path="url(#p4b97893bc8)" d="M 103.694839 174.819022 
L 150.152581 174.819022 
" style="fill:none;stroke:#000000;stroke-linecap:square;"/>
   </g>
   <g id="line2d_10">
    <path clip-path="url(#p4b97893bc8)" d="M 103.694839 177.048261 
L 103.694839 172.589783 
" style="fill:none;stroke:#000000;stroke-linecap:square;"/>
   </g>
   <g id="line2d_11">
    <path clip-path="url(#p4b97893bc8)" d="M 150.152581 177.048261 
L 150.152581 172.589783 
" style="fill:none;stroke:#000000;stroke-linecap:square;"/>
   </g>
   <g id="line2d_12">
    <path clip-path="url(#p4b97893bc8)" d="M 150.152581 144.724293 
L 169.838065 144.724293 
" style="fill:none;stroke:#000000;stroke-linecap:square;"/>
   </g>
   <g id="line2d_13">
    <path clip-path="url(#p4b97893bc8)" d="M 150.152581 146.953533 
L 150.152581 142.495054 
" style="fill:none;stroke:#000000;stroke-linecap:square;"/>
   </g>
   <g id="line2d_14">
    <path clip-path="url(#p4b97893bc8)" d="M 169.838065 146.953533 
L 169.838065 142.495054 
" style="fill:none;stroke:#000000;stroke-linecap:square;"/>
   </g>
   <g id="line2d_15">
    <path clip-path="url(#p4b97893bc8)" d="M 234.406452 223.862283 
L 250.154839 223.862283 
" style="fill:none;stroke:#000000;stroke-linecap:square;"/>
   </g>
   <g id="line2d_16">
    <path clip-path="url(#p4b97893bc8)" d="M 234.406452 223.862283 
L 234.406452 212.716087 
" style="fill:none;stroke:#000000;stroke-linecap:square;"/>
   </g>
   <g id="text_5">
    <!-- 59ms -->
    <defs>
     <path d="M 10.59375 72.90625 
L 57.328125 72.90625 
L 57.328125 59.078125 
L 25.59375 59.078125 
L 25.59375 47.796875 
Q 27.734375 48.390625 29.90625 48.703125 
Q 32.078125 49.03125 34.421875 49.03125 
Q 47.75 49.03125 55.171875 42.359375 
Q 62.59375 35.6875 62.59375 23.78125 
Q 62.59375 11.96875 54.515625 5.265625 
Q 46.4375 -1.421875 32.078125 -1.421875 
Q 25.875 -1.421875 19.796875 -0.21875 
Q 13.71875 0.984375 7.71875 3.421875 
L 7.71875 18.21875 
Q 13.671875 14.796875 19.015625 13.078125 
Q 24.359375 11.375 29.109375 11.375 
Q 35.9375 11.375 39.859375 14.71875 
Q 43.796875 18.0625 43.796875 23.78125 
Q 43.796875 29.546875 39.859375 32.859375 
Q 35.9375 36.1875 29.109375 36.1875 
Q 25.046875 36.1875 20.453125 35.125 
Q 15.875 34.078125 10.59375 31.890625 
z
" id="DejaVuSans-Bold-53"/>
     <path d="M 10.015625 1.609375 
L 10.015625 15.09375 
Q 14.5 12.984375 18.59375 11.9375 
Q 22.703125 10.890625 26.703125 10.890625 
Q 35.109375 10.890625 39.796875 15.546875 
Q 44.484375 20.21875 45.3125 29.390625 
Q 42 26.953125 38.234375 25.734375 
Q 34.46875 24.515625 30.078125 24.515625 
Q 18.890625 24.515625 12.03125 31.03125 
Q 5.171875 37.546875 5.171875 48.1875 
Q 5.171875 59.96875 12.8125 67.046875 
Q 20.453125 74.125 33.296875 74.125 
Q 47.5625 74.125 55.375 64.5 
Q 63.1875 54.890625 63.1875 37.3125 
Q 63.1875 19.234375 54.046875 8.90625 
Q 44.921875 -1.421875 29 -1.421875 
Q 23.875 -1.421875 19.1875 -0.65625 
Q 14.5 0.09375 10.015625 1.609375 
z
M 33.203125 36.71875 
Q 38.140625 36.71875 40.625 39.90625 
Q 43.109375 43.109375 43.109375 49.515625 
Q 43.109375 55.859375 40.625 59.078125 
Q 38.140625 62.3125 33.203125 62.3125 
Q 28.265625 62.3125 25.78125 59.078125 
Q 23.296875 55.859375 23.296875 49.515625 
Q 23.296875 43.109375 25.78125 39.90625 
Q 28.265625 36.71875 33.203125 36.71875 
z
" id="DejaVuSans-Bold-57"/>
    </defs>
    <g transform="translate(116.323085 173.36324)scale(0.07 -0.07)">
     <use xlink:href="#DejaVuSans-Bold-53"/>
     <use x="69.580078" xlink:href="#DejaVuSans-Bold-57"/>
     <use x="139.160156" xlink:href="#DejaVuSans-Bold-109"/>
     <use x="243.359375" xlink:href="#DejaVuSans-Bold-115"/>
    </g>
   </g>
   <g id="text_6">
    <!-- 25ms -->
    <g transform="translate(149.394698 143.268512)scale(0.07 -0.07)">
     <use xlink:href="#DejaVuSans-Bold-50"/>
     <use x="69.580078" xlink:href="#DejaVuSans-Bold-53"/>
     <use x="139.160156" xlink:href="#DejaVuSans-Bold-109"/>
     <use x="243.359375" xlink:href="#DejaVuSans-Bold-115"/>
    </g>
   </g>
   <g id="text_7">
    <!-- 20ms -->
    <g transform="translate(234.406452 233.639667)scale(0.07 -0.07)">
     <use xlink:href="#DejaVuSans-Bold-50"/>
     <use x="69.580078" xlink:href="#DejaVuSans-Bold-48"/>
     <use x="139.160156" xlink:href="#DejaVuSans-Bold-109"/>
     <use x="243.359375" xlink:href="#DejaVuSans-Bold-115"/>
    </g>
   </g>
   <g id="text_8">
    <!-- 500mV -->
    <defs>
     <path d="M 0.484375 72.90625 
L 19.390625 72.90625 
L 38.71875 19.09375 
L 58.015625 72.90625 
L 76.90625 72.90625 
L 49.90625 0 
L 27.484375 0 
z
" id="DejaVuSans-Bold-86"/>
    </defs>
    <g transform="translate(205.508645 222.406501)scale(0.07 -0.07)">
     <use xlink:href="#DejaVuSans-Bold-53"/>
     <use x="69.580078" xlink:href="#DejaVuSans-Bold-48"/>
     <use x="139.160156" xlink:href="#DejaVuSans-Bold-48"/>
     <use x="208.740234" xlink:href="#DejaVuSans-Bold-109"/>
     <use x="312.939453" xlink:href="#DejaVuSans-Bold-86"/>
    </g>
   </g>
  </g>
  <g id="axes_3">
   <g id="patch_4">
    <path d="M 317.56258 230.55 
L 514.41742 230.55 
L 514.41742 25.46 
L 317.56258 25.46 
z
" style="fill:#ffffff;"/>
   </g>
   <g id="patch_5">
    <path clip-path="url(#pd1f9fc01ce)" d="M 332.326693 230.55 
L 366.77629 230.55 
L 366.77629 56.668627 
L 332.326693 56.668627 
z
" style="fill:#cd5c5c;"/>
   </g>
   <g id="patch_6">
    <path clip-path="url(#pd1f9fc01ce)" d="M 369.236976 230.55 
L 403.686573 230.55 
L 403.686573 88.845837 
L 369.236976 88.845837 
z
" style="fill:#191970;"/>
   </g>
   <g id="patch_7">
    <path clip-path="url(#pd1f9fc01ce)" d="M 430.754113 230.55 
L 465.20371 230.55 
L 465.20371 47.870786 
L 430.754113 47.870786 
z
" style="fill:#cd5c5c;"/>
   </g>
   <g id="patch_8">
    <path clip-path="url(#pd1f9fc01ce)" d="M 467.664395 230.55 
L 502.113992 230.55 
L 502.113992 84.387307 
L 467.664395 84.387307 
z
" style="fill:#191970;"/>
   </g>
   <g id="matplotlib.axis_5">
    <g id="xtick_7">
     <g id="line2d_17">
      <defs>
       <path d="M 0 0 
L 0 3.5 
" id="mb1bd3274a7" style="stroke:#000000;stroke-width:0.8;"/>
      </defs>
      <g>
       <use style="stroke:#000000;stroke-width:0.8;" x="366.77629" xlink:href="#mb1bd3274a7" y="230.55"/>
      </g>
     </g>
     <g id="text_9">
      <!-- Ctrl -->
      <defs>
       <path d="M 18.3125 70.21875 
L 18.3125 54.6875 
L 36.8125 54.6875 
L 36.8125 47.703125 
L 18.3125 47.703125 
L 18.3125 18.015625 
Q 18.3125 11.328125 20.140625 9.421875 
Q 21.96875 7.515625 27.59375 7.515625 
L 36.8125 7.515625 
L 36.8125 0 
L 27.59375 0 
Q 17.1875 0 13.234375 3.875 
Q 9.28125 7.765625 9.28125 18.015625 
L 9.28125 47.703125 
L 2.6875 47.703125 
L 2.6875 54.6875 
L 9.28125 54.6875 
L 9.28125 70.21875 
z
" id="DejaVuSans-116"/>
       <path d="M 41.109375 46.296875 
Q 39.59375 47.171875 37.8125 47.578125 
Q 36.03125 48 33.890625 48 
Q 26.265625 48 22.1875 43.046875 
Q 18.109375 38.09375 18.109375 28.8125 
L 18.109375 0 
L 9.078125 0 
L 9.078125 54.6875 
L 18.109375 54.6875 
L 18.109375 46.1875 
Q 20.953125 51.171875 25.484375 53.578125 
Q 30.03125 56 36.53125 56 
Q 37.453125 56 38.578125 55.875 
Q 39.703125 55.765625 41.0625 55.515625 
z
" id="DejaVuSans-114"/>
       <path d="M 9.421875 75.984375 
L 18.40625 75.984375 
L 18.40625 0 
L 9.421875 0 
z
" id="DejaVuSans-108"/>
      </defs>
      <g transform="translate(354.321759 248.187813)scale(0.14 -0.14)">
       <use xlink:href="#DejaVuSans-67"/>
       <use x="69.824219" xlink:href="#DejaVuSans-116"/>
       <use x="109.033203" xlink:href="#DejaVuSans-114"/>
       <use x="150.146484" xlink:href="#DejaVuSans-108"/>
      </g>
     </g>
    </g>
    <g id="xtick_8">
     <g id="line2d_18">
      <g>
       <use style="stroke:#000000;stroke-width:0.8;" x="465.20371" xlink:href="#mb1bd3274a7" y="230.55"/>
      </g>
     </g>
     <g id="text_10">
      <!-- MEHP -->
      <g transform="translate(445.255897 248.187813)scale(0.14 -0.14)">
       <use xlink:href="#DejaVuSans-77"/>
       <use x="86.279297" xlink:href="#DejaVuSans-69"/>
       <use x="149.462891" xlink:href="#DejaVuSans-72"/>
       <use x="224.658203" xlink:href="#DejaVuSans-80"/>
      </g>
     </g>
    </g>
   </g>
   <g id="matplotlib.axis_6">
    <g id="ytick_7">
     <g id="line2d_19">
      <defs>
       <path d="M 0 0 
L -3.5 0 
" id="m9782915807" style="stroke:#000000;stroke-width:0.8;"/>
      </defs>
      <g>
       <use style="stroke:#000000;stroke-width:0.8;" x="317.56258" xlink:href="#m9782915807" y="230.55"/>
      </g>
     </g>
     <g id="text_11">
      <!-- 0 -->
      <defs>
       <path d="M 31.78125 66.40625 
Q 24.171875 66.40625 20.328125 58.90625 
Q 16.5 51.421875 16.5 36.375 
Q 16.5 21.390625 20.328125 13.890625 
Q 24.171875 6.390625 31.78125 6.390625 
Q 39.453125 6.390625 43.28125 13.890625 
Q 47.125 21.390625 47.125 36.375 
Q 47.125 51.421875 43.28125 58.90625 
Q 39.453125 66.40625 31.78125 66.40625 
z
M 31.78125 74.21875 
Q 44.046875 74.21875 50.515625 64.515625 
Q 56.984375 54.828125 56.984375 36.375 
Q 56.984375 17.96875 50.515625 8.265625 
Q 44.046875 -1.421875 31.78125 -1.421875 
Q 19.53125 -1.421875 13.0625 8.265625 
Q 6.59375 17.96875 6.59375 36.375 
Q 6.59375 54.828125 13.0625 64.515625 
Q 19.53125 74.21875 31.78125 74.21875 
z
" id="DejaVuSans-48"/>
      </defs>
      <g transform="translate(301.65508 235.868906)scale(0.14 -0.14)">
       <use xlink:href="#DejaVuSans-48"/>
      </g>
     </g>
    </g>
    <g id="ytick_8">
     <g id="line2d_20">
      <g>
       <use style="stroke:#000000;stroke-width:0.8;" x="317.56258" xlink:href="#m9782915807" y="189.532"/>
      </g>
     </g>
     <g id="text_12">
      <!-- 50 -->
      <defs>
       <path d="M 10.796875 72.90625 
L 49.515625 72.90625 
L 49.515625 64.59375 
L 19.828125 64.59375 
L 19.828125 46.734375 
Q 21.96875 47.46875 24.109375 47.828125 
Q 26.265625 48.1875 28.421875 48.1875 
Q 40.625 48.1875 47.75 41.5 
Q 54.890625 34.8125 54.890625 23.390625 
Q 54.890625 11.625 47.5625 5.09375 
Q 40.234375 -1.421875 26.90625 -1.421875 
Q 22.3125 -1.421875 17.546875 -0.640625 
Q 12.796875 0.140625 7.71875 1.703125 
L 7.71875 11.625 
Q 12.109375 9.234375 16.796875 8.0625 
Q 21.484375 6.890625 26.703125 6.890625 
Q 35.15625 6.890625 40.078125 11.328125 
Q 45.015625 15.765625 45.015625 23.390625 
Q 45.015625 31 40.078125 35.4375 
Q 35.15625 39.890625 26.703125 39.890625 
Q 22.75 39.890625 18.8125 39.015625 
Q 14.890625 38.140625 10.796875 36.28125 
z
" id="DejaVuSans-53"/>
      </defs>
      <g transform="translate(292.74758 194.850906)scale(0.14 -0.14)">
       <use xlink:href="#DejaVuSans-53"/>
       <use x="63.623047" xlink:href="#DejaVuSans-48"/>
      </g>
     </g>
    </g>
    <g id="ytick_9">
     <g id="line2d_21">
      <g>
       <use style="stroke:#000000;stroke-width:0.8;" x="317.56258" xlink:href="#m9782915807" y="148.514"/>
      </g>
     </g>
     <g id="text_13">
      <!-- 100 -->
      <defs>
       <path d="M 12.40625 8.296875 
L 28.515625 8.296875 
L 28.515625 63.921875 
L 10.984375 60.40625 
L 10.984375 69.390625 
L 28.421875 72.90625 
L 38.28125 72.90625 
L 38.28125 8.296875 
L 54.390625 8.296875 
L 54.390625 0 
L 12.40625 0 
z
" id="DejaVuSans-49"/>
      </defs>
      <g transform="translate(283.84008 153.832906)scale(0.14 -0.14)">
       <use xlink:href="#DejaVuSans-49"/>
       <use x="63.623047" xlink:href="#DejaVuSans-48"/>
       <use x="127.246094" xlink:href="#DejaVuSans-48"/>
      </g>
     </g>
    </g>
    <g id="ytick_10">
     <g id="line2d_22">
      <g>
       <use style="stroke:#000000;stroke-width:0.8;" x="317.56258" xlink:href="#m9782915807" y="107.496"/>
      </g>
     </g>
     <g id="text_14">
      <!-- 150 -->
      <g transform="translate(283.84008 112.814906)scale(0.14 -0.14)">
       <use xlink:href="#DejaVuSans-49"/>
       <use x="63.623047" xlink:href="#DejaVuSans-53"/>
       <use x="127.246094" xlink:href="#DejaVuSans-48"/>
      </g>
     </g>
    </g>
    <g id="ytick_11">
     <g id="line2d_23">
      <g>
       <use style="stroke:#000000;stroke-width:0.8;" x="317.56258" xlink:href="#m9782915807" y="66.478"/>
      </g>
     </g>
     <g id="text_15">
      <!-- 200 -->
      <defs>
       <path d="M 19.1875 8.296875 
L 53.609375 8.296875 
L 53.609375 0 
L 7.328125 0 
L 7.328125 8.296875 
Q 12.9375 14.109375 22.625 23.890625 
Q 32.328125 33.6875 34.8125 36.53125 
Q 39.546875 41.84375 41.421875 45.53125 
Q 43.3125 49.21875 43.3125 52.78125 
Q 43.3125 58.59375 39.234375 62.25 
Q 35.15625 65.921875 28.609375 65.921875 
Q 23.96875 65.921875 18.8125 64.3125 
Q 13.671875 62.703125 7.8125 59.421875 
L 7.8125 69.390625 
Q 13.765625 71.78125 18.9375 73 
Q 24.125 74.21875 28.421875 74.21875 
Q 39.75 74.21875 46.484375 68.546875 
Q 53.21875 62.890625 53.21875 53.421875 
Q 53.21875 48.921875 51.53125 44.890625 
Q 49.859375 40.875 45.40625 35.40625 
Q 44.1875 33.984375 37.640625 27.21875 
Q 31.109375 20.453125 19.1875 8.296875 
z
" id="DejaVuSans-50"/>
      </defs>
      <g transform="translate(283.84008 71.796906)scale(0.14 -0.14)">
       <use xlink:href="#DejaVuSans-50"/>
       <use x="63.623047" xlink:href="#DejaVuSans-48"/>
       <use x="127.246094" xlink:href="#DejaVuSans-48"/>
      </g>
     </g>
    </g>
    <g id="ytick_12">
     <g id="line2d_24">
      <g>
       <use style="stroke:#000000;stroke-width:0.8;" x="317.56258" xlink:href="#m9782915807" y="25.46"/>
      </g>
     </g>
     <g id="text_16">
      <!-- 250 -->
      <g transform="translate(283.84008 30.778906)scale(0.14 -0.14)">
       <use xlink:href="#DejaVuSans-50"/>
       <use x="63.623047" xlink:href="#DejaVuSans-53"/>
       <use x="127.246094" xlink:href="#DejaVuSans-48"/>
      </g>
     </g>
    </g>
    <g id="text_17">
     <!-- HR (bpm) -->
     <defs>
      <path id="DejaVuSans-32"/>
      <path d="M 31 75.875 
Q 24.46875 64.65625 21.28125 53.65625 
Q 18.109375 42.671875 18.109375 31.390625 
Q 18.109375 20.125 21.3125 9.0625 
Q 24.515625 -2 31 -13.1875 
L 23.1875 -13.1875 
Q 15.875 -1.703125 12.234375 9.375 
Q 8.59375 20.453125 8.59375 31.390625 
Q 8.59375 42.28125 12.203125 53.3125 
Q 15.828125 64.359375 23.1875 75.875 
z
" id="DejaVuSans-40"/>
      <path d="M 48.6875 27.296875 
Q 48.6875 37.203125 44.609375 42.84375 
Q 40.53125 48.484375 33.40625 48.484375 
Q 26.265625 48.484375 22.1875 42.84375 
Q 18.109375 37.203125 18.109375 27.296875 
Q 18.109375 17.390625 22.1875 11.75 
Q 26.265625 6.109375 33.40625 6.109375 
Q 40.53125 6.109375 44.609375 11.75 
Q 48.6875 17.390625 48.6875 27.296875 
z
M 18.109375 46.390625 
Q 20.953125 51.265625 25.265625 53.625 
Q 29.59375 56 35.59375 56 
Q 45.5625 56 51.78125 48.09375 
Q 58.015625 40.1875 58.015625 27.296875 
Q 58.015625 14.40625 51.78125 6.484375 
Q 45.5625 -1.421875 35.59375 -1.421875 
Q 29.59375 -1.421875 25.265625 0.953125 
Q 20.953125 3.328125 18.109375 8.203125 
L 18.109375 0 
L 9.078125 0 
L 9.078125 75.984375 
L 18.109375 75.984375 
z
" id="DejaVuSans-98"/>
      <path d="M 18.109375 8.203125 
L 18.109375 -20.796875 
L 9.078125 -20.796875 
L 9.078125 54.6875 
L 18.109375 54.6875 
L 18.109375 46.390625 
Q 20.953125 51.265625 25.265625 53.625 
Q 29.59375 56 35.59375 56 
Q 45.5625 56 51.78125 48.09375 
Q 58.015625 40.1875 58.015625 27.296875 
Q 58.015625 14.40625 51.78125 6.484375 
Q 45.5625 -1.421875 35.59375 -1.421875 
Q 29.59375 -1.421875 25.265625 0.953125 
Q 20.953125 3.328125 18.109375 8.203125 
z
M 48.6875 27.296875 
Q 48.6875 37.203125 44.609375 42.84375 
Q 40.53125 48.484375 33.40625 48.484375 
Q 26.265625 48.484375 22.1875 42.84375 
Q 18.109375 37.203125 18.109375 27.296875 
Q 18.109375 17.390625 22.1875 11.75 
Q 26.265625 6.109375 33.40625 6.109375 
Q 40.53125 6.109375 44.609375 11.75 
Q 48.6875 17.390625 48.6875 27.296875 
z
" id="DejaVuSans-112"/>
      <path d="M 52 44.1875 
Q 55.375 50.25 60.0625 53.125 
Q 64.75 56 71.09375 56 
Q 79.640625 56 84.28125 50.015625 
Q 88.921875 44.046875 88.921875 33.015625 
L 88.921875 0 
L 79.890625 0 
L 79.890625 32.71875 
Q 79.890625 40.578125 77.09375 44.375 
Q 74.3125 48.1875 68.609375 48.1875 
Q 61.625 48.1875 57.5625 43.546875 
Q 53.515625 38.921875 53.515625 30.90625 
L 53.515625 0 
L 44.484375 0 
L 44.484375 32.71875 
Q 44.484375 40.625 41.703125 44.40625 
Q 38.921875 48.1875 33.109375 48.1875 
Q 26.21875 48.1875 22.15625 43.53125 
Q 18.109375 38.875 18.109375 30.90625 
L 18.109375 0 
L 9.078125 0 
L 9.078125 54.6875 
L 18.109375 54.6875 
L 18.109375 46.1875 
Q 21.1875 51.21875 25.484375 53.609375 
Q 29.78125 56 35.6875 56 
Q 41.65625 56 45.828125 52.96875 
Q 50 49.953125 52 44.1875 
z
" id="DejaVuSans-109"/>
      <path d="M 8.015625 75.875 
L 15.828125 75.875 
Q 23.140625 64.359375 26.78125 53.3125 
Q 30.421875 42.28125 30.421875 31.390625 
Q 30.421875 20.453125 26.78125 9.375 
Q 23.140625 -1.703125 15.828125 -13.1875 
L 8.015625 -13.1875 
Q 14.5 -2 17.703125 9.0625 
Q 20.90625 20.125 20.90625 31.390625 
Q 20.90625 42.671875 17.703125 53.65625 
Q 14.5 64.65625 8.015625 75.875 
z
" id="DejaVuSans-41"/>
     </defs>
     <g transform="translate(276.928518 161.52625)rotate(-90)scale(0.14 -0.14)">
      <use xlink:href="#DejaVuSans-72"/>
      <use x="75.195312" xlink:href="#DejaVuSans-82"/>
      <use x="144.677734" xlink:href="#DejaVuSans-32"/>
      <use x="176.464844" xlink:href="#DejaVuSans-40"/>
      <use x="215.478516" xlink:href="#DejaVuSans-98"/>
      <use x="278.955078" xlink:href="#DejaVuSans-112"/>
      <use x="342.431641" xlink:href="#DejaVuSans-109"/>
      <use x="439.84375" xlink:href="#DejaVuSans-41"/>
     </g>
    </g>
   </g>
   <g id="LineCollection_1">
    <path clip-path="url(#pd1f9fc01ce)" d="M 349.551492 67.328172 
L 349.551492 46.009083 
" style="fill:none;stroke:#000000;"/>
   </g>
   <g id="LineCollection_2">
    <path clip-path="url(#pd1f9fc01ce)" d="M 386.461774 99.366257 
L 386.461774 78.325417 
" style="fill:none;stroke:#000000;"/>
   </g>
   <g id="LineCollection_3">
    <path clip-path="url(#pd1f9fc01ce)" d="M 447.978911 55.252174 
L 447.978911 40.489398 
" style="fill:none;stroke:#000000;"/>
   </g>
   <g id="LineCollection_4">
    <path clip-path="url(#pd1f9fc01ce)" d="M 484.889194 94.170341 
L 484.889194 74.604272 
" style="fill:none;stroke:#000000;"/>
   </g>
   <g id="line2d_25">
    <defs>
     <path d="M 4 0 
L -4 -0 
" id="m21310ebf00" style="stroke:#000000;"/>
    </defs>
    <g clip-path="url(#pd1f9fc01ce)">
     <use style="stroke:#000000;" x="349.551492" xlink:href="#m21310ebf00" y="67.328172"/>
    </g>
   </g>
   <g id="line2d_26">
    <g clip-path="url(#pd1f9fc01ce)">
     <use style="stroke:#000000;" x="349.551492" xlink:href="#m21310ebf00" y="46.009083"/>
    </g>
   </g>
   <g id="line2d_27">
    <g clip-path="url(#pd1f9fc01ce)">
     <use style="stroke:#000000;" x="386.461774" xlink:href="#m21310ebf00" y="99.366257"/>
    </g>
   </g>
   <g id="line2d_28">
    <g clip-path="url(#pd1f9fc01ce)">
     <use style="stroke:#000000;" x="386.461774" xlink:href="#m21310ebf00" y="78.325417"/>
    </g>
   </g>
   <g id="line2d_29">
    <g clip-path="url(#pd1f9fc01ce)">
     <use style="stroke:#000000;" x="447.978911" xlink:href="#m21310ebf00" y="55.252174"/>
    </g>
   </g>
   <g id="line2d_30">
    <g clip-path="url(#pd1f9fc01ce)">
     <use style="stroke:#000000;" x="447.978911" xlink:href="#m21310ebf00" y="40.489398"/>
    </g>
   </g>
   <g id="line2d_31">
    <g clip-path="url(#pd1f9fc01ce)">
     <use style="stroke:#000000;" x="484.889194" xlink:href="#m21310ebf00" y="94.170341"/>
    </g>
   </g>
   <g id="line2d_32">
    <g clip-path="url(#pd1f9fc01ce)">
     <use style="stroke:#000000;" x="484.889194" xlink:href="#m21310ebf00" y="74.604272"/>
    </g>
   </g>
   <g id="patch_9">
    <path d="M 317.56258 230.55 
L 317.56258 25.46 
" style="fill:none;stroke:#000000;stroke-linecap:square;stroke-linejoin:miter;stroke-width:0.8;"/>
   </g>
   <g id="patch_10">
    <path d="M 317.56258 230.55 
L 514.41742 230.55 
" style="fill:none;stroke:#000000;stroke-linecap:square;stroke-linejoin:miter;stroke-width:0.8;"/>
   </g>
  </g>
  <g id="axes_4">
   <g id="patch_11">
    <path d="M 581.825161 230.55 
L 778.68 230.55 
L 778.68 25.46 
L 581.825161 25.46 
z
" style="fill:#ffffff;"/>
   </g>
   <g id="patch_12">
    <path clip-path="url(#pd8e0688de8)" d="M 596.589274 230.55 
L 631.038871 230.55 
L 631.038871 95.400248 
L 596.589274 95.400248 
z
" style="fill:#cd5c5c;"/>
   </g>
   <g id="patch_13">
    <path clip-path="url(#pd8e0688de8)" d="M 633.499556 230.55 
L 667.949153 230.55 
L 667.949153 56.577166 
L 633.499556 56.577166 
z
" style="fill:#191970;"/>
   </g>
   <g id="patch_14">
    <path clip-path="url(#pd8e0688de8)" d="M 695.016693 230.55 
L 729.46629 230.55 
L 729.46629 104.943769 
L 695.016693 104.943769 
z
" style="fill:#cd5c5c;"/>
   </g>
   <g id="patch_15">
    <path clip-path="url(#pd8e0688de8)" d="M 731.926976 230.55 
L 766.376573 230.55 
L 766.376573 65.897671 
L 731.926976 65.897671 
z
" style="fill:#191970;"/>
   </g>
   <g id="matplotlib.axis_7">
    <g id="xtick_9">
     <g id="line2d_33">
      <g>
       <use style="stroke:#000000;stroke-width:0.8;" x="631.038871" xlink:href="#mb1bd3274a7" y="230.55"/>
      </g>
     </g>
     <g id="text_18">
      <!-- Ctrl -->
      <g transform="translate(618.584339 248.187813)scale(0.14 -0.14)">
       <use xlink:href="#DejaVuSans-67"/>
       <use x="69.824219" xlink:href="#DejaVuSans-116"/>
       <use x="109.033203" xlink:href="#DejaVuSans-114"/>
       <use x="150.146484" xlink:href="#DejaVuSans-108"/>
      </g>
     </g>
    </g>
    <g id="xtick_10">
     <g id="line2d_34">
      <g>
       <use style="stroke:#000000;stroke-width:0.8;" x="729.46629" xlink:href="#mb1bd3274a7" y="230.55"/>
      </g>
     </g>
     <g id="text_19">
      <!-- MEHP -->
      <g transform="translate(709.518478 248.187813)scale(0.14 -0.14)">
       <use xlink:href="#DejaVuSans-77"/>
       <use x="86.279297" xlink:href="#DejaVuSans-69"/>
       <use x="149.462891" xlink:href="#DejaVuSans-72"/>
       <use x="224.658203" xlink:href="#DejaVuSans-80"/>
      </g>
     </g>
    </g>
   </g>
   <g id="matplotlib.axis_8">
    <g id="ytick_13">
     <g id="line2d_35">
      <g>
       <use style="stroke:#000000;stroke-width:0.8;" x="581.825161" xlink:href="#m9782915807" y="230.55"/>
      </g>
     </g>
     <g id="text_20">
      <!-- 0 -->
      <g transform="translate(565.917661 235.868906)scale(0.14 -0.14)">
       <use xlink:href="#DejaVuSans-48"/>
      </g>
     </g>
    </g>
    <g id="ytick_14">
     <g id="line2d_36">
      <g>
       <use style="stroke:#000000;stroke-width:0.8;" x="581.825161" xlink:href="#m9782915807" y="184.974444"/>
      </g>
     </g>
     <g id="text_21">
      <!-- 100 -->
      <g transform="translate(548.102661 190.293351)scale(0.14 -0.14)">
       <use xlink:href="#DejaVuSans-49"/>
       <use x="63.623047" xlink:href="#DejaVuSans-48"/>
       <use x="127.246094" xlink:href="#DejaVuSans-48"/>
      </g>
     </g>
    </g>
    <g id="ytick_15">
     <g id="line2d_37">
      <g>
       <use style="stroke:#000000;stroke-width:0.8;" x="581.825161" xlink:href="#m9782915807" y="139.398889"/>
      </g>
     </g>
     <g id="text_22">
      <!-- 200 -->
      <g transform="translate(548.102661 144.717795)scale(0.14 -0.14)">
       <use xlink:href="#DejaVuSans-50"/>
       <use x="63.623047" xlink:href="#DejaVuSans-48"/>
       <use x="127.246094" xlink:href="#DejaVuSans-48"/>
      </g>
     </g>
    </g>
    <g id="ytick_16">
     <g id="line2d_38">
      <g>
       <use style="stroke:#000000;stroke-width:0.8;" x="581.825161" xlink:href="#m9782915807" y="93.823333"/>
      </g>
     </g>
     <g id="text_23">
      <!-- 300 -->
      <defs>
       <path d="M 40.578125 39.3125 
Q 47.65625 37.796875 51.625 33 
Q 55.609375 28.21875 55.609375 21.1875 
Q 55.609375 10.40625 48.1875 4.484375 
Q 40.765625 -1.421875 27.09375 -1.421875 
Q 22.515625 -1.421875 17.65625 -0.515625 
Q 12.796875 0.390625 7.625 2.203125 
L 7.625 11.71875 
Q 11.71875 9.328125 16.59375 8.109375 
Q 21.484375 6.890625 26.8125 6.890625 
Q 36.078125 6.890625 40.9375 10.546875 
Q 45.796875 14.203125 45.796875 21.1875 
Q 45.796875 27.640625 41.28125 31.265625 
Q 36.765625 34.90625 28.71875 34.90625 
L 20.21875 34.90625 
L 20.21875 43.015625 
L 29.109375 43.015625 
Q 36.375 43.015625 40.234375 45.921875 
Q 44.09375 48.828125 44.09375 54.296875 
Q 44.09375 59.90625 40.109375 62.90625 
Q 36.140625 65.921875 28.71875 65.921875 
Q 24.65625 65.921875 20.015625 65.03125 
Q 15.375 64.15625 9.8125 62.3125 
L 9.8125 71.09375 
Q 15.4375 72.65625 20.34375 73.4375 
Q 25.25 74.21875 29.59375 74.21875 
Q 40.828125 74.21875 47.359375 69.109375 
Q 53.90625 64.015625 53.90625 55.328125 
Q 53.90625 49.265625 50.4375 45.09375 
Q 46.96875 40.921875 40.578125 39.3125 
z
" id="DejaVuSans-51"/>
      </defs>
      <g transform="translate(548.102661 99.14224)scale(0.14 -0.14)">
       <use xlink:href="#DejaVuSans-51"/>
       <use x="63.623047" xlink:href="#DejaVuSans-48"/>
       <use x="127.246094" xlink:href="#DejaVuSans-48"/>
      </g>
     </g>
    </g>
    <g id="ytick_17">
     <g id="line2d_39">
      <g>
       <use style="stroke:#000000;stroke-width:0.8;" x="581.825161" xlink:href="#m9782915807" y="48.247778"/>
      </g>
     </g>
     <g id="text_24">
      <!-- 400 -->
      <defs>
       <path d="M 37.796875 64.3125 
L 12.890625 25.390625 
L 37.796875 25.390625 
z
M 35.203125 72.90625 
L 47.609375 72.90625 
L 47.609375 25.390625 
L 58.015625 25.390625 
L 58.015625 17.1875 
L 47.609375 17.1875 
L 47.609375 0 
L 37.796875 0 
L 37.796875 17.1875 
L 4.890625 17.1875 
L 4.890625 26.703125 
z
" id="DejaVuSans-52"/>
      </defs>
      <g transform="translate(548.102661 53.566684)scale(0.14 -0.14)">
       <use xlink:href="#DejaVuSans-52"/>
       <use x="63.623047" xlink:href="#DejaVuSans-48"/>
       <use x="127.246094" xlink:href="#DejaVuSans-48"/>
      </g>
     </g>
    </g>
    <g id="text_25">
     <!-- RR (ms) -->
     <defs>
      <path d="M 44.28125 53.078125 
L 44.28125 44.578125 
Q 40.484375 46.53125 36.375 47.5 
Q 32.28125 48.484375 27.875 48.484375 
Q 21.1875 48.484375 17.84375 46.4375 
Q 14.5 44.390625 14.5 40.28125 
Q 14.5 37.15625 16.890625 35.375 
Q 19.28125 33.59375 26.515625 31.984375 
L 29.59375 31.296875 
Q 39.15625 29.25 43.1875 25.515625 
Q 47.21875 21.78125 47.21875 15.09375 
Q 47.21875 7.46875 41.1875 3.015625 
Q 35.15625 -1.421875 24.609375 -1.421875 
Q 20.21875 -1.421875 15.453125 -0.5625 
Q 10.6875 0.296875 5.421875 2 
L 5.421875 11.28125 
Q 10.40625 8.6875 15.234375 7.390625 
Q 20.0625 6.109375 24.8125 6.109375 
Q 31.15625 6.109375 34.5625 8.28125 
Q 37.984375 10.453125 37.984375 14.40625 
Q 37.984375 18.0625 35.515625 20.015625 
Q 33.0625 21.96875 24.703125 23.78125 
L 21.578125 24.515625 
Q 13.234375 26.265625 9.515625 29.90625 
Q 5.8125 33.546875 5.8125 39.890625 
Q 5.8125 47.609375 11.28125 51.796875 
Q 16.75 56 26.8125 56 
Q 31.78125 56 36.171875 55.265625 
Q 40.578125 54.546875 44.28125 53.078125 
z
" id="DejaVuSans-115"/>
     </defs>
     <g transform="translate(541.191098 155.884687)rotate(-90)scale(0.14 -0.14)">
      <use xlink:href="#DejaVuSans-82"/>
      <use x="69.482422" xlink:href="#DejaVuSans-82"/>
      <use x="138.964844" xlink:href="#DejaVuSans-32"/>
      <use x="170.751953" xlink:href="#DejaVuSans-40"/>
      <use x="209.765625" xlink:href="#DejaVuSans-109"/>
      <use x="307.177734" xlink:href="#DejaVuSans-115"/>
      <use x="359.277344" xlink:href="#DejaVuSans-41"/>
     </g>
    </g>
   </g>
   <g id="LineCollection_5">
    <path clip-path="url(#pd8e0688de8)" d="M 613.814072 102.55461 
L 613.814072 88.245885 
" style="fill:none;stroke:#000000;"/>
   </g>
   <g id="LineCollection_6">
    <path clip-path="url(#pd8e0688de8)" d="M 650.724355 71.586873 
L 650.724355 41.567459 
" style="fill:none;stroke:#000000;"/>
   </g>
   <g id="LineCollection_7">
    <path clip-path="url(#pd8e0688de8)" d="M 712.241492 109.876952 
L 712.241492 100.010586 
" style="fill:none;stroke:#000000;"/>
   </g>
   <g id="LineCollection_8">
    <path clip-path="url(#pd8e0688de8)" d="M 749.151774 77.721279 
L 749.151774 54.074063 
" style="fill:none;stroke:#000000;"/>
   </g>
   <g id="line2d_40">
    <g clip-path="url(#pd8e0688de8)">
     <use style="stroke:#000000;" x="613.814072" xlink:href="#m21310ebf00" y="102.55461"/>
    </g>
   </g>
   <g id="line2d_41">
    <g clip-path="url(#pd8e0688de8)">
     <use style="stroke:#000000;" x="613.814072" xlink:href="#m21310ebf00" y="88.245885"/>
    </g>
   </g>
   <g id="line2d_42">
    <g clip-path="url(#pd8e0688de8)">
     <use style="stroke:#000000;" x="650.724355" xlink:href="#m21310ebf00" y="71.586873"/>
    </g>
   </g>
   <g id="line2d_43">
    <g clip-path="url(#pd8e0688de8)">
     <use style="stroke:#000000;" x="650.724355" xlink:href="#m21310ebf00" y="41.567459"/>
    </g>
   </g>
   <g id="line2d_44">
    <g clip-path="url(#pd8e0688de8)">
     <use style="stroke:#000000;" x="712.241492" xlink:href="#m21310ebf00" y="109.876952"/>
    </g>
   </g>
   <g id="line2d_45">
    <g clip-path="url(#pd8e0688de8)">
     <use style="stroke:#000000;" x="712.241492" xlink:href="#m21310ebf00" y="100.010586"/>
    </g>
   </g>
   <g id="line2d_46">
    <g clip-path="url(#pd8e0688de8)">
     <use style="stroke:#000000;" x="749.151774" xlink:href="#m21310ebf00" y="77.721279"/>
    </g>
   </g>
   <g id="line2d_47">
    <g clip-path="url(#pd8e0688de8)">
     <use style="stroke:#000000;" x="749.151774" xlink:href="#m21310ebf00" y="54.074063"/>
    </g>
   </g>
   <g id="patch_16">
    <path d="M 581.825161 230.55 
L 581.825161 25.46 
" style="fill:none;stroke:#000000;stroke-linecap:square;stroke-linejoin:miter;stroke-width:0.8;"/>
   </g>
   <g id="patch_17">
    <path d="M 581.825161 230.55 
L 778.68 230.55 
" style="fill:none;stroke:#000000;stroke-linecap:square;stroke-linejoin:miter;stroke-width:0.8;"/>
   </g>
   <g id="legend_1">
    <g id="patch_18">
     <path d="M 683.401875 24.869125 
L 707.401875 24.869125 
L 707.401875 16.469125 
L 683.401875 16.469125 
z
" style="fill:#cd5c5c;"/>
    </g>
    <g id="text_26">
     <!-- Baseline -->
     <defs>
      <path d="M 19.671875 34.8125 
L 19.671875 8.109375 
L 35.5 8.109375 
Q 43.453125 8.109375 47.28125 11.40625 
Q 51.125 14.703125 51.125 21.484375 
Q 51.125 28.328125 47.28125 31.5625 
Q 43.453125 34.8125 35.5 34.8125 
z
M 19.671875 64.796875 
L 19.671875 42.828125 
L 34.28125 42.828125 
Q 41.5 42.828125 45.03125 45.53125 
Q 48.578125 48.25 48.578125 53.8125 
Q 48.578125 59.328125 45.03125 62.0625 
Q 41.5 64.796875 34.28125 64.796875 
z
M 9.8125 72.90625 
L 35.015625 72.90625 
Q 46.296875 72.90625 52.390625 68.21875 
Q 58.5 63.53125 58.5 54.890625 
Q 58.5 48.1875 55.375 44.234375 
Q 52.25 40.28125 46.1875 39.3125 
Q 53.46875 37.75 57.5 32.78125 
Q 61.53125 27.828125 61.53125 20.40625 
Q 61.53125 10.640625 54.890625 5.3125 
Q 48.25 0 35.984375 0 
L 9.8125 0 
z
" id="DejaVuSans-66"/>
      <path d="M 34.28125 27.484375 
Q 23.390625 27.484375 19.1875 25 
Q 14.984375 22.515625 14.984375 16.5 
Q 14.984375 11.71875 18.140625 8.90625 
Q 21.296875 6.109375 26.703125 6.109375 
Q 34.1875 6.109375 38.703125 11.40625 
Q 43.21875 16.703125 43.21875 25.484375 
L 43.21875 27.484375 
z
M 52.203125 31.203125 
L 52.203125 0 
L 43.21875 0 
L 43.21875 8.296875 
Q 40.140625 3.328125 35.546875 0.953125 
Q 30.953125 -1.421875 24.3125 -1.421875 
Q 15.921875 -1.421875 10.953125 3.296875 
Q 6 8.015625 6 15.921875 
Q 6 25.140625 12.171875 29.828125 
Q 18.359375 34.515625 30.609375 34.515625 
L 43.21875 34.515625 
L 43.21875 35.40625 
Q 43.21875 41.609375 39.140625 45 
Q 35.0625 48.390625 27.6875 48.390625 
Q 23 48.390625 18.546875 47.265625 
Q 14.109375 46.140625 10.015625 43.890625 
L 10.015625 52.203125 
Q 14.9375 54.109375 19.578125 55.046875 
Q 24.21875 56 28.609375 56 
Q 40.484375 56 46.34375 49.84375 
Q 52.203125 43.703125 52.203125 31.203125 
z
" id="DejaVuSans-97"/>
      <path d="M 56.203125 29.59375 
L 56.203125 25.203125 
L 14.890625 25.203125 
Q 15.484375 15.921875 20.484375 11.0625 
Q 25.484375 6.203125 34.421875 6.203125 
Q 39.59375 6.203125 44.453125 7.46875 
Q 49.3125 8.734375 54.109375 11.28125 
L 54.109375 2.78125 
Q 49.265625 0.734375 44.1875 -0.34375 
Q 39.109375 -1.421875 33.890625 -1.421875 
Q 20.796875 -1.421875 13.15625 6.1875 
Q 5.515625 13.8125 5.515625 26.8125 
Q 5.515625 40.234375 12.765625 48.109375 
Q 20.015625 56 32.328125 56 
Q 43.359375 56 49.78125 48.890625 
Q 56.203125 41.796875 56.203125 29.59375 
z
M 47.21875 32.234375 
Q 47.125 39.59375 43.09375 43.984375 
Q 39.0625 48.390625 32.421875 48.390625 
Q 24.90625 48.390625 20.390625 44.140625 
Q 15.875 39.890625 15.1875 32.171875 
z
" id="DejaVuSans-101"/>
      <path d="M 9.421875 54.6875 
L 18.40625 54.6875 
L 18.40625 0 
L 9.421875 0 
z
M 9.421875 75.984375 
L 18.40625 75.984375 
L 18.40625 64.59375 
L 9.421875 64.59375 
z
" id="DejaVuSans-105"/>
      <path d="M 54.890625 33.015625 
L 54.890625 0 
L 45.90625 0 
L 45.90625 32.71875 
Q 45.90625 40.484375 42.875 44.328125 
Q 39.84375 48.1875 33.796875 48.1875 
Q 26.515625 48.1875 22.3125 43.546875 
Q 18.109375 38.921875 18.109375 30.90625 
L 18.109375 0 
L 9.078125 0 
L 9.078125 54.6875 
L 18.109375 54.6875 
L 18.109375 46.1875 
Q 21.34375 51.125 25.703125 53.5625 
Q 30.078125 56 35.796875 56 
Q 45.21875 56 50.046875 50.171875 
Q 54.890625 44.34375 54.890625 33.015625 
z
" id="DejaVuSans-110"/>
     </defs>
     <g transform="translate(717.001875 24.869125)scale(0.12 -0.12)">
      <use xlink:href="#DejaVuSans-66"/>
      <use x="68.603516" xlink:href="#DejaVuSans-97"/>
      <use x="129.882812" xlink:href="#DejaVuSans-115"/>
      <use x="181.982422" xlink:href="#DejaVuSans-101"/>
      <use x="243.505859" xlink:href="#DejaVuSans-108"/>
      <use x="271.289062" xlink:href="#DejaVuSans-105"/>
      <use x="299.072266" xlink:href="#DejaVuSans-110"/>
      <use x="362.451172" xlink:href="#DejaVuSans-101"/>
     </g>
    </g>
    <g id="patch_19">
     <path d="M 683.401875 42.482875 
L 707.401875 42.482875 
L 707.401875 34.082875 
L 683.401875 34.082875 
z
" style="fill:#191970;"/>
    </g>
    <g id="text_27">
     <!-- 30 min -->
     <g transform="translate(717.001875 42.482875)scale(0.12 -0.12)">
      <use xlink:href="#DejaVuSans-51"/>
      <use x="63.623047" xlink:href="#DejaVuSans-48"/>
      <use x="127.246094" xlink:href="#DejaVuSans-32"/>
      <use x="159.033203" xlink:href="#DejaVuSans-109"/>
      <use x="256.445312" xlink:href="#DejaVuSans-105"/>
      <use x="284.228516" xlink:href="#DejaVuSans-110"/>
     </g>
    </g>
   </g>
  </g>
  <g id="axes_5">
   <g id="patch_20">
    <path d="M 53.3 472.52 
L 250.154839 472.52 
L 250.154839 267.43 
L 53.3 267.43 
z
" style="fill:#ffffff;"/>
   </g>
   <g id="patch_21">
    <path clip-path="url(#p8fb7de22f4)" d="M 68.064113 472.52 
L 102.51371 472.52 
L 102.51371 362.437942 
L 68.064113 362.437942 
z
" style="fill:#cd5c5c;"/>
   </g>
   <g id="patch_22">
    <path clip-path="url(#p8fb7de22f4)" d="M 104.974395 472.52 
L 139.423992 472.52 
L 139.423992 351.100311 
L 104.974395 351.100311 
z
" style="fill:#191970;"/>
   </g>
   <g id="patch_23">
    <path clip-path="url(#p8fb7de22f4)" d="M 166.491533 472.52 
L 200.941129 472.52 
L 200.941129 366.682166 
L 166.491533 366.682166 
z
" style="fill:#cd5c5c;"/>
   </g>
   <g id="patch_24">
    <path clip-path="url(#p8fb7de22f4)" d="M 203.401815 472.52 
L 237.851412 472.52 
L 237.851412 320.964187 
L 203.401815 320.964187 
z
" style="fill:#191970;"/>
   </g>
   <g id="matplotlib.axis_9">
    <g id="xtick_11">
     <g id="line2d_48">
      <g>
       <use style="stroke:#000000;stroke-width:0.8;" x="102.51371" xlink:href="#mb1bd3274a7" y="472.52"/>
      </g>
     </g>
     <g id="text_28">
      <!-- Ctrl -->
      <g transform="translate(90.059179 490.157813)scale(0.14 -0.14)">
       <use xlink:href="#DejaVuSans-67"/>
       <use x="69.824219" xlink:href="#DejaVuSans-116"/>
       <use x="109.033203" xlink:href="#DejaVuSans-114"/>
       <use x="150.146484" xlink:href="#DejaVuSans-108"/>
      </g>
     </g>
    </g>
    <g id="xtick_12">
     <g id="line2d_49">
      <g>
       <use style="stroke:#000000;stroke-width:0.8;" x="200.941129" xlink:href="#mb1bd3274a7" y="472.52"/>
      </g>
     </g>
     <g id="text_29">
      <!-- MEHP -->
      <g transform="translate(180.993317 490.157813)scale(0.14 -0.14)">
       <use xlink:href="#DejaVuSans-77"/>
       <use x="86.279297" xlink:href="#DejaVuSans-69"/>
       <use x="149.462891" xlink:href="#DejaVuSans-72"/>
       <use x="224.658203" xlink:href="#DejaVuSans-80"/>
      </g>
     </g>
    </g>
   </g>
   <g id="matplotlib.axis_10">
    <g id="ytick_18">
     <g id="line2d_50">
      <g>
       <use style="stroke:#000000;stroke-width:0.8;" x="53.3" xlink:href="#m9782915807" y="472.52"/>
      </g>
     </g>
     <g id="text_30">
      <!-- 0 -->
      <g transform="translate(37.3925 477.838906)scale(0.14 -0.14)">
       <use xlink:href="#DejaVuSans-48"/>
      </g>
     </g>
    </g>
    <g id="ytick_19">
     <g id="line2d_51">
      <g>
       <use style="stroke:#000000;stroke-width:0.8;" x="53.3" xlink:href="#m9782915807" y="421.2475"/>
      </g>
     </g>
     <g id="text_31">
      <!-- 20 -->
      <g transform="translate(28.485 426.566406)scale(0.14 -0.14)">
       <use xlink:href="#DejaVuSans-50"/>
       <use x="63.623047" xlink:href="#DejaVuSans-48"/>
      </g>
     </g>
    </g>
    <g id="ytick_20">
     <g id="line2d_52">
      <g>
       <use style="stroke:#000000;stroke-width:0.8;" x="53.3" xlink:href="#m9782915807" y="369.975"/>
      </g>
     </g>
     <g id="text_32">
      <!-- 40 -->
      <g transform="translate(28.485 375.293906)scale(0.14 -0.14)">
       <use xlink:href="#DejaVuSans-52"/>
       <use x="63.623047" xlink:href="#DejaVuSans-48"/>
      </g>
     </g>
    </g>
    <g id="ytick_21">
     <g id="line2d_53">
      <g>
       <use style="stroke:#000000;stroke-width:0.8;" x="53.3" xlink:href="#m9782915807" y="318.7025"/>
      </g>
     </g>
     <g id="text_33">
      <!-- 60 -->
      <defs>
       <path d="M 33.015625 40.375 
Q 26.375 40.375 22.484375 35.828125 
Q 18.609375 31.296875 18.609375 23.390625 
Q 18.609375 15.53125 22.484375 10.953125 
Q 26.375 6.390625 33.015625 6.390625 
Q 39.65625 6.390625 43.53125 10.953125 
Q 47.40625 15.53125 47.40625 23.390625 
Q 47.40625 31.296875 43.53125 35.828125 
Q 39.65625 40.375 33.015625 40.375 
z
M 52.59375 71.296875 
L 52.59375 62.3125 
Q 48.875 64.0625 45.09375 64.984375 
Q 41.3125 65.921875 37.59375 65.921875 
Q 27.828125 65.921875 22.671875 59.328125 
Q 17.53125 52.734375 16.796875 39.40625 
Q 19.671875 43.65625 24.015625 45.921875 
Q 28.375 48.1875 33.59375 48.1875 
Q 44.578125 48.1875 50.953125 41.515625 
Q 57.328125 34.859375 57.328125 23.390625 
Q 57.328125 12.15625 50.6875 5.359375 
Q 44.046875 -1.421875 33.015625 -1.421875 
Q 20.359375 -1.421875 13.671875 8.265625 
Q 6.984375 17.96875 6.984375 36.375 
Q 6.984375 53.65625 15.1875 63.9375 
Q 23.390625 74.21875 37.203125 74.21875 
Q 40.921875 74.21875 44.703125 73.484375 
Q 48.484375 72.75 52.59375 71.296875 
z
" id="DejaVuSans-54"/>
      </defs>
      <g transform="translate(28.485 324.021406)scale(0.14 -0.14)">
       <use xlink:href="#DejaVuSans-54"/>
       <use x="63.623047" xlink:href="#DejaVuSans-48"/>
      </g>
     </g>
    </g>
    <g id="ytick_22">
     <g id="line2d_54">
      <g>
       <use style="stroke:#000000;stroke-width:0.8;" x="53.3" xlink:href="#m9782915807" y="267.43"/>
      </g>
     </g>
     <g id="text_34">
      <!-- 80 -->
      <defs>
       <path d="M 31.78125 34.625 
Q 24.75 34.625 20.71875 30.859375 
Q 16.703125 27.09375 16.703125 20.515625 
Q 16.703125 13.921875 20.71875 10.15625 
Q 24.75 6.390625 31.78125 6.390625 
Q 38.8125 6.390625 42.859375 10.171875 
Q 46.921875 13.96875 46.921875 20.515625 
Q 46.921875 27.09375 42.890625 30.859375 
Q 38.875 34.625 31.78125 34.625 
z
M 21.921875 38.8125 
Q 15.578125 40.375 12.03125 44.71875 
Q 8.5 49.078125 8.5 55.328125 
Q 8.5 64.0625 14.71875 69.140625 
Q 20.953125 74.21875 31.78125 74.21875 
Q 42.671875 74.21875 48.875 69.140625 
Q 55.078125 64.0625 55.078125 55.328125 
Q 55.078125 49.078125 51.53125 44.71875 
Q 48 40.375 41.703125 38.8125 
Q 48.828125 37.15625 52.796875 32.3125 
Q 56.78125 27.484375 56.78125 20.515625 
Q 56.78125 9.90625 50.3125 4.234375 
Q 43.84375 -1.421875 31.78125 -1.421875 
Q 19.734375 -1.421875 13.25 4.234375 
Q 6.78125 9.90625 6.78125 20.515625 
Q 6.78125 27.484375 10.78125 32.3125 
Q 14.796875 37.15625 21.921875 38.8125 
z
M 18.3125 54.390625 
Q 18.3125 48.734375 21.84375 45.5625 
Q 25.390625 42.390625 31.78125 42.390625 
Q 38.140625 42.390625 41.71875 45.5625 
Q 45.3125 48.734375 45.3125 54.390625 
Q 45.3125 60.0625 41.71875 63.234375 
Q 38.140625 66.40625 31.78125 66.40625 
Q 25.390625 66.40625 21.84375 63.234375 
Q 18.3125 60.0625 18.3125 54.390625 
z
" id="DejaVuSans-56"/>
      </defs>
      <g transform="translate(28.485 272.748906)scale(0.14 -0.14)">
       <use xlink:href="#DejaVuSans-56"/>
       <use x="63.623047" xlink:href="#DejaVuSans-48"/>
      </g>
     </g>
    </g>
    <g id="text_35">
     <!-- PR (ms) -->
     <g transform="translate(21.573438 397.211563)rotate(-90)scale(0.14 -0.14)">
      <use xlink:href="#DejaVuSans-80"/>
      <use x="60.302734" xlink:href="#DejaVuSans-82"/>
      <use x="129.785156" xlink:href="#DejaVuSans-32"/>
      <use x="161.572266" xlink:href="#DejaVuSans-40"/>
      <use x="200.585938" xlink:href="#DejaVuSans-109"/>
      <use x="297.998047" xlink:href="#DejaVuSans-115"/>
      <use x="350.097656" xlink:href="#DejaVuSans-41"/>
     </g>
    </g>
   </g>
   <g id="LineCollection_9">
    <path clip-path="url(#p8fb7de22f4)" d="M 85.288911 372.567371 
L 85.288911 352.308514 
" style="fill:none;stroke:#000000;"/>
   </g>
   <g id="LineCollection_10">
    <path clip-path="url(#p8fb7de22f4)" d="M 122.199194 358.373763 
L 122.199194 343.826859 
" style="fill:none;stroke:#000000;"/>
   </g>
   <g id="LineCollection_11">
    <path clip-path="url(#p8fb7de22f4)" d="M 183.716331 372.679804 
L 183.716331 360.684528 
" style="fill:none;stroke:#000000;"/>
   </g>
   <g id="LineCollection_12">
    <path clip-path="url(#p8fb7de22f4)" d="M 220.626613 336.028772 
L 220.626613 305.899602 
" style="fill:none;stroke:#000000;"/>
   </g>
   <g id="line2d_55">
    <g clip-path="url(#p8fb7de22f4)">
     <use style="stroke:#000000;" x="85.288911" xlink:href="#m21310ebf00" y="372.567371"/>
    </g>
   </g>
   <g id="line2d_56">
    <g clip-path="url(#p8fb7de22f4)">
     <use style="stroke:#000000;" x="85.288911" xlink:href="#m21310ebf00" y="352.308514"/>
    </g>
   </g>
   <g id="line2d_57">
    <g clip-path="url(#p8fb7de22f4)">
     <use style="stroke:#000000;" x="122.199194" xlink:href="#m21310ebf00" y="358.373763"/>
    </g>
   </g>
   <g id="line2d_58">
    <g clip-path="url(#p8fb7de22f4)">
     <use style="stroke:#000000;" x="122.199194" xlink:href="#m21310ebf00" y="343.826859"/>
    </g>
   </g>
   <g id="line2d_59">
    <g clip-path="url(#p8fb7de22f4)">
     <use style="stroke:#000000;" x="183.716331" xlink:href="#m21310ebf00" y="372.679804"/>
    </g>
   </g>
   <g id="line2d_60">
    <g clip-path="url(#p8fb7de22f4)">
     <use style="stroke:#000000;" x="183.716331" xlink:href="#m21310ebf00" y="360.684528"/>
    </g>
   </g>
   <g id="line2d_61">
    <g clip-path="url(#p8fb7de22f4)">
     <use style="stroke:#000000;" x="220.626613" xlink:href="#m21310ebf00" y="336.028772"/>
    </g>
   </g>
   <g id="line2d_62">
    <g clip-path="url(#p8fb7de22f4)">
     <use style="stroke:#000000;" x="220.626613" xlink:href="#m21310ebf00" y="305.899602"/>
    </g>
   </g>
   <g id="line2d_63">
    <path clip-path="url(#p8fb7de22f4)" d="M 122.199194 298.1935 
L 220.626613 298.1935 
" style="fill:none;stroke:#000000;stroke-linecap:square;stroke-width:2;"/>
   </g>
   <g id="line2d_64">
    <path clip-path="url(#p8fb7de22f4)" d="M 183.716331 285.375375 
L 220.626613 285.375375 
" style="fill:none;stroke:#000000;stroke-linecap:square;stroke-width:2;"/>
   </g>
   <g id="patch_25">
    <path d="M 53.3 472.52 
L 53.3 267.43 
" style="fill:none;stroke:#000000;stroke-linecap:square;stroke-linejoin:miter;stroke-width:0.8;"/>
   </g>
   <g id="patch_26">
    <path d="M 53.3 472.52 
L 250.154839 472.52 
" style="fill:none;stroke:#000000;stroke-linecap:square;stroke-linejoin:miter;stroke-width:0.8;"/>
   </g>
   <g id="text_36">
    <!-- * -->
    <defs>
     <path d="M 47.015625 60.890625 
L 29.5 51.421875 
L 47.015625 41.890625 
L 44.1875 37.109375 
L 27.78125 47.015625 
L 27.78125 28.609375 
L 22.21875 28.609375 
L 22.21875 47.015625 
L 5.8125 37.109375 
L 2.984375 41.890625 
L 20.515625 51.421875 
L 2.984375 60.890625 
L 5.8125 65.71875 
L 22.21875 55.8125 
L 22.21875 74.21875 
L 27.78125 74.21875 
L 27.78125 55.8125 
L 44.1875 65.71875 
z
" id="DejaVuSans-42"/>
    </defs>
    <g transform="translate(135.423992 294.917625)scale(0.16 -0.16)">
     <use xlink:href="#DejaVuSans-42"/>
    </g>
   </g>
   <g id="text_37">
    <!-- * -->
    <g transform="translate(196.941129 282.0995)scale(0.16 -0.16)">
     <use xlink:href="#DejaVuSans-42"/>
    </g>
   </g>
  </g>
  <g id="axes_6">
   <g id="patch_27">
    <path d="M 317.56258 472.52 
L 514.41742 472.52 
L 514.41742 267.43 
L 317.56258 267.43 
z
" style="fill:#ffffff;"/>
   </g>
   <g id="patch_28">
    <path clip-path="url(#p391ca9d375)" d="M 332.326693 472.52 
L 366.77629 472.52 
L 366.77629 305.90879 
L 332.326693 305.90879 
z
" style="fill:#cd5c5c;"/>
   </g>
   <g id="patch_29">
    <path clip-path="url(#p391ca9d375)" d="M 369.236976 472.52 
L 403.686573 472.52 
L 403.686573 306.670553 
L 369.236976 306.670553 
z
" style="fill:#191970;"/>
   </g>
   <g id="patch_30">
    <path clip-path="url(#p391ca9d375)" d="M 430.754113 472.52 
L 465.20371 472.52 
L 465.20371 318.960761 
L 430.754113 318.960761 
z
" style="fill:#cd5c5c;"/>
   </g>
   <g id="patch_31">
    <path clip-path="url(#p391ca9d375)" d="M 467.664395 472.52 
L 502.113992 472.52 
L 502.113992 285.265234 
L 467.664395 285.265234 
z
" style="fill:#191970;"/>
   </g>
   <g id="matplotlib.axis_11">
    <g id="xtick_13">
     <g id="line2d_65">
      <g>
       <use style="stroke:#000000;stroke-width:0.8;" x="366.77629" xlink:href="#mb1bd3274a7" y="472.52"/>
      </g>
     </g>
     <g id="text_38">
      <!-- Ctrl -->
      <g transform="translate(354.321759 490.157813)scale(0.14 -0.14)">
       <use xlink:href="#DejaVuSans-67"/>
       <use x="69.824219" xlink:href="#DejaVuSans-116"/>
       <use x="109.033203" xlink:href="#DejaVuSans-114"/>
       <use x="150.146484" xlink:href="#DejaVuSans-108"/>
      </g>
     </g>
    </g>
    <g id="xtick_14">
     <g id="line2d_66">
      <g>
       <use style="stroke:#000000;stroke-width:0.8;" x="465.20371" xlink:href="#mb1bd3274a7" y="472.52"/>
      </g>
     </g>
     <g id="text_39">
      <!-- MEHP -->
      <g transform="translate(445.255897 490.157813)scale(0.14 -0.14)">
       <use xlink:href="#DejaVuSans-77"/>
       <use x="86.279297" xlink:href="#DejaVuSans-69"/>
       <use x="149.462891" xlink:href="#DejaVuSans-72"/>
       <use x="224.658203" xlink:href="#DejaVuSans-80"/>
      </g>
     </g>
    </g>
   </g>
   <g id="matplotlib.axis_12">
    <g id="ytick_23">
     <g id="line2d_67">
      <g>
       <use style="stroke:#000000;stroke-width:0.8;" x="317.56258" xlink:href="#m9782915807" y="472.52"/>
      </g>
     </g>
     <g id="text_40">
      <!-- 0 -->
      <g transform="translate(301.65508 477.838906)scale(0.14 -0.14)">
       <use xlink:href="#DejaVuSans-48"/>
      </g>
     </g>
    </g>
    <g id="ytick_24">
     <g id="line2d_68">
      <g>
       <use style="stroke:#000000;stroke-width:0.8;" x="317.56258" xlink:href="#m9782915807" y="438.338333"/>
      </g>
     </g>
     <g id="text_41">
      <!-- 5 -->
      <g transform="translate(301.65508 443.65724)scale(0.14 -0.14)">
       <use xlink:href="#DejaVuSans-53"/>
      </g>
     </g>
    </g>
    <g id="ytick_25">
     <g id="line2d_69">
      <g>
       <use style="stroke:#000000;stroke-width:0.8;" x="317.56258" xlink:href="#m9782915807" y="404.156667"/>
      </g>
     </g>
     <g id="text_42">
      <!-- 10 -->
      <g transform="translate(292.74758 409.475573)scale(0.14 -0.14)">
       <use xlink:href="#DejaVuSans-49"/>
       <use x="63.623047" xlink:href="#DejaVuSans-48"/>
      </g>
     </g>
    </g>
    <g id="ytick_26">
     <g id="line2d_70">
      <g>
       <use style="stroke:#000000;stroke-width:0.8;" x="317.56258" xlink:href="#m9782915807" y="369.975"/>
      </g>
     </g>
     <g id="text_43">
      <!-- 15 -->
      <g transform="translate(292.74758 375.293906)scale(0.14 -0.14)">
       <use xlink:href="#DejaVuSans-49"/>
       <use x="63.623047" xlink:href="#DejaVuSans-53"/>
      </g>
     </g>
    </g>
    <g id="ytick_27">
     <g id="line2d_71">
      <g>
       <use style="stroke:#000000;stroke-width:0.8;" x="317.56258" xlink:href="#m9782915807" y="335.793333"/>
      </g>
     </g>
     <g id="text_44">
      <!-- 20 -->
      <g transform="translate(292.74758 341.11224)scale(0.14 -0.14)">
       <use xlink:href="#DejaVuSans-50"/>
       <use x="63.623047" xlink:href="#DejaVuSans-48"/>
      </g>
     </g>
    </g>
    <g id="ytick_28">
     <g id="line2d_72">
      <g>
       <use style="stroke:#000000;stroke-width:0.8;" x="317.56258" xlink:href="#m9782915807" y="301.611667"/>
      </g>
     </g>
     <g id="text_45">
      <!-- 25 -->
      <g transform="translate(292.74758 306.930573)scale(0.14 -0.14)">
       <use xlink:href="#DejaVuSans-50"/>
       <use x="63.623047" xlink:href="#DejaVuSans-53"/>
      </g>
     </g>
    </g>
    <g id="ytick_29">
     <g id="line2d_73">
      <g>
       <use style="stroke:#000000;stroke-width:0.8;" x="317.56258" xlink:href="#m9782915807" y="267.43"/>
      </g>
     </g>
     <g id="text_46">
      <!-- 30 -->
      <g transform="translate(292.74758 272.748906)scale(0.14 -0.14)">
       <use xlink:href="#DejaVuSans-51"/>
       <use x="63.623047" xlink:href="#DejaVuSans-48"/>
      </g>
     </g>
    </g>
    <g id="text_47">
     <!-- QRS Width (ms) -->
     <defs>
      <path d="M 39.40625 66.21875 
Q 28.65625 66.21875 22.328125 58.203125 
Q 16.015625 50.203125 16.015625 36.375 
Q 16.015625 22.609375 22.328125 14.59375 
Q 28.65625 6.59375 39.40625 6.59375 
Q 50.140625 6.59375 56.421875 14.59375 
Q 62.703125 22.609375 62.703125 36.375 
Q 62.703125 50.203125 56.421875 58.203125 
Q 50.140625 66.21875 39.40625 66.21875 
z
M 53.21875 1.3125 
L 66.21875 -12.890625 
L 54.296875 -12.890625 
L 43.5 -1.21875 
Q 41.890625 -1.3125 41.03125 -1.359375 
Q 40.1875 -1.421875 39.40625 -1.421875 
Q 24.03125 -1.421875 14.8125 8.859375 
Q 5.609375 19.140625 5.609375 36.375 
Q 5.609375 53.65625 14.8125 63.9375 
Q 24.03125 74.21875 39.40625 74.21875 
Q 54.734375 74.21875 63.90625 63.9375 
Q 73.09375 53.65625 73.09375 36.375 
Q 73.09375 23.6875 67.984375 14.640625 
Q 62.890625 5.609375 53.21875 1.3125 
z
" id="DejaVuSans-81"/>
      <path d="M 53.515625 70.515625 
L 53.515625 60.890625 
Q 47.90625 63.578125 42.921875 64.890625 
Q 37.9375 66.21875 33.296875 66.21875 
Q 25.25 66.21875 20.875 63.09375 
Q 16.5 59.96875 16.5 54.203125 
Q 16.5 49.359375 19.40625 46.890625 
Q 22.3125 44.4375 30.421875 42.921875 
L 36.375 41.703125 
Q 47.40625 39.59375 52.65625 34.296875 
Q 57.90625 29 57.90625 20.125 
Q 57.90625 9.515625 50.796875 4.046875 
Q 43.703125 -1.421875 29.984375 -1.421875 
Q 24.8125 -1.421875 18.96875 -0.25 
Q 13.140625 0.921875 6.890625 3.21875 
L 6.890625 13.375 
Q 12.890625 10.015625 18.65625 8.296875 
Q 24.421875 6.59375 29.984375 6.59375 
Q 38.421875 6.59375 43.015625 9.90625 
Q 47.609375 13.234375 47.609375 19.390625 
Q 47.609375 24.75 44.3125 27.78125 
Q 41.015625 30.8125 33.5 32.328125 
L 27.484375 33.5 
Q 16.453125 35.6875 11.515625 40.375 
Q 6.59375 45.0625 6.59375 53.421875 
Q 6.59375 63.09375 13.40625 68.65625 
Q 20.21875 74.21875 32.171875 74.21875 
Q 37.3125 74.21875 42.625 73.28125 
Q 47.953125 72.359375 53.515625 70.515625 
z
" id="DejaVuSans-83"/>
      <path d="M 3.328125 72.90625 
L 13.28125 72.90625 
L 28.609375 11.28125 
L 43.890625 72.90625 
L 54.984375 72.90625 
L 70.3125 11.28125 
L 85.59375 72.90625 
L 95.609375 72.90625 
L 77.296875 0 
L 64.890625 0 
L 49.515625 63.28125 
L 33.984375 0 
L 21.578125 0 
z
" id="DejaVuSans-87"/>
      <path d="M 45.40625 46.390625 
L 45.40625 75.984375 
L 54.390625 75.984375 
L 54.390625 0 
L 45.40625 0 
L 45.40625 8.203125 
Q 42.578125 3.328125 38.25 0.953125 
Q 33.9375 -1.421875 27.875 -1.421875 
Q 17.96875 -1.421875 11.734375 6.484375 
Q 5.515625 14.40625 5.515625 27.296875 
Q 5.515625 40.1875 11.734375 48.09375 
Q 17.96875 56 27.875 56 
Q 33.9375 56 38.25 53.625 
Q 42.578125 51.265625 45.40625 46.390625 
z
M 14.796875 27.296875 
Q 14.796875 17.390625 18.875 11.75 
Q 22.953125 6.109375 30.078125 6.109375 
Q 37.203125 6.109375 41.296875 11.75 
Q 45.40625 17.390625 45.40625 27.296875 
Q 45.40625 37.203125 41.296875 42.84375 
Q 37.203125 48.484375 30.078125 48.484375 
Q 22.953125 48.484375 18.875 42.84375 
Q 14.796875 37.203125 14.796875 27.296875 
z
" id="DejaVuSans-100"/>
      <path d="M 54.890625 33.015625 
L 54.890625 0 
L 45.90625 0 
L 45.90625 32.71875 
Q 45.90625 40.484375 42.875 44.328125 
Q 39.84375 48.1875 33.796875 48.1875 
Q 26.515625 48.1875 22.3125 43.546875 
Q 18.109375 38.921875 18.109375 30.90625 
L 18.109375 0 
L 9.078125 0 
L 9.078125 75.984375 
L 18.109375 75.984375 
L 18.109375 46.1875 
Q 21.34375 51.125 25.703125 53.5625 
Q 30.078125 56 35.796875 56 
Q 45.21875 56 50.046875 50.171875 
Q 54.890625 44.34375 54.890625 33.015625 
z
" id="DejaVuSans-104"/>
     </defs>
     <g transform="translate(285.836018 425.657812)rotate(-90)scale(0.14 -0.14)">
      <use xlink:href="#DejaVuSans-81"/>
      <use x="78.710938" xlink:href="#DejaVuSans-82"/>
      <use x="148.193359" xlink:href="#DejaVuSans-83"/>
      <use x="211.669922" xlink:href="#DejaVuSans-32"/>
      <use x="243.457031" xlink:href="#DejaVuSans-87"/>
      <use x="342.302734" xlink:href="#DejaVuSans-105"/>
      <use x="370.085938" xlink:href="#DejaVuSans-100"/>
      <use x="433.5625" xlink:href="#DejaVuSans-116"/>
      <use x="472.771484" xlink:href="#DejaVuSans-104"/>
      <use x="536.150391" xlink:href="#DejaVuSans-32"/>
      <use x="567.9375" xlink:href="#DejaVuSans-40"/>
      <use x="606.951172" xlink:href="#DejaVuSans-109"/>
      <use x="704.363281" xlink:href="#DejaVuSans-115"/>
      <use x="756.462891" xlink:href="#DejaVuSans-41"/>
     </g>
    </g>
   </g>
   <g id="LineCollection_13">
    <path clip-path="url(#p391ca9d375)" d="M 349.551492 316.960353 
L 349.551492 294.857227 
" style="fill:none;stroke:#000000;"/>
   </g>
   <g id="LineCollection_14">
    <path clip-path="url(#p391ca9d375)" d="M 386.461774 314.978477 
L 386.461774 298.36263 
" style="fill:none;stroke:#000000;"/>
   </g>
   <g id="LineCollection_15">
    <path clip-path="url(#p391ca9d375)" d="M 447.978911 325.200844 
L 447.978911 312.720679 
" style="fill:none;stroke:#000000;"/>
   </g>
   <g id="LineCollection_16">
    <path clip-path="url(#p391ca9d375)" d="M 484.889194 297.620535 
L 484.889194 272.909933 
" style="fill:none;stroke:#000000;"/>
   </g>
   <g id="line2d_74">
    <g clip-path="url(#p391ca9d375)">
     <use style="stroke:#000000;" x="349.551492" xlink:href="#m21310ebf00" y="316.960353"/>
    </g>
   </g>
   <g id="line2d_75">
    <g clip-path="url(#p391ca9d375)">
     <use style="stroke:#000000;" x="349.551492" xlink:href="#m21310ebf00" y="294.857227"/>
    </g>
   </g>
   <g id="line2d_76">
    <g clip-path="url(#p391ca9d375)">
     <use style="stroke:#000000;" x="386.461774" xlink:href="#m21310ebf00" y="314.978477"/>
    </g>
   </g>
   <g id="line2d_77">
    <g clip-path="url(#p391ca9d375)">
     <use style="stroke:#000000;" x="386.461774" xlink:href="#m21310ebf00" y="298.36263"/>
    </g>
   </g>
   <g id="line2d_78">
    <g clip-path="url(#p391ca9d375)">
     <use style="stroke:#000000;" x="447.978911" xlink:href="#m21310ebf00" y="325.200844"/>
    </g>
   </g>
   <g id="line2d_79">
    <g clip-path="url(#p391ca9d375)">
     <use style="stroke:#000000;" x="447.978911" xlink:href="#m21310ebf00" y="312.720679"/>
    </g>
   </g>
   <g id="line2d_80">
    <g clip-path="url(#p391ca9d375)">
     <use style="stroke:#000000;" x="484.889194" xlink:href="#m21310ebf00" y="297.620535"/>
    </g>
   </g>
   <g id="line2d_81">
    <g clip-path="url(#p391ca9d375)">
     <use style="stroke:#000000;" x="484.889194" xlink:href="#m21310ebf00" y="272.909933"/>
    </g>
   </g>
   <g id="patch_32">
    <path d="M 317.56258 472.52 
L 317.56258 267.43 
" style="fill:none;stroke:#000000;stroke-linecap:square;stroke-linejoin:miter;stroke-width:0.8;"/>
   </g>
   <g id="patch_33">
    <path d="M 317.56258 472.52 
L 514.41742 472.52 
" style="fill:none;stroke:#000000;stroke-linecap:square;stroke-linejoin:miter;stroke-width:0.8;"/>
   </g>
  </g>
  <g id="axes_7">
   <g id="patch_34">
    <path d="M 581.825161 472.52 
L 778.68 472.52 
L 778.68 267.43 
L 581.825161 267.43 
z
" style="fill:#ffffff;"/>
   </g>
   <g id="patch_35">
    <path clip-path="url(#pa114eba4ab)" d="M 596.589274 472.52 
L 631.038871 472.52 
L 631.038871 349.86686 
L 596.589274 349.86686 
z
" style="fill:#cd5c5c;"/>
   </g>
   <g id="patch_36">
    <path clip-path="url(#pa114eba4ab)" d="M 633.499556 472.52 
L 667.949153 472.52 
L 667.949153 318.822775 
L 633.499556 318.822775 
z
" style="fill:#191970;"/>
   </g>
   <g id="patch_37">
    <path clip-path="url(#pa114eba4ab)" d="M 695.016693 472.52 
L 729.46629 472.52 
L 729.46629 342.074548 
L 695.016693 342.074548 
z
" style="fill:#cd5c5c;"/>
   </g>
   <g id="patch_38">
    <path clip-path="url(#pa114eba4ab)" d="M 731.926976 472.52 
L 766.376573 472.52 
L 766.376573 315.654622 
L 731.926976 315.654622 
z
" style="fill:#191970;"/>
   </g>
   <g id="matplotlib.axis_13">
    <g id="xtick_15">
     <g id="line2d_82">
      <g>
       <use style="stroke:#000000;stroke-width:0.8;" x="631.038871" xlink:href="#mb1bd3274a7" y="472.52"/>
      </g>
     </g>
     <g id="text_48">
      <!-- Ctrl -->
      <g transform="translate(618.584339 490.157813)scale(0.14 -0.14)">
       <use xlink:href="#DejaVuSans-67"/>
       <use x="69.824219" xlink:href="#DejaVuSans-116"/>
       <use x="109.033203" xlink:href="#DejaVuSans-114"/>
       <use x="150.146484" xlink:href="#DejaVuSans-108"/>
      </g>
     </g>
    </g>
    <g id="xtick_16">
     <g id="line2d_83">
      <g>
       <use style="stroke:#000000;stroke-width:0.8;" x="729.46629" xlink:href="#mb1bd3274a7" y="472.52"/>
      </g>
     </g>
     <g id="text_49">
      <!-- MEHP -->
      <g transform="translate(709.518478 490.157813)scale(0.14 -0.14)">
       <use xlink:href="#DejaVuSans-77"/>
       <use x="86.279297" xlink:href="#DejaVuSans-69"/>
       <use x="149.462891" xlink:href="#DejaVuSans-72"/>
       <use x="224.658203" xlink:href="#DejaVuSans-80"/>
      </g>
     </g>
    </g>
   </g>
   <g id="matplotlib.axis_14">
    <g id="ytick_30">
     <g id="line2d_84">
      <g>
       <use style="stroke:#000000;stroke-width:0.8;" x="581.825161" xlink:href="#m9782915807" y="472.52"/>
      </g>
     </g>
     <g id="text_50">
      <!-- 0 -->
      <g transform="translate(565.917661 477.838906)scale(0.14 -0.14)">
       <use xlink:href="#DejaVuSans-48"/>
      </g>
     </g>
    </g>
    <g id="ytick_31">
     <g id="line2d_85">
      <g>
       <use style="stroke:#000000;stroke-width:0.8;" x="581.825161" xlink:href="#m9782915807" y="438.898689"/>
      </g>
     </g>
     <g id="text_51">
      <!-- 50 -->
      <g transform="translate(557.010161 444.217595)scale(0.14 -0.14)">
       <use xlink:href="#DejaVuSans-53"/>
       <use x="63.623047" xlink:href="#DejaVuSans-48"/>
      </g>
     </g>
    </g>
    <g id="ytick_32">
     <g id="line2d_86">
      <g>
       <use style="stroke:#000000;stroke-width:0.8;" x="581.825161" xlink:href="#m9782915807" y="405.277377"/>
      </g>
     </g>
     <g id="text_52">
      <!-- 100 -->
      <g transform="translate(548.102661 410.596283)scale(0.14 -0.14)">
       <use xlink:href="#DejaVuSans-49"/>
       <use x="63.623047" xlink:href="#DejaVuSans-48"/>
       <use x="127.246094" xlink:href="#DejaVuSans-48"/>
      </g>
     </g>
    </g>
    <g id="ytick_33">
     <g id="line2d_87">
      <g>
       <use style="stroke:#000000;stroke-width:0.8;" x="581.825161" xlink:href="#m9782915807" y="371.656066"/>
      </g>
     </g>
     <g id="text_53">
      <!-- 150 -->
      <g transform="translate(548.102661 376.974972)scale(0.14 -0.14)">
       <use xlink:href="#DejaVuSans-49"/>
       <use x="63.623047" xlink:href="#DejaVuSans-53"/>
       <use x="127.246094" xlink:href="#DejaVuSans-48"/>
      </g>
     </g>
    </g>
    <g id="ytick_34">
     <g id="line2d_88">
      <g>
       <use style="stroke:#000000;stroke-width:0.8;" x="581.825161" xlink:href="#m9782915807" y="338.034754"/>
      </g>
     </g>
     <g id="text_54">
      <!-- 200 -->
      <g transform="translate(548.102661 343.35366)scale(0.14 -0.14)">
       <use xlink:href="#DejaVuSans-50"/>
       <use x="63.623047" xlink:href="#DejaVuSans-48"/>
       <use x="127.246094" xlink:href="#DejaVuSans-48"/>
      </g>
     </g>
    </g>
    <g id="ytick_35">
     <g id="line2d_89">
      <g>
       <use style="stroke:#000000;stroke-width:0.8;" x="581.825161" xlink:href="#m9782915807" y="304.413443"/>
      </g>
     </g>
     <g id="text_55">
      <!-- 250 -->
      <g transform="translate(548.102661 309.732349)scale(0.14 -0.14)">
       <use xlink:href="#DejaVuSans-50"/>
       <use x="63.623047" xlink:href="#DejaVuSans-53"/>
       <use x="127.246094" xlink:href="#DejaVuSans-48"/>
      </g>
     </g>
    </g>
    <g id="ytick_36">
     <g id="line2d_90">
      <g>
       <use style="stroke:#000000;stroke-width:0.8;" x="581.825161" xlink:href="#m9782915807" y="270.792131"/>
      </g>
     </g>
     <g id="text_56">
      <!-- 300 -->
      <g transform="translate(548.102661 276.111037)scale(0.14 -0.14)">
       <use xlink:href="#DejaVuSans-51"/>
       <use x="63.623047" xlink:href="#DejaVuSans-48"/>
       <use x="127.246094" xlink:href="#DejaVuSans-48"/>
      </g>
     </g>
    </g>
    <g id="text_57">
     <!-- QTc (ms) -->
     <defs>
      <path d="M 48.78125 52.59375 
L 48.78125 44.1875 
Q 44.96875 46.296875 41.140625 47.34375 
Q 37.3125 48.390625 33.40625 48.390625 
Q 24.65625 48.390625 19.8125 42.84375 
Q 14.984375 37.3125 14.984375 27.296875 
Q 14.984375 17.28125 19.8125 11.734375 
Q 24.65625 6.203125 33.40625 6.203125 
Q 37.3125 6.203125 41.140625 7.25 
Q 44.96875 8.296875 48.78125 10.40625 
L 48.78125 2.09375 
Q 45.015625 0.34375 40.984375 -0.53125 
Q 36.96875 -1.421875 32.421875 -1.421875 
Q 20.0625 -1.421875 12.78125 6.34375 
Q 5.515625 14.109375 5.515625 27.296875 
Q 5.515625 40.671875 12.859375 48.328125 
Q 20.21875 56 33.015625 56 
Q 37.15625 56 41.109375 55.140625 
Q 45.0625 54.296875 48.78125 52.59375 
z
" id="DejaVuSans-99"/>
     </defs>
     <g transform="translate(541.191098 401.742969)rotate(-90)scale(0.14 -0.14)">
      <use xlink:href="#DejaVuSans-81"/>
      <use x="78.710938" xlink:href="#DejaVuSans-84"/>
      <use x="139.529297" xlink:href="#DejaVuSans-99"/>
      <use x="194.509766" xlink:href="#DejaVuSans-32"/>
      <use x="226.296875" xlink:href="#DejaVuSans-40"/>
      <use x="265.310547" xlink:href="#DejaVuSans-109"/>
      <use x="362.722656" xlink:href="#DejaVuSans-115"/>
      <use x="414.822266" xlink:href="#DejaVuSans-41"/>
     </g>
    </g>
   </g>
   <g id="LineCollection_17">
    <path clip-path="url(#pa114eba4ab)" d="M 613.814072 356.340461 
L 613.814072 343.39326 
" style="fill:none;stroke:#000000;"/>
   </g>
   <g id="LineCollection_18">
    <path clip-path="url(#pa114eba4ab)" d="M 650.724355 330.525669 
L 650.724355 307.11988 
" style="fill:none;stroke:#000000;"/>
   </g>
   <g id="LineCollection_19">
    <path clip-path="url(#pa114eba4ab)" d="M 712.241492 350.191544 
L 712.241492 333.957552 
" style="fill:none;stroke:#000000;"/>
   </g>
   <g id="LineCollection_20">
    <path clip-path="url(#pa114eba4ab)" d="M 749.151774 324.165205 
L 749.151774 307.14404 
" style="fill:none;stroke:#000000;"/>
   </g>
   <g id="line2d_91">
    <g clip-path="url(#pa114eba4ab)">
     <use style="stroke:#000000;" x="613.814072" xlink:href="#m21310ebf00" y="356.340461"/>
    </g>
   </g>
   <g id="line2d_92">
    <g clip-path="url(#pa114eba4ab)">
     <use style="stroke:#000000;" x="613.814072" xlink:href="#m21310ebf00" y="343.39326"/>
    </g>
   </g>
   <g id="line2d_93">
    <g clip-path="url(#pa114eba4ab)">
     <use style="stroke:#000000;" x="650.724355" xlink:href="#m21310ebf00" y="330.525669"/>
    </g>
   </g>
   <g id="line2d_94">
    <g clip-path="url(#pa114eba4ab)">
     <use style="stroke:#000000;" x="650.724355" xlink:href="#m21310ebf00" y="307.11988"/>
    </g>
   </g>
   <g id="line2d_95">
    <g clip-path="url(#pa114eba4ab)">
     <use style="stroke:#000000;" x="712.241492" xlink:href="#m21310ebf00" y="350.191544"/>
    </g>
   </g>
   <g id="line2d_96">
    <g clip-path="url(#pa114eba4ab)">
     <use style="stroke:#000000;" x="712.241492" xlink:href="#m21310ebf00" y="333.957552"/>
    </g>
   </g>
   <g id="line2d_97">
    <g clip-path="url(#pa114eba4ab)">
     <use style="stroke:#000000;" x="749.151774" xlink:href="#m21310ebf00" y="324.165205"/>
    </g>
   </g>
   <g id="line2d_98">
    <g clip-path="url(#pa114eba4ab)">
     <use style="stroke:#000000;" x="749.151774" xlink:href="#m21310ebf00" y="307.14404"/>
    </g>
   </g>
   <g id="patch_39">
    <path d="M 581.825161 472.52 
L 581.825161 267.43 
" style="fill:none;stroke:#000000;stroke-linecap:square;stroke-linejoin:miter;stroke-width:0.8;"/>
   </g>
   <g id="patch_40">
    <path d="M 581.825161 472.52 
L 778.68 472.52 
" style="fill:none;stroke:#000000;stroke-linecap:square;stroke-linejoin:miter;stroke-width:0.8;"/>
   </g>
  </g>
 </g>
 <defs>
  <clipPath id="pf9290aa04a">
   <rect height="89.169565" width="196.854839" x="53.3" y="25.46"/>
  </clipPath>
  <clipPath id="p4b97893bc8">
   <rect height="89.169565" width="196.854839" x="53.3" y="141.380435"/>
  </clipPath>
  <clipPath id="pd1f9fc01ce">
   <rect height="205.09" width="196.854839" x="317.56258" y="25.46"/>
  </clipPath>
  <clipPath id="pd8e0688de8">
   <rect height="205.09" width="196.854839" x="581.825161" y="25.46"/>
  </clipPath>
  <clipPath id="p8fb7de22f4">
   <rect height="205.09" width="196.854839" x="53.3" y="267.43"/>
  </clipPath>
  <clipPath id="p391ca9d375">
   <rect height="205.09" width="196.854839" x="317.56258" y="267.43"/>
  </clipPath>
  <clipPath id="pa114eba4ab">
   <rect height="205.09" width="196.854839" x="581.825161" y="267.43"/>
  </clipPath>
 </defs>
</svg>
