<?xml version="1.0" encoding="utf-8" standalone="no"?>
<!DOCTYPE svg PUBLIC "-//W3C//DTD SVG 1.1//EN"
  "http://www.w3.org/Graphics/SVG/1.1/DTD/svg11.dtd">
<!-- Created with matplotlib (https://matplotlib.org/) -->
<svg height="504pt" version="1.1" viewBox="0 0 792 504" width="792pt" xmlns="http://www.w3.org/2000/svg" xmlns:xlink="http://www.w3.org/1999/xlink">
 <defs>
  <style type="text/css">
*{stroke-linecap:butt;stroke-linejoin:round;}
  </style>
 </defs>
 <g id="figure_1">
  <g id="patch_1">
   <path d="M 0 504 
L 792 504 
L 792 0 
L 0 0 
z
" style="fill:#ffffff;"/>
  </g>
  <g id="axes_1">
   <g id="patch_2">
    <path d="M 53.3 111.082783 
L 247.14 111.082783 
L 247.14 20.928 
L 53.3 20.928 
z
" style="fill:#ffffff;"/>
   </g>
   <g id="matplotlib.axis_1">
    <g id="xtick_1"/>
    <g id="xtick_2"/>
    <g id="xtick_3"/>
   </g>
   <g id="matplotlib.axis_2">
    <g id="ytick_1"/>
    <g id="ytick_2"/>
    <g id="ytick_3"/>
    <g id="text_1">
     <!-- CTRL -->
     <defs>
      <path d="M 64.40625 67.28125 
L 64.40625 56.890625 
Q 59.421875 61.53125 53.78125 63.8125 
Q 48.140625 66.109375 41.796875 66.109375 
Q 29.296875 66.109375 22.65625 58.46875 
Q 16.015625 50.828125 16.015625 36.375 
Q 16.015625 21.96875 22.65625 14.328125 
Q 29.296875 6.6875 41.796875 6.6875 
Q 48.140625 6.6875 53.78125 8.984375 
Q 59.421875 11.28125 64.40625 15.921875 
L 64.40625 5.609375 
Q 59.234375 2.09375 53.4375 0.328125 
Q 47.65625 -1.421875 41.21875 -1.421875 
Q 24.65625 -1.421875 15.125 8.703125 
Q 5.609375 18.84375 5.609375 36.375 
Q 5.609375 53.953125 15.125 64.078125 
Q 24.65625 74.21875 41.21875 74.21875 
Q 47.75 74.21875 53.53125 72.484375 
Q 59.328125 70.75 64.40625 67.28125 
z
" id="DejaVuSans-67"/>
      <path d="M -0.296875 72.90625 
L 61.375 72.90625 
L 61.375 64.59375 
L 35.5 64.59375 
L 35.5 0 
L 25.59375 0 
L 25.59375 64.59375 
L -0.296875 64.59375 
z
" id="DejaVuSans-84"/>
      <path d="M 44.390625 34.1875 
Q 47.5625 33.109375 50.5625 29.59375 
Q 53.5625 26.078125 56.59375 19.921875 
L 66.609375 0 
L 56 0 
L 46.6875 18.703125 
Q 43.0625 26.03125 39.671875 28.421875 
Q 36.28125 30.8125 30.421875 30.8125 
L 19.671875 30.8125 
L 19.671875 0 
L 9.8125 0 
L 9.8125 72.90625 
L 32.078125 72.90625 
Q 44.578125 72.90625 50.734375 67.671875 
Q 56.890625 62.453125 56.890625 51.90625 
Q 56.890625 45.015625 53.6875 40.46875 
Q 50.484375 35.9375 44.390625 34.1875 
z
M 19.671875 64.796875 
L 19.671875 38.921875 
L 32.078125 38.921875 
Q 39.203125 38.921875 42.84375 42.21875 
Q 46.484375 45.515625 46.484375 51.90625 
Q 46.484375 58.296875 42.84375 61.546875 
Q 39.203125 64.796875 32.078125 64.796875 
z
" id="DejaVuSans-82"/>
      <path d="M 9.8125 72.90625 
L 19.671875 72.90625 
L 19.671875 8.296875 
L 55.171875 8.296875 
L 55.171875 0 
L 9.8125 0 
z
" id="DejaVuSans-76"/>
     </defs>
     <g transform="translate(39.388438 83.933048)rotate(-90)scale(0.14 -0.14)">
      <use xlink:href="#DejaVuSans-67"/>
      <use x="69.824219" xlink:href="#DejaVuSans-84"/>
      <use x="130.908203" xlink:href="#DejaVuSans-82"/>
      <use x="200.390625" xlink:href="#DejaVuSans-76"/>
     </g>
    </g>
   </g>
   <g id="line2d_1">
    <path clip-path="url(#p1728d62b07)" d="M 52.91232 66.095546 
L 53.3 66.039199 
L 54.46304 66.142877 
L 56.40144 66.239794 
L 57.1768 66.334456 
L 59.1152 66.356995 
L 59.50288 66.501243 
L 61.82896 66.404326 
L 63.76736 66.129354 
L 65.31808 66.109069 
L 66.48112 65.908475 
L 69.19488 66.045961 
L 69.97024 66.183447 
L 71.90864 66.219509 
L 72.684 66.384041 
L 79.66224 65.840859 
L 83.53904 66.163162 
L 84.70208 66.136116 
L 85.47744 66.356995 
L 93.23104 65.881428 
L 99.43392 66.287125 
L 99.8216 66.190209 
L 100.59696 66.287125 
L 101.37232 66.190209 
L 103.31072 66.005391 
L 104.08608 65.971583 
L 105.24912 65.804797 
L 110.67664 66.163162 
L 111.452 66.424611 
L 113.00272 66.370518 
L 113.77808 66.611682 
L 114.55344 66.789738 
L 114.94112 66.810023 
L 115.3288 67.078233 
L 116.10416 67.380252 
L 116.87952 67.973019 
L 117.2672 68.117267 
L 118.43024 67.677763 
L 118.81792 67.641701 
L 119.2056 67.387013 
L 119.59328 66.988078 
L 119.98096 66.823546 
L 120.36864 66.789738 
L 120.75632 67.195434 
L 121.144 67.37349 
L 121.53168 67.849057 
L 121.91936 67.745379 
L 123.0824 69.314072 
L 123.47008 68.743843 
L 123.85776 67.299112 
L 125.79616 65.187237 
L 126.18384 64.993404 
L 126.57152 64.486283 
L 126.9592 64.389367 
L 127.73456 64.416413 
L 128.50992 64.463745 
L 130.06064 64.617008 
L 130.44832 64.493045 
L 131.22368 64.560661 
L 132.38672 64.849156 
L 132.7744 64.855918 
L 133.54976 65.063274 
L 135.48816 65.475732 
L 136.6512 65.647026 
L 137.03888 65.854382 
L 140.528 65.730419 
L 141.30336 65.640264 
L 142.85408 65.68985 
L 144.01712 65.462209 
L 144.79248 65.462209 
L 145.18016 65.572648 
L 145.56784 65.372054 
L 145.95552 65.338246 
L 146.3432 65.015943 
L 147.11856 63.71546 
L 147.50624 62.723757 
L 148.2816 59.464662 
L 149.05696 53.960712 
L 149.83232 47.208119 
L 151.38304 30.410029 
L 151.77072 28.194475 
L 152.1584 28.023181 
L 152.54608 28.978822 
L 152.93376 31.097459 
L 153.32144 36.353483 
L 153.70912 44.070733 
L 154.0968 55.069616 
L 155.25984 96.585894 
L 155.64752 104.496976 
L 156.0352 107.735786 
L 156.42288 106.146808 
L 156.81056 102.137174 
L 158.74896 72.733192 
L 159.52432 67.490691 
L 160.29968 64.71167 
L 161.46272 61.342135 
L 162.23808 59.904166 
L 163.01344 58.962049 
L 163.7888 58.067263 
L 165.33952 56.79608 
L 166.89024 55.743523 
L 167.6656 55.536167 
L 169.21632 55.385158 
L 169.604 55.418966 
L 170.37936 55.804378 
L 172.31776 57.52408 
L 174.64384 60.503696 
L 176.96992 63.665875 
L 177.74528 64.533614 
L 178.52064 65.304438 
L 179.296 65.964822 
L 180.07136 66.535051 
L 181.62208 67.547038 
L 183.56048 68.338146 
L 183.94816 68.583818 
L 184.33584 68.606357 
L 185.49888 69.045861 
L 186.66192 69.431273 
L 188.21264 69.649898 
L 188.988 69.891062 
L 189.76336 69.911347 
L 190.53872 69.857254 
L 190.9264 69.933886 
L 192.8648 69.672437 
L 194.8032 69.561997 
L 195.19088 69.397465 
L 196.35392 69.438035 
L 196.7416 69.505651 
L 197.51696 69.41775 
L 198.68 69.534951 
L 199.84304 69.575521 
L 200.6184 69.534951 
L 201.39376 69.575521 
L 201.78144 69.692722 
L 205.27056 69.293787 
L 206.04592 69.190109 
L 207.98432 68.921899 
L 208.75968 68.831744 
L 213.41184 68.894852 
L 214.1872 68.908375 
L 214.57488 69.018815 
L 215.73792 68.88809 
L 216.51328 68.824982 
L 216.90096 68.831744 
L 217.67632 68.694258 
L 221.9408 68.033874 
L 226.20528 68.047397 
L 226.98064 67.979781 
L 227.756 68.157837 
L 229.30672 67.909911 
L 229.6944 67.959496 
L 230.46976 67.772425 
L 231.24512 67.601131 
L 232.40816 67.463645 
L 233.5712 67.305874 
L 233.95888 67.132326 
L 234.73424 67.141342 
L 239.3864 67.195434 
L 240.16176 67.242766 
L 240.54944 67.346444 
L 241.71248 67.215719 
L 242.10016 67.112041 
L 242.48784 67.229242 
L 244.81392 66.837069 
L 246.75232 66.611682 
L 247.14 66.508004 
L 247.52768 66.528289 
L 247.52768 66.528289 
" style="fill:none;stroke:#191970;stroke-linecap:square;stroke-width:2;"/>
   </g>
   <g id="line2d_2">
    <path clip-path="url(#p1728d62b07)" d="M 111.452 54.736043 
L 145.56784 54.736043 
" style="fill:none;stroke:#000000;stroke-linecap:square;"/>
   </g>
   <g id="line2d_3">
    <path clip-path="url(#p1728d62b07)" d="M 111.452 56.989913 
L 111.452 52.482174 
" style="fill:none;stroke:#000000;stroke-linecap:square;"/>
   </g>
   <g id="line2d_4">
    <path clip-path="url(#p1728d62b07)" d="M 145.56784 56.989913 
L 145.56784 52.482174 
" style="fill:none;stroke:#000000;stroke-linecap:square;"/>
   </g>
   <g id="line2d_5">
    <path clip-path="url(#p1728d62b07)" d="M 145.56784 24.308804 
L 161.07504 24.308804 
" style="fill:none;stroke:#000000;stroke-linecap:square;"/>
   </g>
   <g id="line2d_6">
    <path clip-path="url(#p1728d62b07)" d="M 145.56784 26.562674 
L 145.56784 22.054935 
" style="fill:none;stroke:#000000;stroke-linecap:square;"/>
   </g>
   <g id="line2d_7">
    <path clip-path="url(#p1728d62b07)" d="M 161.07504 26.562674 
L 161.07504 22.054935 
" style="fill:none;stroke:#000000;stroke-linecap:square;"/>
   </g>
   <g id="text_2">
    <!-- 44ms -->
    <defs>
     <path d="M 36.8125 57.421875 
L 16.21875 26.90625 
L 36.8125 26.90625 
z
M 33.6875 72.90625 
L 54.59375 72.90625 
L 54.59375 26.90625 
L 64.984375 26.90625 
L 64.984375 13.28125 
L 54.59375 13.28125 
L 54.59375 0 
L 36.8125 0 
L 36.8125 13.28125 
L 4.5 13.28125 
L 4.5 29.390625 
z
" id="DejaVuSans-Bold-52"/>
     <path d="M 59.078125 45.609375 
Q 62.40625 50.6875 66.96875 53.34375 
Q 71.53125 56 77 56 
Q 86.421875 56 91.359375 50.1875 
Q 96.296875 44.390625 96.296875 33.296875 
L 96.296875 0 
L 78.71875 0 
L 78.71875 28.515625 
Q 78.765625 29.15625 78.78125 29.828125 
Q 78.8125 30.515625 78.8125 31.78125 
Q 78.8125 37.59375 77.09375 40.203125 
Q 75.390625 42.828125 71.578125 42.828125 
Q 66.609375 42.828125 63.890625 38.71875 
Q 61.1875 34.625 61.078125 26.859375 
L 61.078125 0 
L 43.5 0 
L 43.5 28.515625 
Q 43.5 37.59375 41.9375 40.203125 
Q 40.375 42.828125 36.375 42.828125 
Q 31.34375 42.828125 28.609375 38.703125 
Q 25.875 34.578125 25.875 26.90625 
L 25.875 0 
L 8.296875 0 
L 8.296875 54.6875 
L 25.875 54.6875 
L 25.875 46.6875 
Q 29.109375 51.3125 33.28125 53.65625 
Q 37.453125 56 42.484375 56 
Q 48.140625 56 52.484375 53.265625 
Q 56.84375 50.53125 59.078125 45.609375 
z
" id="DejaVuSans-Bold-109"/>
     <path d="M 51.125 52.984375 
L 51.125 39.703125 
Q 45.515625 42.046875 40.28125 43.21875 
Q 35.0625 44.390625 30.421875 44.390625 
Q 25.4375 44.390625 23.015625 43.140625 
Q 20.609375 41.890625 20.609375 39.3125 
Q 20.609375 37.203125 22.4375 36.078125 
Q 24.265625 34.96875 29 34.421875 
L 32.078125 33.984375 
Q 45.515625 32.28125 50.140625 28.375 
Q 54.78125 24.46875 54.78125 16.109375 
Q 54.78125 7.375 48.328125 2.96875 
Q 41.890625 -1.421875 29.109375 -1.421875 
Q 23.6875 -1.421875 17.890625 -0.5625 
Q 12.109375 0.296875 6 2 
L 6 15.28125 
Q 11.234375 12.75 16.71875 11.46875 
Q 22.21875 10.203125 27.875 10.203125 
Q 33.015625 10.203125 35.59375 11.609375 
Q 38.1875 13.03125 38.1875 15.828125 
Q 38.1875 18.171875 36.40625 19.3125 
Q 34.625 20.453125 29.296875 21.09375 
L 26.21875 21.484375 
Q 14.546875 22.953125 9.859375 26.90625 
Q 5.171875 30.859375 5.171875 38.921875 
Q 5.171875 47.609375 11.125 51.796875 
Q 17.09375 56 29.390625 56 
Q 34.234375 56 39.546875 55.265625 
Q 44.875 54.546875 51.125 52.984375 
z
" id="DejaVuSans-Bold-115"/>
    </defs>
    <g transform="translate(117.909295 53.280262)scale(0.07 -0.07)">
     <use xlink:href="#DejaVuSans-Bold-52"/>
     <use x="69.580078" xlink:href="#DejaVuSans-Bold-52"/>
     <use x="139.160156" xlink:href="#DejaVuSans-Bold-109"/>
     <use x="243.359375" xlink:href="#DejaVuSans-Bold-115"/>
    </g>
   </g>
   <g id="text_3">
    <!-- 20ms -->
    <defs>
     <path d="M 28.8125 13.8125 
L 60.890625 13.8125 
L 60.890625 0 
L 7.90625 0 
L 7.90625 13.8125 
L 34.515625 37.3125 
Q 38.09375 40.53125 39.796875 43.609375 
Q 41.5 46.6875 41.5 50 
Q 41.5 55.125 38.0625 58.25 
Q 34.625 61.375 28.90625 61.375 
Q 24.515625 61.375 19.28125 59.5 
Q 14.0625 57.625 8.109375 53.90625 
L 8.109375 69.921875 
Q 14.453125 72.015625 20.65625 73.109375 
Q 26.859375 74.21875 32.8125 74.21875 
Q 45.90625 74.21875 53.15625 68.453125 
Q 60.40625 62.703125 60.40625 52.390625 
Q 60.40625 46.4375 57.328125 41.28125 
Q 54.25 36.140625 44.390625 27.484375 
z
" id="DejaVuSans-Bold-50"/>
     <path d="M 46 36.53125 
Q 46 50.203125 43.4375 55.78125 
Q 40.875 61.375 34.8125 61.375 
Q 28.765625 61.375 26.171875 55.78125 
Q 23.578125 50.203125 23.578125 36.53125 
Q 23.578125 22.703125 26.171875 17.03125 
Q 28.765625 11.375 34.8125 11.375 
Q 40.828125 11.375 43.40625 17.03125 
Q 46 22.703125 46 36.53125 
z
M 64.796875 36.375 
Q 64.796875 18.265625 56.984375 8.421875 
Q 49.171875 -1.421875 34.8125 -1.421875 
Q 20.40625 -1.421875 12.59375 8.421875 
Q 4.78125 18.265625 4.78125 36.375 
Q 4.78125 54.546875 12.59375 64.375 
Q 20.40625 74.21875 34.8125 74.21875 
Q 49.171875 74.21875 56.984375 64.375 
Q 64.796875 54.546875 64.796875 36.375 
z
" id="DejaVuSans-Bold-48"/>
    </defs>
    <g transform="translate(142.720815 22.853023)scale(0.07 -0.07)">
     <use xlink:href="#DejaVuSans-Bold-50"/>
     <use x="69.580078" xlink:href="#DejaVuSans-Bold-48"/>
     <use x="139.160156" xlink:href="#DejaVuSans-Bold-109"/>
     <use x="243.359375" xlink:href="#DejaVuSans-Bold-115"/>
    </g>
   </g>
  </g>
  <g id="axes_2">
   <g id="patch_3">
    <path d="M 53.3 228.284 
L 247.14 228.284 
L 247.14 138.129217 
L 53.3 138.129217 
z
" style="fill:#ffffff;"/>
   </g>
   <g id="matplotlib.axis_3">
    <g id="xtick_4"/>
    <g id="xtick_5"/>
    <g id="xtick_6"/>
   </g>
   <g id="matplotlib.axis_4">
    <g id="ytick_4"/>
    <g id="ytick_5"/>
    <g id="ytick_6"/>
    <g id="text_4">
     <!-- MEHP -->
     <defs>
      <path d="M 9.8125 72.90625 
L 24.515625 72.90625 
L 43.109375 23.296875 
L 61.8125 72.90625 
L 76.515625 72.90625 
L 76.515625 0 
L 66.890625 0 
L 66.890625 64.015625 
L 48.09375 14.015625 
L 38.1875 14.015625 
L 19.390625 64.015625 
L 19.390625 0 
L 9.8125 0 
z
" id="DejaVuSans-77"/>
      <path d="M 9.8125 72.90625 
L 55.90625 72.90625 
L 55.90625 64.59375 
L 19.671875 64.59375 
L 19.671875 43.015625 
L 54.390625 43.015625 
L 54.390625 34.71875 
L 19.671875 34.71875 
L 19.671875 8.296875 
L 56.78125 8.296875 
L 56.78125 0 
L 9.8125 0 
z
" id="DejaVuSans-69"/>
      <path d="M 9.8125 72.90625 
L 19.671875 72.90625 
L 19.671875 43.015625 
L 55.515625 43.015625 
L 55.515625 72.90625 
L 65.375 72.90625 
L 65.375 0 
L 55.515625 0 
L 55.515625 34.71875 
L 19.671875 34.71875 
L 19.671875 0 
L 9.8125 0 
z
" id="DejaVuSans-72"/>
      <path d="M 19.671875 64.796875 
L 19.671875 37.40625 
L 32.078125 37.40625 
Q 38.96875 37.40625 42.71875 40.96875 
Q 46.484375 44.53125 46.484375 51.125 
Q 46.484375 57.671875 42.71875 61.234375 
Q 38.96875 64.796875 32.078125 64.796875 
z
M 9.8125 72.90625 
L 32.078125 72.90625 
Q 44.34375 72.90625 50.609375 67.359375 
Q 56.890625 61.8125 56.890625 51.125 
Q 56.890625 40.328125 50.609375 34.8125 
Q 44.34375 29.296875 32.078125 29.296875 
L 19.671875 29.296875 
L 19.671875 0 
L 9.8125 0 
z
" id="DejaVuSans-80"/>
     </defs>
     <g transform="translate(39.388438 203.154421)rotate(-90)scale(0.14 -0.14)">
      <use xlink:href="#DejaVuSans-77"/>
      <use x="86.279297" xlink:href="#DejaVuSans-69"/>
      <use x="149.462891" xlink:href="#DejaVuSans-72"/>
      <use x="224.658203" xlink:href="#DejaVuSans-80"/>
     </g>
    </g>
   </g>
   <g id="line2d_8">
    <path clip-path="url(#p518d08a223)" d="M 52.91232 184.038287 
L 59.50288 183.675414 
L 61.82896 183.770076 
L 63.37968 183.709222 
L 64.15504 183.688937 
L 64.54272 183.806138 
L 68.8072 183.578497 
L 70.7456 183.544689 
L 71.13328 183.427488 
L 75.01008 183.612305 
L 80.82528 183.515389 
L 81.60064 183.488342 
L 83.53904 183.508627 
L 84.3144 183.377903 
L 87.80352 183.544689 
L 90.1296 183.528912 
L 90.90496 183.619067 
L 95.9448 183.427488 
L 96.33248 183.447773 
L 97.10784 183.303525 
L 102.53536 183.427488 
L 103.31072 183.330572 
L 104.47376 182.951921 
L 104.86144 182.827959 
L 105.24912 182.539463 
L 105.6368 182.408739 
L 106.02448 182.52594 
L 107.18752 182.449309 
L 107.5752 182.338869 
L 107.96288 182.449309 
L 108.35056 182.827959 
L 109.12592 182.780627 
L 109.90128 183.528912 
L 110.28896 183.639352 
L 111.06432 183.075884 
L 111.452 183.206609 
L 111.83968 183.042076 
L 112.61504 183.571736 
L 113.00272 183.578497 
L 113.3904 183.357618 
L 113.77808 183.43425 
L 114.16576 183.894039 
L 114.94112 184.058571 
L 117.65488 184.196057 
L 120.75632 183.927847 
L 125.0208 183.729506 
L 127.34688 183.675414 
L 128.8976 183.625828 
L 129.67296 183.688937 
L 131.22368 183.52215 
L 136.6512 183.226894 
L 139.36496 183.357618 
L 140.528 183.21337 
L 145.18016 183.048838 
L 145.95552 182.985729 
L 149.44464 183.413965 
L 149.83232 182.958683 
L 150.22 182.079674 
L 150.60768 180.317148 
L 150.99536 177.779291 
L 151.38304 174.175353 
L 152.1584 164.181696 
L 153.32144 148.726912 
L 153.70912 145.988461 
L 154.0968 144.771371 
L 154.48448 144.557253 
L 154.87216 145.988461 
L 155.25984 148.918491 
L 155.64752 154.269177 
L 156.42288 174.339886 
L 157.58592 208.785774 
L 157.9736 216.415123 
L 158.36128 221.161772 
L 158.74896 220.562243 
L 159.13664 218.375989 
L 159.52432 212.637637 
L 160.29968 191.165022 
L 160.68736 184.155488 
L 161.07504 181.027117 
L 161.46272 179.602671 
L 161.8504 180.222485 
L 162.23808 182.070658 
L 162.62576 182.931637 
L 163.01344 183.145754 
L 163.40112 183.866992 
L 163.7888 185.627265 
L 164.17648 186.535574 
L 164.56416 186.598682 
L 164.95184 185.922522 
L 165.7272 183.048838 
L 166.89024 177.66209 
L 167.27792 176.961136 
L 167.6656 176.568963 
L 169.21632 175.818424 
L 170.37936 175.606561 
L 171.5424 175.710239 
L 172.70544 176.266944 
L 173.4808 176.810127 
L 175.4192 178.248096 
L 178.52064 181.067686 
L 181.62208 183.21337 
L 183.56048 184.087872 
L 186.66192 185.050274 
L 188.988 185.372577 
L 190.9264 185.661073 
L 196.35392 185.579933 
L 198.29232 185.415401 
L 199.84304 185.352293 
L 200.6184 185.167475 
L 204.10752 185.180998 
L 206.04592 185.036751 
L 208.372 184.980404 
L 210.3104 184.782064 
L 213.02416 184.691909 
L 213.79952 184.651339 
L 221.55312 184.822633 
L 228.53136 184.788825 
L 230.08208 184.836156 
L 232.02048 184.76854 
L 233.18352 184.829395 
L 240.54944 184.38989 
L 241.71248 184.403413 
L 243.2632 184.362844 
L 247.52768 184.169011 
L 247.52768 184.169011 
" style="fill:none;stroke:#191970;stroke-linecap:square;stroke-width:2;"/>
   </g>
   <g id="line2d_9">
    <path clip-path="url(#p518d08a223)" d="M 102.92304 171.937261 
L 148.66928 171.937261 
" style="fill:none;stroke:#000000;stroke-linecap:square;"/>
   </g>
   <g id="line2d_10">
    <path clip-path="url(#p518d08a223)" d="M 102.92304 174.19113 
L 102.92304 169.683391 
" style="fill:none;stroke:#000000;stroke-linecap:square;"/>
   </g>
   <g id="line2d_11">
    <path clip-path="url(#p518d08a223)" d="M 148.66928 174.19113 
L 148.66928 169.683391 
" style="fill:none;stroke:#000000;stroke-linecap:square;"/>
   </g>
   <g id="line2d_12">
    <path clip-path="url(#p518d08a223)" d="M 148.66928 141.510022 
L 168.05328 141.510022 
" style="fill:none;stroke:#000000;stroke-linecap:square;"/>
   </g>
   <g id="line2d_13">
    <path clip-path="url(#p518d08a223)" d="M 148.66928 143.763891 
L 148.66928 139.256152 
" style="fill:none;stroke:#000000;stroke-linecap:square;"/>
   </g>
   <g id="line2d_14">
    <path clip-path="url(#p518d08a223)" d="M 168.05328 143.763891 
L 168.05328 139.256152 
" style="fill:none;stroke:#000000;stroke-linecap:square;"/>
   </g>
   <g id="line2d_15">
    <path clip-path="url(#p518d08a223)" d="M 231.6328 221.522391 
L 247.14 221.522391 
" style="fill:none;stroke:#000000;stroke-linecap:square;"/>
   </g>
   <g id="line2d_16">
    <path clip-path="url(#p518d08a223)" d="M 231.6328 221.522391 
L 231.6328 210.253043 
" style="fill:none;stroke:#000000;stroke-linecap:square;"/>
   </g>
   <g id="text_5">
    <!-- 59ms -->
    <defs>
     <path d="M 10.59375 72.90625 
L 57.328125 72.90625 
L 57.328125 59.078125 
L 25.59375 59.078125 
L 25.59375 47.796875 
Q 27.734375 48.390625 29.90625 48.703125 
Q 32.078125 49.03125 34.421875 49.03125 
Q 47.75 49.03125 55.171875 42.359375 
Q 62.59375 35.6875 62.59375 23.78125 
Q 62.59375 11.96875 54.515625 5.265625 
Q 46.4375 -1.421875 32.078125 -1.421875 
Q 25.875 -1.421875 19.796875 -0.21875 
Q 13.71875 0.984375 7.71875 3.421875 
L 7.71875 18.21875 
Q 13.671875 14.796875 19.015625 13.078125 
Q 24.359375 11.375 29.109375 11.375 
Q 35.9375 11.375 39.859375 14.71875 
Q 43.796875 18.0625 43.796875 23.78125 
Q 43.796875 29.546875 39.859375 32.859375 
Q 35.9375 36.1875 29.109375 36.1875 
Q 25.046875 36.1875 20.453125 35.125 
Q 15.875 34.078125 10.59375 31.890625 
z
" id="DejaVuSans-Bold-53"/>
     <path d="M 10.015625 1.609375 
L 10.015625 15.09375 
Q 14.5 12.984375 18.59375 11.9375 
Q 22.703125 10.890625 26.703125 10.890625 
Q 35.109375 10.890625 39.796875 15.546875 
Q 44.484375 20.21875 45.3125 29.390625 
Q 42 26.953125 38.234375 25.734375 
Q 34.46875 24.515625 30.078125 24.515625 
Q 18.890625 24.515625 12.03125 31.03125 
Q 5.171875 37.546875 5.171875 48.1875 
Q 5.171875 59.96875 12.8125 67.046875 
Q 20.453125 74.125 33.296875 74.125 
Q 47.5625 74.125 55.375 64.5 
Q 63.1875 54.890625 63.1875 37.3125 
Q 63.1875 19.234375 54.046875 8.90625 
Q 44.921875 -1.421875 29 -1.421875 
Q 23.875 -1.421875 19.1875 -0.65625 
Q 14.5 0.09375 10.015625 1.609375 
z
M 33.203125 36.71875 
Q 38.140625 36.71875 40.625 39.90625 
Q 43.109375 43.109375 43.109375 49.515625 
Q 43.109375 55.859375 40.625 59.078125 
Q 38.140625 62.3125 33.203125 62.3125 
Q 28.265625 62.3125 25.78125 59.078125 
Q 23.296875 55.859375 23.296875 49.515625 
Q 23.296875 43.109375 25.78125 39.90625 
Q 28.265625 36.71875 33.203125 36.71875 
z
" id="DejaVuSans-Bold-57"/>
    </defs>
    <g transform="translate(115.195535 170.48148)scale(0.07 -0.07)">
     <use xlink:href="#DejaVuSans-Bold-53"/>
     <use x="69.580078" xlink:href="#DejaVuSans-Bold-57"/>
     <use x="139.160156" xlink:href="#DejaVuSans-Bold-109"/>
     <use x="243.359375" xlink:href="#DejaVuSans-Bold-115"/>
    </g>
   </g>
   <g id="text_6">
    <!-- 25ms -->
    <g transform="translate(147.760655 140.05424)scale(0.07 -0.07)">
     <use xlink:href="#DejaVuSans-Bold-50"/>
     <use x="69.580078" xlink:href="#DejaVuSans-Bold-53"/>
     <use x="139.160156" xlink:href="#DejaVuSans-Bold-109"/>
     <use x="243.359375" xlink:href="#DejaVuSans-Bold-115"/>
    </g>
   </g>
   <g id="text_7">
    <!-- 20ms -->
    <g transform="translate(231.6328 231.349037)scale(0.07 -0.07)">
     <use xlink:href="#DejaVuSans-Bold-50"/>
     <use x="69.580078" xlink:href="#DejaVuSans-Bold-48"/>
     <use x="139.160156" xlink:href="#DejaVuSans-Bold-109"/>
     <use x="243.359375" xlink:href="#DejaVuSans-Bold-115"/>
    </g>
   </g>
   <g id="text_8">
    <!-- 500mV -->
    <defs>
     <path d="M 0.484375 72.90625 
L 19.390625 72.90625 
L 38.71875 19.09375 
L 58.015625 72.90625 
L 76.90625 72.90625 
L 49.90625 0 
L 27.484375 0 
z
" id="DejaVuSans-Bold-86"/>
    </defs>
    <g transform="translate(202.759111 220.06661)scale(0.07 -0.07)">
     <use xlink:href="#DejaVuSans-Bold-53"/>
     <use x="69.580078" xlink:href="#DejaVuSans-Bold-48"/>
     <use x="139.160156" xlink:href="#DejaVuSans-Bold-48"/>
     <use x="208.740234" xlink:href="#DejaVuSans-Bold-109"/>
     <use x="312.939453" xlink:href="#DejaVuSans-Bold-86"/>
    </g>
   </g>
  </g>
  <g id="axes_3">
   <g id="patch_4">
    <path d="M 319.07 228.284 
L 512.91 228.284 
L 512.91 20.928 
L 319.07 20.928 
z
" style="fill:#ffffff;"/>
   </g>
   <g id="patch_5">
    <path clip-path="url(#p0bad2a27ad)" d="M 333.608 228.284 
L 367.53 228.284 
L 367.53 52.481445 
L 333.608 52.481445 
z
" style="fill:#cd5c5c;"/>
   </g>
   <g id="patch_6">
    <path clip-path="url(#p0bad2a27ad)" d="M 369.953 228.284 
L 403.875 228.284 
L 403.875 85.014175 
L 369.953 85.014175 
z
" style="fill:#191970;"/>
   </g>
   <g id="patch_7">
    <path clip-path="url(#p0bad2a27ad)" d="M 430.528 228.284 
L 464.45 228.284 
L 464.45 43.586398 
L 430.528 43.586398 
z
" style="fill:#cd5c5c;"/>
   </g>
   <g id="patch_8">
    <path clip-path="url(#p0bad2a27ad)" d="M 466.873 228.284 
L 500.795 228.284 
L 500.795 80.506383 
L 466.873 80.506383 
z
" style="fill:#191970;"/>
   </g>
   <g id="matplotlib.axis_5">
    <g id="xtick_7">
     <g id="line2d_17">
      <defs>
       <path d="M 0 0 
L 0 3.5 
" id="m3d05276afe" style="stroke:#000000;stroke-width:0.8;"/>
      </defs>
      <g>
       <use style="stroke:#000000;stroke-width:0.8;" x="367.53" xlink:href="#m3d05276afe" y="228.284"/>
      </g>
     </g>
     <g id="text_9">
      <!-- Ctrl -->
      <defs>
       <path d="M 18.3125 70.21875 
L 18.3125 54.6875 
L 36.8125 54.6875 
L 36.8125 47.703125 
L 18.3125 47.703125 
L 18.3125 18.015625 
Q 18.3125 11.328125 20.140625 9.421875 
Q 21.96875 7.515625 27.59375 7.515625 
L 36.8125 7.515625 
L 36.8125 0 
L 27.59375 0 
Q 17.1875 0 13.234375 3.875 
Q 9.28125 7.765625 9.28125 18.015625 
L 9.28125 47.703125 
L 2.6875 47.703125 
L 2.6875 54.6875 
L 9.28125 54.6875 
L 9.28125 70.21875 
z
" id="DejaVuSans-116"/>
       <path d="M 41.109375 46.296875 
Q 39.59375 47.171875 37.8125 47.578125 
Q 36.03125 48 33.890625 48 
Q 26.265625 48 22.1875 43.046875 
Q 18.109375 38.09375 18.109375 28.8125 
L 18.109375 0 
L 9.078125 0 
L 9.078125 54.6875 
L 18.109375 54.6875 
L 18.109375 46.1875 
Q 20.953125 51.171875 25.484375 53.578125 
Q 30.03125 56 36.53125 56 
Q 37.453125 56 38.578125 55.875 
Q 39.703125 55.765625 41.0625 55.515625 
z
" id="DejaVuSans-114"/>
       <path d="M 9.421875 75.984375 
L 18.40625 75.984375 
L 18.40625 0 
L 9.421875 0 
z
" id="DejaVuSans-108"/>
      </defs>
      <g transform="translate(355.075469 245.921812)scale(0.14 -0.14)">
       <use xlink:href="#DejaVuSans-67"/>
       <use x="69.824219" xlink:href="#DejaVuSans-116"/>
       <use x="109.033203" xlink:href="#DejaVuSans-114"/>
       <use x="150.146484" xlink:href="#DejaVuSans-108"/>
      </g>
     </g>
    </g>
    <g id="xtick_8">
     <g id="line2d_18">
      <g>
       <use style="stroke:#000000;stroke-width:0.8;" x="464.45" xlink:href="#m3d05276afe" y="228.284"/>
      </g>
     </g>
     <g id="text_10">
      <!-- MEHP -->
      <g transform="translate(444.502187 245.921812)scale(0.14 -0.14)">
       <use xlink:href="#DejaVuSans-77"/>
       <use x="86.279297" xlink:href="#DejaVuSans-69"/>
       <use x="149.462891" xlink:href="#DejaVuSans-72"/>
       <use x="224.658203" xlink:href="#DejaVuSans-80"/>
      </g>
     </g>
    </g>
   </g>
   <g id="matplotlib.axis_6">
    <g id="ytick_7">
     <g id="line2d_19">
      <defs>
       <path d="M 0 0 
L -3.5 0 
" id="m6e98e8d146" style="stroke:#000000;stroke-width:0.8;"/>
      </defs>
      <g>
       <use style="stroke:#000000;stroke-width:0.8;" x="319.07" xlink:href="#m6e98e8d146" y="228.284"/>
      </g>
     </g>
     <g id="text_11">
      <!-- 0 -->
      <defs>
       <path d="M 31.78125 66.40625 
Q 24.171875 66.40625 20.328125 58.90625 
Q 16.5 51.421875 16.5 36.375 
Q 16.5 21.390625 20.328125 13.890625 
Q 24.171875 6.390625 31.78125 6.390625 
Q 39.453125 6.390625 43.28125 13.890625 
Q 47.125 21.390625 47.125 36.375 
Q 47.125 51.421875 43.28125 58.90625 
Q 39.453125 66.40625 31.78125 66.40625 
z
M 31.78125 74.21875 
Q 44.046875 74.21875 50.515625 64.515625 
Q 56.984375 54.828125 56.984375 36.375 
Q 56.984375 17.96875 50.515625 8.265625 
Q 44.046875 -1.421875 31.78125 -1.421875 
Q 19.53125 -1.421875 13.0625 8.265625 
Q 6.59375 17.96875 6.59375 36.375 
Q 6.59375 54.828125 13.0625 64.515625 
Q 19.53125 74.21875 31.78125 74.21875 
z
" id="DejaVuSans-48"/>
      </defs>
      <g transform="translate(303.1625 233.602906)scale(0.14 -0.14)">
       <use xlink:href="#DejaVuSans-48"/>
      </g>
     </g>
    </g>
    <g id="ytick_8">
     <g id="line2d_20">
      <g>
       <use style="stroke:#000000;stroke-width:0.8;" x="319.07" xlink:href="#m6e98e8d146" y="186.8128"/>
      </g>
     </g>
     <g id="text_12">
      <!-- 50 -->
      <defs>
       <path d="M 10.796875 72.90625 
L 49.515625 72.90625 
L 49.515625 64.59375 
L 19.828125 64.59375 
L 19.828125 46.734375 
Q 21.96875 47.46875 24.109375 47.828125 
Q 26.265625 48.1875 28.421875 48.1875 
Q 40.625 48.1875 47.75 41.5 
Q 54.890625 34.8125 54.890625 23.390625 
Q 54.890625 11.625 47.5625 5.09375 
Q 40.234375 -1.421875 26.90625 -1.421875 
Q 22.3125 -1.421875 17.546875 -0.640625 
Q 12.796875 0.140625 7.71875 1.703125 
L 7.71875 11.625 
Q 12.109375 9.234375 16.796875 8.0625 
Q 21.484375 6.890625 26.703125 6.890625 
Q 35.15625 6.890625 40.078125 11.328125 
Q 45.015625 15.765625 45.015625 23.390625 
Q 45.015625 31 40.078125 35.4375 
Q 35.15625 39.890625 26.703125 39.890625 
Q 22.75 39.890625 18.8125 39.015625 
Q 14.890625 38.140625 10.796875 36.28125 
z
" id="DejaVuSans-53"/>
      </defs>
      <g transform="translate(294.255 192.131706)scale(0.14 -0.14)">
       <use xlink:href="#DejaVuSans-53"/>
       <use x="63.623047" xlink:href="#DejaVuSans-48"/>
      </g>
     </g>
    </g>
    <g id="ytick_9">
     <g id="line2d_21">
      <g>
       <use style="stroke:#000000;stroke-width:0.8;" x="319.07" xlink:href="#m6e98e8d146" y="145.3416"/>
      </g>
     </g>
     <g id="text_13">
      <!-- 100 -->
      <defs>
       <path d="M 12.40625 8.296875 
L 28.515625 8.296875 
L 28.515625 63.921875 
L 10.984375 60.40625 
L 10.984375 69.390625 
L 28.421875 72.90625 
L 38.28125 72.90625 
L 38.28125 8.296875 
L 54.390625 8.296875 
L 54.390625 0 
L 12.40625 0 
z
" id="DejaVuSans-49"/>
      </defs>
      <g transform="translate(285.3475 150.660506)scale(0.14 -0.14)">
       <use xlink:href="#DejaVuSans-49"/>
       <use x="63.623047" xlink:href="#DejaVuSans-48"/>
       <use x="127.246094" xlink:href="#DejaVuSans-48"/>
      </g>
     </g>
    </g>
    <g id="ytick_10">
     <g id="line2d_22">
      <g>
       <use style="stroke:#000000;stroke-width:0.8;" x="319.07" xlink:href="#m6e98e8d146" y="103.8704"/>
      </g>
     </g>
     <g id="text_14">
      <!-- 150 -->
      <g transform="translate(285.3475 109.189306)scale(0.14 -0.14)">
       <use xlink:href="#DejaVuSans-49"/>
       <use x="63.623047" xlink:href="#DejaVuSans-53"/>
       <use x="127.246094" xlink:href="#DejaVuSans-48"/>
      </g>
     </g>
    </g>
    <g id="ytick_11">
     <g id="line2d_23">
      <g>
       <use style="stroke:#000000;stroke-width:0.8;" x="319.07" xlink:href="#m6e98e8d146" y="62.3992"/>
      </g>
     </g>
     <g id="text_15">
      <!-- 200 -->
      <defs>
       <path d="M 19.1875 8.296875 
L 53.609375 8.296875 
L 53.609375 0 
L 7.328125 0 
L 7.328125 8.296875 
Q 12.9375 14.109375 22.625 23.890625 
Q 32.328125 33.6875 34.8125 36.53125 
Q 39.546875 41.84375 41.421875 45.53125 
Q 43.3125 49.21875 43.3125 52.78125 
Q 43.3125 58.59375 39.234375 62.25 
Q 35.15625 65.921875 28.609375 65.921875 
Q 23.96875 65.921875 18.8125 64.3125 
Q 13.671875 62.703125 7.8125 59.421875 
L 7.8125 69.390625 
Q 13.765625 71.78125 18.9375 73 
Q 24.125 74.21875 28.421875 74.21875 
Q 39.75 74.21875 46.484375 68.546875 
Q 53.21875 62.890625 53.21875 53.421875 
Q 53.21875 48.921875 51.53125 44.890625 
Q 49.859375 40.875 45.40625 35.40625 
Q 44.1875 33.984375 37.640625 27.21875 
Q 31.109375 20.453125 19.1875 8.296875 
z
" id="DejaVuSans-50"/>
      </defs>
      <g transform="translate(285.3475 67.718106)scale(0.14 -0.14)">
       <use xlink:href="#DejaVuSans-50"/>
       <use x="63.623047" xlink:href="#DejaVuSans-48"/>
       <use x="127.246094" xlink:href="#DejaVuSans-48"/>
      </g>
     </g>
    </g>
    <g id="ytick_12">
     <g id="line2d_24">
      <g>
       <use style="stroke:#000000;stroke-width:0.8;" x="319.07" xlink:href="#m6e98e8d146" y="20.928"/>
      </g>
     </g>
     <g id="text_16">
      <!-- 250 -->
      <g transform="translate(285.3475 26.246906)scale(0.14 -0.14)">
       <use xlink:href="#DejaVuSans-50"/>
       <use x="63.623047" xlink:href="#DejaVuSans-53"/>
       <use x="127.246094" xlink:href="#DejaVuSans-48"/>
      </g>
     </g>
    </g>
    <g id="text_17">
     <!-- HR (bpm) -->
     <defs>
      <path id="DejaVuSans-32"/>
      <path d="M 31 75.875 
Q 24.46875 64.65625 21.28125 53.65625 
Q 18.109375 42.671875 18.109375 31.390625 
Q 18.109375 20.125 21.3125 9.0625 
Q 24.515625 -2 31 -13.1875 
L 23.1875 -13.1875 
Q 15.875 -1.703125 12.234375 9.375 
Q 8.59375 20.453125 8.59375 31.390625 
Q 8.59375 42.28125 12.203125 53.3125 
Q 15.828125 64.359375 23.1875 75.875 
z
" id="DejaVuSans-40"/>
      <path d="M 48.6875 27.296875 
Q 48.6875 37.203125 44.609375 42.84375 
Q 40.53125 48.484375 33.40625 48.484375 
Q 26.265625 48.484375 22.1875 42.84375 
Q 18.109375 37.203125 18.109375 27.296875 
Q 18.109375 17.390625 22.1875 11.75 
Q 26.265625 6.109375 33.40625 6.109375 
Q 40.53125 6.109375 44.609375 11.75 
Q 48.6875 17.390625 48.6875 27.296875 
z
M 18.109375 46.390625 
Q 20.953125 51.265625 25.265625 53.625 
Q 29.59375 56 35.59375 56 
Q 45.5625 56 51.78125 48.09375 
Q 58.015625 40.1875 58.015625 27.296875 
Q 58.015625 14.40625 51.78125 6.484375 
Q 45.5625 -1.421875 35.59375 -1.421875 
Q 29.59375 -1.421875 25.265625 0.953125 
Q 20.953125 3.328125 18.109375 8.203125 
L 18.109375 0 
L 9.078125 0 
L 9.078125 75.984375 
L 18.109375 75.984375 
z
" id="DejaVuSans-98"/>
      <path d="M 18.109375 8.203125 
L 18.109375 -20.796875 
L 9.078125 -20.796875 
L 9.078125 54.6875 
L 18.109375 54.6875 
L 18.109375 46.390625 
Q 20.953125 51.265625 25.265625 53.625 
Q 29.59375 56 35.59375 56 
Q 45.5625 56 51.78125 48.09375 
Q 58.015625 40.1875 58.015625 27.296875 
Q 58.015625 14.40625 51.78125 6.484375 
Q 45.5625 -1.421875 35.59375 -1.421875 
Q 29.59375 -1.421875 25.265625 0.953125 
Q 20.953125 3.328125 18.109375 8.203125 
z
M 48.6875 27.296875 
Q 48.6875 37.203125 44.609375 42.84375 
Q 40.53125 48.484375 33.40625 48.484375 
Q 26.265625 48.484375 22.1875 42.84375 
Q 18.109375 37.203125 18.109375 27.296875 
Q 18.109375 17.390625 22.1875 11.75 
Q 26.265625 6.109375 33.40625 6.109375 
Q 40.53125 6.109375 44.609375 11.75 
Q 48.6875 17.390625 48.6875 27.296875 
z
" id="DejaVuSans-112"/>
      <path d="M 52 44.1875 
Q 55.375 50.25 60.0625 53.125 
Q 64.75 56 71.09375 56 
Q 79.640625 56 84.28125 50.015625 
Q 88.921875 44.046875 88.921875 33.015625 
L 88.921875 0 
L 79.890625 0 
L 79.890625 32.71875 
Q 79.890625 40.578125 77.09375 44.375 
Q 74.3125 48.1875 68.609375 48.1875 
Q 61.625 48.1875 57.5625 43.546875 
Q 53.515625 38.921875 53.515625 30.90625 
L 53.515625 0 
L 44.484375 0 
L 44.484375 32.71875 
Q 44.484375 40.625 41.703125 44.40625 
Q 38.921875 48.1875 33.109375 48.1875 
Q 26.21875 48.1875 22.15625 43.53125 
Q 18.109375 38.875 18.109375 30.90625 
L 18.109375 0 
L 9.078125 0 
L 9.078125 54.6875 
L 18.109375 54.6875 
L 18.109375 46.1875 
Q 21.1875 51.21875 25.484375 53.609375 
Q 29.78125 56 35.6875 56 
Q 41.65625 56 45.828125 52.96875 
Q 50 49.953125 52 44.1875 
z
" id="DejaVuSans-109"/>
      <path d="M 8.015625 75.875 
L 15.828125 75.875 
Q 23.140625 64.359375 26.78125 53.3125 
Q 30.421875 42.28125 30.421875 31.390625 
Q 30.421875 20.453125 26.78125 9.375 
Q 23.140625 -1.703125 15.828125 -13.1875 
L 8.015625 -13.1875 
Q 14.5 -2 17.703125 9.0625 
Q 20.90625 20.125 20.90625 31.390625 
Q 20.90625 42.671875 17.703125 53.65625 
Q 14.5 64.65625 8.015625 75.875 
z
" id="DejaVuSans-41"/>
     </defs>
     <g transform="translate(278.435937 158.12725)rotate(-90)scale(0.14 -0.14)">
      <use xlink:href="#DejaVuSans-72"/>
      <use x="75.195312" xlink:href="#DejaVuSans-82"/>
      <use x="144.677734" xlink:href="#DejaVuSans-32"/>
      <use x="176.464844" xlink:href="#DejaVuSans-40"/>
      <use x="215.478516" xlink:href="#DejaVuSans-98"/>
      <use x="278.955078" xlink:href="#DejaVuSans-112"/>
      <use x="342.431641" xlink:href="#DejaVuSans-109"/>
      <use x="439.84375" xlink:href="#DejaVuSans-41"/>
     </g>
    </g>
   </g>
   <g id="LineCollection_1">
    <path clip-path="url(#p0bad2a27ad)" d="M 350.569 63.258765 
L 350.569 41.704126 
" style="fill:none;stroke:#000000;"/>
   </g>
   <g id="LineCollection_2">
    <path clip-path="url(#p0bad2a27ad)" d="M 386.914 95.650833 
L 386.914 74.377517 
" style="fill:none;stroke:#000000;"/>
   </g>
   <g id="LineCollection_3">
    <path clip-path="url(#p0bad2a27ad)" d="M 447.489 51.049342 
L 447.489 36.123455 
" style="fill:none;stroke:#000000;"/>
   </g>
   <g id="LineCollection_4">
    <path clip-path="url(#p0bad2a27ad)" d="M 483.834 90.397508 
L 483.834 70.615258 
" style="fill:none;stroke:#000000;"/>
   </g>
   <g id="line2d_25">
    <defs>
     <path d="M 4 0 
L -4 -0 
" id="m9e3db307da" style="stroke:#000000;"/>
    </defs>
    <g clip-path="url(#p0bad2a27ad)">
     <use style="stroke:#000000;" x="350.569" xlink:href="#m9e3db307da" y="63.258765"/>
    </g>
   </g>
   <g id="line2d_26">
    <g clip-path="url(#p0bad2a27ad)">
     <use style="stroke:#000000;" x="350.569" xlink:href="#m9e3db307da" y="41.704126"/>
    </g>
   </g>
   <g id="line2d_27">
    <g clip-path="url(#p0bad2a27ad)">
     <use style="stroke:#000000;" x="386.914" xlink:href="#m9e3db307da" y="95.650833"/>
    </g>
   </g>
   <g id="line2d_28">
    <g clip-path="url(#p0bad2a27ad)">
     <use style="stroke:#000000;" x="386.914" xlink:href="#m9e3db307da" y="74.377517"/>
    </g>
   </g>
   <g id="line2d_29">
    <g clip-path="url(#p0bad2a27ad)">
     <use style="stroke:#000000;" x="447.489" xlink:href="#m9e3db307da" y="51.049342"/>
    </g>
   </g>
   <g id="line2d_30">
    <g clip-path="url(#p0bad2a27ad)">
     <use style="stroke:#000000;" x="447.489" xlink:href="#m9e3db307da" y="36.123455"/>
    </g>
   </g>
   <g id="line2d_31">
    <g clip-path="url(#p0bad2a27ad)">
     <use style="stroke:#000000;" x="483.834" xlink:href="#m9e3db307da" y="90.397508"/>
    </g>
   </g>
   <g id="line2d_32">
    <g clip-path="url(#p0bad2a27ad)">
     <use style="stroke:#000000;" x="483.834" xlink:href="#m9e3db307da" y="70.615258"/>
    </g>
   </g>
   <g id="patch_9">
    <path d="M 319.07 228.284 
L 319.07 20.928 
" style="fill:none;stroke:#000000;stroke-linecap:square;stroke-linejoin:miter;stroke-width:0.8;"/>
   </g>
   <g id="patch_10">
    <path d="M 319.07 228.284 
L 512.91 228.284 
" style="fill:none;stroke:#000000;stroke-linecap:square;stroke-linejoin:miter;stroke-width:0.8;"/>
   </g>
  </g>
  <g id="axes_4">
   <g id="patch_11">
    <path d="M 584.84 228.284 
L 778.68 228.284 
L 778.68 20.928 
L 584.84 20.928 
z
" style="fill:#ffffff;"/>
   </g>
   <g id="patch_12">
    <path clip-path="url(#pb117292385)" d="M 599.378 228.284 
L 633.3 228.284 
L 633.3 91.641004 
L 599.378 91.641004 
z
" style="fill:#cd5c5c;"/>
   </g>
   <g id="patch_13">
    <path clip-path="url(#pb117292385)" d="M 635.723 228.284 
L 669.645 228.284 
L 669.645 52.388974 
L 635.723 52.388974 
z
" style="fill:#191970;"/>
   </g>
   <g id="patch_14">
    <path clip-path="url(#pb117292385)" d="M 696.298 228.284 
L 730.22 228.284 
L 730.22 101.28997 
L 696.298 101.28997 
z
" style="fill:#cd5c5c;"/>
   </g>
   <g id="patch_15">
    <path clip-path="url(#pb117292385)" d="M 732.643 228.284 
L 766.565 228.284 
L 766.565 61.812459 
L 732.643 61.812459 
z
" style="fill:#191970;"/>
   </g>
   <g id="matplotlib.axis_7">
    <g id="xtick_9">
     <g id="line2d_33">
      <g>
       <use style="stroke:#000000;stroke-width:0.8;" x="633.3" xlink:href="#m3d05276afe" y="228.284"/>
      </g>
     </g>
     <g id="text_18">
      <!-- Ctrl -->
      <g transform="translate(620.845469 245.921812)scale(0.14 -0.14)">
       <use xlink:href="#DejaVuSans-67"/>
       <use x="69.824219" xlink:href="#DejaVuSans-116"/>
       <use x="109.033203" xlink:href="#DejaVuSans-114"/>
       <use x="150.146484" xlink:href="#DejaVuSans-108"/>
      </g>
     </g>
    </g>
    <g id="xtick_10">
     <g id="line2d_34">
      <g>
       <use style="stroke:#000000;stroke-width:0.8;" x="730.22" xlink:href="#m3d05276afe" y="228.284"/>
      </g>
     </g>
     <g id="text_19">
      <!-- MEHP -->
      <g transform="translate(710.272187 245.921812)scale(0.14 -0.14)">
       <use xlink:href="#DejaVuSans-77"/>
       <use x="86.279297" xlink:href="#DejaVuSans-69"/>
       <use x="149.462891" xlink:href="#DejaVuSans-72"/>
       <use x="224.658203" xlink:href="#DejaVuSans-80"/>
      </g>
     </g>
    </g>
   </g>
   <g id="matplotlib.axis_8">
    <g id="ytick_13">
     <g id="line2d_35">
      <g>
       <use style="stroke:#000000;stroke-width:0.8;" x="584.84" xlink:href="#m6e98e8d146" y="228.284"/>
      </g>
     </g>
     <g id="text_20">
      <!-- 0 -->
      <g transform="translate(568.9325 233.602906)scale(0.14 -0.14)">
       <use xlink:href="#DejaVuSans-48"/>
      </g>
     </g>
    </g>
    <g id="ytick_14">
     <g id="line2d_36">
      <g>
       <use style="stroke:#000000;stroke-width:0.8;" x="584.84" xlink:href="#m6e98e8d146" y="182.204889"/>
      </g>
     </g>
     <g id="text_21">
      <!-- 100 -->
      <g transform="translate(551.1175 187.523795)scale(0.14 -0.14)">
       <use xlink:href="#DejaVuSans-49"/>
       <use x="63.623047" xlink:href="#DejaVuSans-48"/>
       <use x="127.246094" xlink:href="#DejaVuSans-48"/>
      </g>
     </g>
    </g>
    <g id="ytick_15">
     <g id="line2d_37">
      <g>
       <use style="stroke:#000000;stroke-width:0.8;" x="584.84" xlink:href="#m6e98e8d146" y="136.125778"/>
      </g>
     </g>
     <g id="text_22">
      <!-- 200 -->
      <g transform="translate(551.1175 141.444684)scale(0.14 -0.14)">
       <use xlink:href="#DejaVuSans-50"/>
       <use x="63.623047" xlink:href="#DejaVuSans-48"/>
       <use x="127.246094" xlink:href="#DejaVuSans-48"/>
      </g>
     </g>
    </g>
    <g id="ytick_16">
     <g id="line2d_38">
      <g>
       <use style="stroke:#000000;stroke-width:0.8;" x="584.84" xlink:href="#m6e98e8d146" y="90.046667"/>
      </g>
     </g>
     <g id="text_23">
      <!-- 300 -->
      <defs>
       <path d="M 40.578125 39.3125 
Q 47.65625 37.796875 51.625 33 
Q 55.609375 28.21875 55.609375 21.1875 
Q 55.609375 10.40625 48.1875 4.484375 
Q 40.765625 -1.421875 27.09375 -1.421875 
Q 22.515625 -1.421875 17.65625 -0.515625 
Q 12.796875 0.390625 7.625 2.203125 
L 7.625 11.71875 
Q 11.71875 9.328125 16.59375 8.109375 
Q 21.484375 6.890625 26.8125 6.890625 
Q 36.078125 6.890625 40.9375 10.546875 
Q 45.796875 14.203125 45.796875 21.1875 
Q 45.796875 27.640625 41.28125 31.265625 
Q 36.765625 34.90625 28.71875 34.90625 
L 20.21875 34.90625 
L 20.21875 43.015625 
L 29.109375 43.015625 
Q 36.375 43.015625 40.234375 45.921875 
Q 44.09375 48.828125 44.09375 54.296875 
Q 44.09375 59.90625 40.109375 62.90625 
Q 36.140625 65.921875 28.71875 65.921875 
Q 24.65625 65.921875 20.015625 65.03125 
Q 15.375 64.15625 9.8125 62.3125 
L 9.8125 71.09375 
Q 15.4375 72.65625 20.34375 73.4375 
Q 25.25 74.21875 29.59375 74.21875 
Q 40.828125 74.21875 47.359375 69.109375 
Q 53.90625 64.015625 53.90625 55.328125 
Q 53.90625 49.265625 50.4375 45.09375 
Q 46.96875 40.921875 40.578125 39.3125 
z
" id="DejaVuSans-51"/>
      </defs>
      <g transform="translate(551.1175 95.365573)scale(0.14 -0.14)">
       <use xlink:href="#DejaVuSans-51"/>
       <use x="63.623047" xlink:href="#DejaVuSans-48"/>
       <use x="127.246094" xlink:href="#DejaVuSans-48"/>
      </g>
     </g>
    </g>
    <g id="ytick_17">
     <g id="line2d_39">
      <g>
       <use style="stroke:#000000;stroke-width:0.8;" x="584.84" xlink:href="#m6e98e8d146" y="43.967556"/>
      </g>
     </g>
     <g id="text_24">
      <!-- 400 -->
      <defs>
       <path d="M 37.796875 64.3125 
L 12.890625 25.390625 
L 37.796875 25.390625 
z
M 35.203125 72.90625 
L 47.609375 72.90625 
L 47.609375 25.390625 
L 58.015625 25.390625 
L 58.015625 17.1875 
L 47.609375 17.1875 
L 47.609375 0 
L 37.796875 0 
L 37.796875 17.1875 
L 4.890625 17.1875 
L 4.890625 26.703125 
z
" id="DejaVuSans-52"/>
      </defs>
      <g transform="translate(551.1175 49.286462)scale(0.14 -0.14)">
       <use xlink:href="#DejaVuSans-52"/>
       <use x="63.623047" xlink:href="#DejaVuSans-48"/>
       <use x="127.246094" xlink:href="#DejaVuSans-48"/>
      </g>
     </g>
    </g>
    <g id="text_25">
     <!-- RR (ms) -->
     <defs>
      <path d="M 44.28125 53.078125 
L 44.28125 44.578125 
Q 40.484375 46.53125 36.375 47.5 
Q 32.28125 48.484375 27.875 48.484375 
Q 21.1875 48.484375 17.84375 46.4375 
Q 14.5 44.390625 14.5 40.28125 
Q 14.5 37.15625 16.890625 35.375 
Q 19.28125 33.59375 26.515625 31.984375 
L 29.59375 31.296875 
Q 39.15625 29.25 43.1875 25.515625 
Q 47.21875 21.78125 47.21875 15.09375 
Q 47.21875 7.46875 41.1875 3.015625 
Q 35.15625 -1.421875 24.609375 -1.421875 
Q 20.21875 -1.421875 15.453125 -0.5625 
Q 10.6875 0.296875 5.421875 2 
L 5.421875 11.28125 
Q 10.40625 8.6875 15.234375 7.390625 
Q 20.0625 6.109375 24.8125 6.109375 
Q 31.15625 6.109375 34.5625 8.28125 
Q 37.984375 10.453125 37.984375 14.40625 
Q 37.984375 18.0625 35.515625 20.015625 
Q 33.0625 21.96875 24.703125 23.78125 
L 21.578125 24.515625 
Q 13.234375 26.265625 9.515625 29.90625 
Q 5.8125 33.546875 5.8125 39.890625 
Q 5.8125 47.609375 11.28125 51.796875 
Q 16.75 56 26.8125 56 
Q 31.78125 56 36.171875 55.265625 
Q 40.578125 54.546875 44.28125 53.078125 
z
" id="DejaVuSans-115"/>
     </defs>
     <g transform="translate(544.205938 152.485687)rotate(-90)scale(0.14 -0.14)">
      <use xlink:href="#DejaVuSans-82"/>
      <use x="69.482422" xlink:href="#DejaVuSans-82"/>
      <use x="138.964844" xlink:href="#DejaVuSans-32"/>
      <use x="170.751953" xlink:href="#DejaVuSans-40"/>
      <use x="209.765625" xlink:href="#DejaVuSans-109"/>
      <use x="307.177734" xlink:href="#DejaVuSans-115"/>
      <use x="359.277344" xlink:href="#DejaVuSans-41"/>
     </g>
    </g>
   </g>
   <g id="LineCollection_5">
    <path clip-path="url(#pb117292385)" d="M 616.339 98.874413 
L 616.339 84.407594 
" style="fill:none;stroke:#000000;"/>
   </g>
   <g id="LineCollection_6">
    <path clip-path="url(#pb117292385)" d="M 652.684 67.56452 
L 652.684 37.213427 
" style="fill:none;stroke:#000000;"/>
   </g>
   <g id="LineCollection_7">
    <path clip-path="url(#pb117292385)" d="M 713.259 106.277659 
L 713.259 96.302281 
" style="fill:none;stroke:#000000;"/>
   </g>
   <g id="LineCollection_8">
    <path clip-path="url(#pb117292385)" d="M 749.604 73.766704 
L 749.604 49.858214 
" style="fill:none;stroke:#000000;"/>
   </g>
   <g id="line2d_40">
    <g clip-path="url(#pb117292385)">
     <use style="stroke:#000000;" x="616.339" xlink:href="#m9e3db307da" y="98.874413"/>
    </g>
   </g>
   <g id="line2d_41">
    <g clip-path="url(#pb117292385)">
     <use style="stroke:#000000;" x="616.339" xlink:href="#m9e3db307da" y="84.407594"/>
    </g>
   </g>
   <g id="line2d_42">
    <g clip-path="url(#pb117292385)">
     <use style="stroke:#000000;" x="652.684" xlink:href="#m9e3db307da" y="67.56452"/>
    </g>
   </g>
   <g id="line2d_43">
    <g clip-path="url(#pb117292385)">
     <use style="stroke:#000000;" x="652.684" xlink:href="#m9e3db307da" y="37.213427"/>
    </g>
   </g>
   <g id="line2d_44">
    <g clip-path="url(#pb117292385)">
     <use style="stroke:#000000;" x="713.259" xlink:href="#m9e3db307da" y="106.277659"/>
    </g>
   </g>
   <g id="line2d_45">
    <g clip-path="url(#pb117292385)">
     <use style="stroke:#000000;" x="713.259" xlink:href="#m9e3db307da" y="96.302281"/>
    </g>
   </g>
   <g id="line2d_46">
    <g clip-path="url(#pb117292385)">
     <use style="stroke:#000000;" x="749.604" xlink:href="#m9e3db307da" y="73.766704"/>
    </g>
   </g>
   <g id="line2d_47">
    <g clip-path="url(#pb117292385)">
     <use style="stroke:#000000;" x="749.604" xlink:href="#m9e3db307da" y="49.858214"/>
    </g>
   </g>
   <g id="patch_16">
    <path d="M 584.84 228.284 
L 584.84 20.928 
" style="fill:none;stroke:#000000;stroke-linecap:square;stroke-linejoin:miter;stroke-width:0.8;"/>
   </g>
   <g id="patch_17">
    <path d="M 584.84 228.284 
L 778.68 228.284 
" style="fill:none;stroke:#000000;stroke-linecap:square;stroke-linejoin:miter;stroke-width:0.8;"/>
   </g>
   <g id="legend_1">
    <g id="patch_18">
     <path d="M 683.401875 20.110525 
L 707.401875 20.110525 
L 707.401875 11.710525 
L 683.401875 11.710525 
z
" style="fill:#cd5c5c;"/>
    </g>
    <g id="text_26">
     <!-- Baseline -->
     <defs>
      <path d="M 19.671875 34.8125 
L 19.671875 8.109375 
L 35.5 8.109375 
Q 43.453125 8.109375 47.28125 11.40625 
Q 51.125 14.703125 51.125 21.484375 
Q 51.125 28.328125 47.28125 31.5625 
Q 43.453125 34.8125 35.5 34.8125 
z
M 19.671875 64.796875 
L 19.671875 42.828125 
L 34.28125 42.828125 
Q 41.5 42.828125 45.03125 45.53125 
Q 48.578125 48.25 48.578125 53.8125 
Q 48.578125 59.328125 45.03125 62.0625 
Q 41.5 64.796875 34.28125 64.796875 
z
M 9.8125 72.90625 
L 35.015625 72.90625 
Q 46.296875 72.90625 52.390625 68.21875 
Q 58.5 63.53125 58.5 54.890625 
Q 58.5 48.1875 55.375 44.234375 
Q 52.25 40.28125 46.1875 39.3125 
Q 53.46875 37.75 57.5 32.78125 
Q 61.53125 27.828125 61.53125 20.40625 
Q 61.53125 10.640625 54.890625 5.3125 
Q 48.25 0 35.984375 0 
L 9.8125 0 
z
" id="DejaVuSans-66"/>
      <path d="M 34.28125 27.484375 
Q 23.390625 27.484375 19.1875 25 
Q 14.984375 22.515625 14.984375 16.5 
Q 14.984375 11.71875 18.140625 8.90625 
Q 21.296875 6.109375 26.703125 6.109375 
Q 34.1875 6.109375 38.703125 11.40625 
Q 43.21875 16.703125 43.21875 25.484375 
L 43.21875 27.484375 
z
M 52.203125 31.203125 
L 52.203125 0 
L 43.21875 0 
L 43.21875 8.296875 
Q 40.140625 3.328125 35.546875 0.953125 
Q 30.953125 -1.421875 24.3125 -1.421875 
Q 15.921875 -1.421875 10.953125 3.296875 
Q 6 8.015625 6 15.921875 
Q 6 25.140625 12.171875 29.828125 
Q 18.359375 34.515625 30.609375 34.515625 
L 43.21875 34.515625 
L 43.21875 35.40625 
Q 43.21875 41.609375 39.140625 45 
Q 35.0625 48.390625 27.6875 48.390625 
Q 23 48.390625 18.546875 47.265625 
Q 14.109375 46.140625 10.015625 43.890625 
L 10.015625 52.203125 
Q 14.9375 54.109375 19.578125 55.046875 
Q 24.21875 56 28.609375 56 
Q 40.484375 56 46.34375 49.84375 
Q 52.203125 43.703125 52.203125 31.203125 
z
" id="DejaVuSans-97"/>
      <path d="M 56.203125 29.59375 
L 56.203125 25.203125 
L 14.890625 25.203125 
Q 15.484375 15.921875 20.484375 11.0625 
Q 25.484375 6.203125 34.421875 6.203125 
Q 39.59375 6.203125 44.453125 7.46875 
Q 49.3125 8.734375 54.109375 11.28125 
L 54.109375 2.78125 
Q 49.265625 0.734375 44.1875 -0.34375 
Q 39.109375 -1.421875 33.890625 -1.421875 
Q 20.796875 -1.421875 13.15625 6.1875 
Q 5.515625 13.8125 5.515625 26.8125 
Q 5.515625 40.234375 12.765625 48.109375 
Q 20.015625 56 32.328125 56 
Q 43.359375 56 49.78125 48.890625 
Q 56.203125 41.796875 56.203125 29.59375 
z
M 47.21875 32.234375 
Q 47.125 39.59375 43.09375 43.984375 
Q 39.0625 48.390625 32.421875 48.390625 
Q 24.90625 48.390625 20.390625 44.140625 
Q 15.875 39.890625 15.1875 32.171875 
z
" id="DejaVuSans-101"/>
      <path d="M 9.421875 54.6875 
L 18.40625 54.6875 
L 18.40625 0 
L 9.421875 0 
z
M 9.421875 75.984375 
L 18.40625 75.984375 
L 18.40625 64.59375 
L 9.421875 64.59375 
z
" id="DejaVuSans-105"/>
      <path d="M 54.890625 33.015625 
L 54.890625 0 
L 45.90625 0 
L 45.90625 32.71875 
Q 45.90625 40.484375 42.875 44.328125 
Q 39.84375 48.1875 33.796875 48.1875 
Q 26.515625 48.1875 22.3125 43.546875 
Q 18.109375 38.921875 18.109375 30.90625 
L 18.109375 0 
L 9.078125 0 
L 9.078125 54.6875 
L 18.109375 54.6875 
L 18.109375 46.1875 
Q 21.34375 51.125 25.703125 53.5625 
Q 30.078125 56 35.796875 56 
Q 45.21875 56 50.046875 50.171875 
Q 54.890625 44.34375 54.890625 33.015625 
z
" id="DejaVuSans-110"/>
     </defs>
     <g transform="translate(717.001875 20.110525)scale(0.12 -0.12)">
      <use xlink:href="#DejaVuSans-66"/>
      <use x="68.603516" xlink:href="#DejaVuSans-97"/>
      <use x="129.882812" xlink:href="#DejaVuSans-115"/>
      <use x="181.982422" xlink:href="#DejaVuSans-101"/>
      <use x="243.505859" xlink:href="#DejaVuSans-108"/>
      <use x="271.289062" xlink:href="#DejaVuSans-105"/>
      <use x="299.072266" xlink:href="#DejaVuSans-110"/>
      <use x="362.451172" xlink:href="#DejaVuSans-101"/>
     </g>
    </g>
    <g id="patch_19">
     <path d="M 683.401875 37.724275 
L 707.401875 37.724275 
L 707.401875 29.324275 
L 683.401875 29.324275 
z
" style="fill:#191970;"/>
    </g>
    <g id="text_27">
     <!-- 30 min -->
     <g transform="translate(717.001875 37.724275)scale(0.12 -0.12)">
      <use xlink:href="#DejaVuSans-51"/>
      <use x="63.623047" xlink:href="#DejaVuSans-48"/>
      <use x="127.246094" xlink:href="#DejaVuSans-32"/>
      <use x="159.033203" xlink:href="#DejaVuSans-109"/>
      <use x="256.445312" xlink:href="#DejaVuSans-105"/>
      <use x="284.228516" xlink:href="#DejaVuSans-110"/>
     </g>
    </g>
   </g>
  </g>
  <g id="axes_5">
   <g id="patch_20">
    <path d="M 53.3 472.52 
L 247.14 472.52 
L 247.14 265.164 
L 53.3 265.164 
z
" style="fill:#ffffff;"/>
   </g>
   <g id="patch_21">
    <path clip-path="url(#p4b20a46c5e)" d="M 67.838 472.52 
L 101.76 472.52 
L 101.76 361.221667 
L 67.838 361.221667 
z
" style="fill:#cd5c5c;"/>
   </g>
   <g id="patch_22">
    <path clip-path="url(#p4b20a46c5e)" d="M 104.183 472.52 
L 138.105 472.52 
L 138.105 349.758768 
L 104.183 349.758768 
z
" style="fill:#191970;"/>
   </g>
   <g id="patch_23">
    <path clip-path="url(#p4b20a46c5e)" d="M 164.758 472.52 
L 198.68 472.52 
L 198.68 365.512784 
L 164.758 365.512784 
z
" style="fill:#cd5c5c;"/>
   </g>
   <g id="patch_24">
    <path clip-path="url(#p4b20a46c5e)" d="M 201.103 472.52 
L 235.025 472.52 
L 235.025 319.289676 
L 201.103 319.289676 
z
" style="fill:#191970;"/>
   </g>
   <g id="matplotlib.axis_9">
    <g id="xtick_11">
     <g id="line2d_48">
      <g>
       <use style="stroke:#000000;stroke-width:0.8;" x="101.76" xlink:href="#m3d05276afe" y="472.52"/>
      </g>
     </g>
     <g id="text_28">
      <!-- Ctrl -->
      <g transform="translate(89.305469 490.157813)scale(0.14 -0.14)">
       <use xlink:href="#DejaVuSans-67"/>
       <use x="69.824219" xlink:href="#DejaVuSans-116"/>
       <use x="109.033203" xlink:href="#DejaVuSans-114"/>
       <use x="150.146484" xlink:href="#DejaVuSans-108"/>
      </g>
     </g>
    </g>
    <g id="xtick_12">
     <g id="line2d_49">
      <g>
       <use style="stroke:#000000;stroke-width:0.8;" x="198.68" xlink:href="#m3d05276afe" y="472.52"/>
      </g>
     </g>
     <g id="text_29">
      <!-- MEHP -->
      <g transform="translate(178.732187 490.157813)scale(0.14 -0.14)">
       <use xlink:href="#DejaVuSans-77"/>
       <use x="86.279297" xlink:href="#DejaVuSans-69"/>
       <use x="149.462891" xlink:href="#DejaVuSans-72"/>
       <use x="224.658203" xlink:href="#DejaVuSans-80"/>
      </g>
     </g>
    </g>
   </g>
   <g id="matplotlib.axis_10">
    <g id="ytick_18">
     <g id="line2d_50">
      <g>
       <use style="stroke:#000000;stroke-width:0.8;" x="53.3" xlink:href="#m6e98e8d146" y="472.52"/>
      </g>
     </g>
     <g id="text_30">
      <!-- 0 -->
      <g transform="translate(37.3925 477.838906)scale(0.14 -0.14)">
       <use xlink:href="#DejaVuSans-48"/>
      </g>
     </g>
    </g>
    <g id="ytick_19">
     <g id="line2d_51">
      <g>
       <use style="stroke:#000000;stroke-width:0.8;" x="53.3" xlink:href="#m6e98e8d146" y="420.681"/>
      </g>
     </g>
     <g id="text_31">
      <!-- 20 -->
      <g transform="translate(28.485 425.999906)scale(0.14 -0.14)">
       <use xlink:href="#DejaVuSans-50"/>
       <use x="63.623047" xlink:href="#DejaVuSans-48"/>
      </g>
     </g>
    </g>
    <g id="ytick_20">
     <g id="line2d_52">
      <g>
       <use style="stroke:#000000;stroke-width:0.8;" x="53.3" xlink:href="#m6e98e8d146" y="368.842"/>
      </g>
     </g>
     <g id="text_32">
      <!-- 40 -->
      <g transform="translate(28.485 374.160906)scale(0.14 -0.14)">
       <use xlink:href="#DejaVuSans-52"/>
       <use x="63.623047" xlink:href="#DejaVuSans-48"/>
      </g>
     </g>
    </g>
    <g id="ytick_21">
     <g id="line2d_53">
      <g>
       <use style="stroke:#000000;stroke-width:0.8;" x="53.3" xlink:href="#m6e98e8d146" y="317.003"/>
      </g>
     </g>
     <g id="text_33">
      <!-- 60 -->
      <defs>
       <path d="M 33.015625 40.375 
Q 26.375 40.375 22.484375 35.828125 
Q 18.609375 31.296875 18.609375 23.390625 
Q 18.609375 15.53125 22.484375 10.953125 
Q 26.375 6.390625 33.015625 6.390625 
Q 39.65625 6.390625 43.53125 10.953125 
Q 47.40625 15.53125 47.40625 23.390625 
Q 47.40625 31.296875 43.53125 35.828125 
Q 39.65625 40.375 33.015625 40.375 
z
M 52.59375 71.296875 
L 52.59375 62.3125 
Q 48.875 64.0625 45.09375 64.984375 
Q 41.3125 65.921875 37.59375 65.921875 
Q 27.828125 65.921875 22.671875 59.328125 
Q 17.53125 52.734375 16.796875 39.40625 
Q 19.671875 43.65625 24.015625 45.921875 
Q 28.375 48.1875 33.59375 48.1875 
Q 44.578125 48.1875 50.953125 41.515625 
Q 57.328125 34.859375 57.328125 23.390625 
Q 57.328125 12.15625 50.6875 5.359375 
Q 44.046875 -1.421875 33.015625 -1.421875 
Q 20.359375 -1.421875 13.671875 8.265625 
Q 6.984375 17.96875 6.984375 36.375 
Q 6.984375 53.65625 15.1875 63.9375 
Q 23.390625 74.21875 37.203125 74.21875 
Q 40.921875 74.21875 44.703125 73.484375 
Q 48.484375 72.75 52.59375 71.296875 
z
" id="DejaVuSans-54"/>
      </defs>
      <g transform="translate(28.485 322.321906)scale(0.14 -0.14)">
       <use xlink:href="#DejaVuSans-54"/>
       <use x="63.623047" xlink:href="#DejaVuSans-48"/>
      </g>
     </g>
    </g>
    <g id="ytick_22">
     <g id="line2d_54">
      <g>
       <use style="stroke:#000000;stroke-width:0.8;" x="53.3" xlink:href="#m6e98e8d146" y="265.164"/>
      </g>
     </g>
     <g id="text_34">
      <!-- 80 -->
      <defs>
       <path d="M 31.78125 34.625 
Q 24.75 34.625 20.71875 30.859375 
Q 16.703125 27.09375 16.703125 20.515625 
Q 16.703125 13.921875 20.71875 10.15625 
Q 24.75 6.390625 31.78125 6.390625 
Q 38.8125 6.390625 42.859375 10.171875 
Q 46.921875 13.96875 46.921875 20.515625 
Q 46.921875 27.09375 42.890625 30.859375 
Q 38.875 34.625 31.78125 34.625 
z
M 21.921875 38.8125 
Q 15.578125 40.375 12.03125 44.71875 
Q 8.5 49.078125 8.5 55.328125 
Q 8.5 64.0625 14.71875 69.140625 
Q 20.953125 74.21875 31.78125 74.21875 
Q 42.671875 74.21875 48.875 69.140625 
Q 55.078125 64.0625 55.078125 55.328125 
Q 55.078125 49.078125 51.53125 44.71875 
Q 48 40.375 41.703125 38.8125 
Q 48.828125 37.15625 52.796875 32.3125 
Q 56.78125 27.484375 56.78125 20.515625 
Q 56.78125 9.90625 50.3125 4.234375 
Q 43.84375 -1.421875 31.78125 -1.421875 
Q 19.734375 -1.421875 13.25 4.234375 
Q 6.78125 9.90625 6.78125 20.515625 
Q 6.78125 27.484375 10.78125 32.3125 
Q 14.796875 37.15625 21.921875 38.8125 
z
M 18.3125 54.390625 
Q 18.3125 48.734375 21.84375 45.5625 
Q 25.390625 42.390625 31.78125 42.390625 
Q 38.140625 42.390625 41.71875 45.5625 
Q 45.3125 48.734375 45.3125 54.390625 
Q 45.3125 60.0625 41.71875 63.234375 
Q 38.140625 66.40625 31.78125 66.40625 
Q 25.390625 66.40625 21.84375 63.234375 
Q 18.3125 60.0625 18.3125 54.390625 
z
" id="DejaVuSans-56"/>
      </defs>
      <g transform="translate(28.485 270.482906)scale(0.14 -0.14)">
       <use xlink:href="#DejaVuSans-56"/>
       <use x="63.623047" xlink:href="#DejaVuSans-48"/>
      </g>
     </g>
    </g>
    <g id="text_35">
     <!-- PR (ms) -->
     <g transform="translate(21.573438 396.078562)rotate(-90)scale(0.14 -0.14)">
      <use xlink:href="#DejaVuSans-80"/>
      <use x="60.302734" xlink:href="#DejaVuSans-82"/>
      <use x="129.785156" xlink:href="#DejaVuSans-32"/>
      <use x="161.572266" xlink:href="#DejaVuSans-40"/>
      <use x="200.585938" xlink:href="#DejaVuSans-109"/>
      <use x="297.998047" xlink:href="#DejaVuSans-115"/>
      <use x="350.097656" xlink:href="#DejaVuSans-41"/>
     </g>
    </g>
   </g>
   <g id="LineCollection_9">
    <path clip-path="url(#p4b20a46c5e)" d="M 84.799 371.463013 
L 84.799 350.980321 
" style="fill:none;stroke:#000000;"/>
   </g>
   <g id="LineCollection_10">
    <path clip-path="url(#p4b20a46c5e)" d="M 121.144 357.112583 
L 121.144 342.404953 
" style="fill:none;stroke:#000000;"/>
   </g>
   <g id="LineCollection_11">
    <path clip-path="url(#p4b20a46c5e)" d="M 181.719 371.576689 
L 181.719 359.448879 
" style="fill:none;stroke:#000000;"/>
   </g>
   <g id="LineCollection_12">
    <path clip-path="url(#p4b20a46c5e)" d="M 218.064 334.520707 
L 218.064 304.058645 
" style="fill:none;stroke:#000000;"/>
   </g>
   <g id="line2d_55">
    <g clip-path="url(#p4b20a46c5e)">
     <use style="stroke:#000000;" x="84.799" xlink:href="#m9e3db307da" y="371.463013"/>
    </g>
   </g>
   <g id="line2d_56">
    <g clip-path="url(#p4b20a46c5e)">
     <use style="stroke:#000000;" x="84.799" xlink:href="#m9e3db307da" y="350.980321"/>
    </g>
   </g>
   <g id="line2d_57">
    <g clip-path="url(#p4b20a46c5e)">
     <use style="stroke:#000000;" x="121.144" xlink:href="#m9e3db307da" y="357.112583"/>
    </g>
   </g>
   <g id="line2d_58">
    <g clip-path="url(#p4b20a46c5e)">
     <use style="stroke:#000000;" x="121.144" xlink:href="#m9e3db307da" y="342.404953"/>
    </g>
   </g>
   <g id="line2d_59">
    <g clip-path="url(#p4b20a46c5e)">
     <use style="stroke:#000000;" x="181.719" xlink:href="#m9e3db307da" y="371.576689"/>
    </g>
   </g>
   <g id="line2d_60">
    <g clip-path="url(#p4b20a46c5e)">
     <use style="stroke:#000000;" x="181.719" xlink:href="#m9e3db307da" y="359.448879"/>
    </g>
   </g>
   <g id="line2d_61">
    <g clip-path="url(#p4b20a46c5e)">
     <use style="stroke:#000000;" x="218.064" xlink:href="#m9e3db307da" y="334.520707"/>
    </g>
   </g>
   <g id="line2d_62">
    <g clip-path="url(#p4b20a46c5e)">
     <use style="stroke:#000000;" x="218.064" xlink:href="#m9e3db307da" y="304.058645"/>
    </g>
   </g>
   <g id="line2d_63">
    <path clip-path="url(#p4b20a46c5e)" d="M 121.144 296.2674 
L 218.064 296.2674 
" style="fill:none;stroke:#000000;stroke-linecap:square;stroke-width:2;"/>
   </g>
   <g id="line2d_64">
    <path clip-path="url(#p4b20a46c5e)" d="M 181.719 283.30765 
L 218.064 283.30765 
" style="fill:none;stroke:#000000;stroke-linecap:square;stroke-width:2;"/>
   </g>
   <g id="patch_25">
    <path d="M 53.3 472.52 
L 53.3 265.164 
" style="fill:none;stroke:#000000;stroke-linecap:square;stroke-linejoin:miter;stroke-width:0.8;"/>
   </g>
   <g id="patch_26">
    <path d="M 53.3 472.52 
L 247.14 472.52 
" style="fill:none;stroke:#000000;stroke-linecap:square;stroke-linejoin:miter;stroke-width:0.8;"/>
   </g>
   <g id="text_36">
    <!-- * -->
    <defs>
     <path d="M 47.015625 60.890625 
L 29.5 51.421875 
L 47.015625 41.890625 
L 44.1875 37.109375 
L 27.78125 47.015625 
L 27.78125 28.609375 
L 22.21875 28.609375 
L 22.21875 47.015625 
L 5.8125 37.109375 
L 2.984375 41.890625 
L 20.515625 51.421875 
L 2.984375 60.890625 
L 5.8125 65.71875 
L 22.21875 55.8125 
L 22.21875 74.21875 
L 27.78125 74.21875 
L 27.78125 55.8125 
L 44.1875 65.71875 
z
" id="DejaVuSans-42"/>
    </defs>
    <g transform="translate(194.68 279.9468)scale(0.16 -0.16)">
     <use xlink:href="#DejaVuSans-42"/>
    </g>
   </g>
  </g>
  <g id="axes_6">
   <g id="patch_27">
    <path d="M 319.07 472.52 
L 512.91 472.52 
L 512.91 265.164 
L 319.07 265.164 
z
" style="fill:#ffffff;"/>
   </g>
   <g id="patch_28">
    <path clip-path="url(#p0cebadfa86)" d="M 333.608 472.52 
L 367.53 472.52 
L 367.53 304.067935 
L 333.608 304.067935 
z
" style="fill:#cd5c5c;"/>
   </g>
   <g id="patch_29">
    <path clip-path="url(#p0cebadfa86)" d="M 369.953 472.52 
L 403.875 472.52 
L 403.875 304.838115 
L 369.953 304.838115 
z
" style="fill:#191970;"/>
   </g>
   <g id="patch_30">
    <path clip-path="url(#p0cebadfa86)" d="M 430.528 472.52 
L 464.45 472.52 
L 464.45 317.264115 
L 430.528 317.264115 
z
" style="fill:#cd5c5c;"/>
   </g>
   <g id="patch_31">
    <path clip-path="url(#p0cebadfa86)" d="M 466.873 472.52 
L 500.795 472.52 
L 500.795 283.196292 
L 466.873 283.196292 
z
" style="fill:#191970;"/>
   </g>
   <g id="matplotlib.axis_11">
    <g id="xtick_13">
     <g id="line2d_65">
      <g>
       <use style="stroke:#000000;stroke-width:0.8;" x="367.53" xlink:href="#m3d05276afe" y="472.52"/>
      </g>
     </g>
     <g id="text_37">
      <!-- Ctrl -->
      <g transform="translate(355.075469 490.157813)scale(0.14 -0.14)">
       <use xlink:href="#DejaVuSans-67"/>
       <use x="69.824219" xlink:href="#DejaVuSans-116"/>
       <use x="109.033203" xlink:href="#DejaVuSans-114"/>
       <use x="150.146484" xlink:href="#DejaVuSans-108"/>
      </g>
     </g>
    </g>
    <g id="xtick_14">
     <g id="line2d_66">
      <g>
       <use style="stroke:#000000;stroke-width:0.8;" x="464.45" xlink:href="#m3d05276afe" y="472.52"/>
      </g>
     </g>
     <g id="text_38">
      <!-- MEHP -->
      <g transform="translate(444.502187 490.157813)scale(0.14 -0.14)">
       <use xlink:href="#DejaVuSans-77"/>
       <use x="86.279297" xlink:href="#DejaVuSans-69"/>
       <use x="149.462891" xlink:href="#DejaVuSans-72"/>
       <use x="224.658203" xlink:href="#DejaVuSans-80"/>
      </g>
     </g>
    </g>
   </g>
   <g id="matplotlib.axis_12">
    <g id="ytick_23">
     <g id="line2d_67">
      <g>
       <use style="stroke:#000000;stroke-width:0.8;" x="319.07" xlink:href="#m6e98e8d146" y="472.52"/>
      </g>
     </g>
     <g id="text_39">
      <!-- 0 -->
      <g transform="translate(303.1625 477.838906)scale(0.14 -0.14)">
       <use xlink:href="#DejaVuSans-48"/>
      </g>
     </g>
    </g>
    <g id="ytick_24">
     <g id="line2d_68">
      <g>
       <use style="stroke:#000000;stroke-width:0.8;" x="319.07" xlink:href="#m6e98e8d146" y="437.960667"/>
      </g>
     </g>
     <g id="text_40">
      <!-- 5 -->
      <g transform="translate(303.1625 443.279573)scale(0.14 -0.14)">
       <use xlink:href="#DejaVuSans-53"/>
      </g>
     </g>
    </g>
    <g id="ytick_25">
     <g id="line2d_69">
      <g>
       <use style="stroke:#000000;stroke-width:0.8;" x="319.07" xlink:href="#m6e98e8d146" y="403.401333"/>
      </g>
     </g>
     <g id="text_41">
      <!-- 10 -->
      <g transform="translate(294.255 408.72024)scale(0.14 -0.14)">
       <use xlink:href="#DejaVuSans-49"/>
       <use x="63.623047" xlink:href="#DejaVuSans-48"/>
      </g>
     </g>
    </g>
    <g id="ytick_26">
     <g id="line2d_70">
      <g>
       <use style="stroke:#000000;stroke-width:0.8;" x="319.07" xlink:href="#m6e98e8d146" y="368.842"/>
      </g>
     </g>
     <g id="text_42">
      <!-- 15 -->
      <g transform="translate(294.255 374.160906)scale(0.14 -0.14)">
       <use xlink:href="#DejaVuSans-49"/>
       <use x="63.623047" xlink:href="#DejaVuSans-53"/>
      </g>
     </g>
    </g>
    <g id="ytick_27">
     <g id="line2d_71">
      <g>
       <use style="stroke:#000000;stroke-width:0.8;" x="319.07" xlink:href="#m6e98e8d146" y="334.282667"/>
      </g>
     </g>
     <g id="text_43">
      <!-- 20 -->
      <g transform="translate(294.255 339.601573)scale(0.14 -0.14)">
       <use xlink:href="#DejaVuSans-50"/>
       <use x="63.623047" xlink:href="#DejaVuSans-48"/>
      </g>
     </g>
    </g>
    <g id="ytick_28">
     <g id="line2d_72">
      <g>
       <use style="stroke:#000000;stroke-width:0.8;" x="319.07" xlink:href="#m6e98e8d146" y="299.723333"/>
      </g>
     </g>
     <g id="text_44">
      <!-- 25 -->
      <g transform="translate(294.255 305.04224)scale(0.14 -0.14)">
       <use xlink:href="#DejaVuSans-50"/>
       <use x="63.623047" xlink:href="#DejaVuSans-53"/>
      </g>
     </g>
    </g>
    <g id="ytick_29">
     <g id="line2d_73">
      <g>
       <use style="stroke:#000000;stroke-width:0.8;" x="319.07" xlink:href="#m6e98e8d146" y="265.164"/>
      </g>
     </g>
     <g id="text_45">
      <!-- 30 -->
      <g transform="translate(294.255 270.482906)scale(0.14 -0.14)">
       <use xlink:href="#DejaVuSans-51"/>
       <use x="63.623047" xlink:href="#DejaVuSans-48"/>
      </g>
     </g>
    </g>
    <g id="text_46">
     <!-- QRS Width (ms) -->
     <defs>
      <path d="M 39.40625 66.21875 
Q 28.65625 66.21875 22.328125 58.203125 
Q 16.015625 50.203125 16.015625 36.375 
Q 16.015625 22.609375 22.328125 14.59375 
Q 28.65625 6.59375 39.40625 6.59375 
Q 50.140625 6.59375 56.421875 14.59375 
Q 62.703125 22.609375 62.703125 36.375 
Q 62.703125 50.203125 56.421875 58.203125 
Q 50.140625 66.21875 39.40625 66.21875 
z
M 53.21875 1.3125 
L 66.21875 -12.890625 
L 54.296875 -12.890625 
L 43.5 -1.21875 
Q 41.890625 -1.3125 41.03125 -1.359375 
Q 40.1875 -1.421875 39.40625 -1.421875 
Q 24.03125 -1.421875 14.8125 8.859375 
Q 5.609375 19.140625 5.609375 36.375 
Q 5.609375 53.65625 14.8125 63.9375 
Q 24.03125 74.21875 39.40625 74.21875 
Q 54.734375 74.21875 63.90625 63.9375 
Q 73.09375 53.65625 73.09375 36.375 
Q 73.09375 23.6875 67.984375 14.640625 
Q 62.890625 5.609375 53.21875 1.3125 
z
" id="DejaVuSans-81"/>
      <path d="M 53.515625 70.515625 
L 53.515625 60.890625 
Q 47.90625 63.578125 42.921875 64.890625 
Q 37.9375 66.21875 33.296875 66.21875 
Q 25.25 66.21875 20.875 63.09375 
Q 16.5 59.96875 16.5 54.203125 
Q 16.5 49.359375 19.40625 46.890625 
Q 22.3125 44.4375 30.421875 42.921875 
L 36.375 41.703125 
Q 47.40625 39.59375 52.65625 34.296875 
Q 57.90625 29 57.90625 20.125 
Q 57.90625 9.515625 50.796875 4.046875 
Q 43.703125 -1.421875 29.984375 -1.421875 
Q 24.8125 -1.421875 18.96875 -0.25 
Q 13.140625 0.921875 6.890625 3.21875 
L 6.890625 13.375 
Q 12.890625 10.015625 18.65625 8.296875 
Q 24.421875 6.59375 29.984375 6.59375 
Q 38.421875 6.59375 43.015625 9.90625 
Q 47.609375 13.234375 47.609375 19.390625 
Q 47.609375 24.75 44.3125 27.78125 
Q 41.015625 30.8125 33.5 32.328125 
L 27.484375 33.5 
Q 16.453125 35.6875 11.515625 40.375 
Q 6.59375 45.0625 6.59375 53.421875 
Q 6.59375 63.09375 13.40625 68.65625 
Q 20.21875 74.21875 32.171875 74.21875 
Q 37.3125 74.21875 42.625 73.28125 
Q 47.953125 72.359375 53.515625 70.515625 
z
" id="DejaVuSans-83"/>
      <path d="M 3.328125 72.90625 
L 13.28125 72.90625 
L 28.609375 11.28125 
L 43.890625 72.90625 
L 54.984375 72.90625 
L 70.3125 11.28125 
L 85.59375 72.90625 
L 95.609375 72.90625 
L 77.296875 0 
L 64.890625 0 
L 49.515625 63.28125 
L 33.984375 0 
L 21.578125 0 
z
" id="DejaVuSans-87"/>
      <path d="M 45.40625 46.390625 
L 45.40625 75.984375 
L 54.390625 75.984375 
L 54.390625 0 
L 45.40625 0 
L 45.40625 8.203125 
Q 42.578125 3.328125 38.25 0.953125 
Q 33.9375 -1.421875 27.875 -1.421875 
Q 17.96875 -1.421875 11.734375 6.484375 
Q 5.515625 14.40625 5.515625 27.296875 
Q 5.515625 40.1875 11.734375 48.09375 
Q 17.96875 56 27.875 56 
Q 33.9375 56 38.25 53.625 
Q 42.578125 51.265625 45.40625 46.390625 
z
M 14.796875 27.296875 
Q 14.796875 17.390625 18.875 11.75 
Q 22.953125 6.109375 30.078125 6.109375 
Q 37.203125 6.109375 41.296875 11.75 
Q 45.40625 17.390625 45.40625 27.296875 
Q 45.40625 37.203125 41.296875 42.84375 
Q 37.203125 48.484375 30.078125 48.484375 
Q 22.953125 48.484375 18.875 42.84375 
Q 14.796875 37.203125 14.796875 27.296875 
z
" id="DejaVuSans-100"/>
      <path d="M 54.890625 33.015625 
L 54.890625 0 
L 45.90625 0 
L 45.90625 32.71875 
Q 45.90625 40.484375 42.875 44.328125 
Q 39.84375 48.1875 33.796875 48.1875 
Q 26.515625 48.1875 22.3125 43.546875 
Q 18.109375 38.921875 18.109375 30.90625 
L 18.109375 0 
L 9.078125 0 
L 9.078125 75.984375 
L 18.109375 75.984375 
L 18.109375 46.1875 
Q 21.34375 51.125 25.703125 53.5625 
Q 30.078125 56 35.796875 56 
Q 45.21875 56 50.046875 50.171875 
Q 54.890625 44.34375 54.890625 33.015625 
z
" id="DejaVuSans-104"/>
     </defs>
     <g transform="translate(287.343437 424.524812)rotate(-90)scale(0.14 -0.14)">
      <use xlink:href="#DejaVuSans-81"/>
      <use x="78.710938" xlink:href="#DejaVuSans-82"/>
      <use x="148.193359" xlink:href="#DejaVuSans-83"/>
      <use x="211.669922" xlink:href="#DejaVuSans-32"/>
      <use x="243.457031" xlink:href="#DejaVuSans-87"/>
      <use x="342.302734" xlink:href="#DejaVuSans-105"/>
      <use x="370.085938" xlink:href="#DejaVuSans-100"/>
      <use x="433.5625" xlink:href="#DejaVuSans-116"/>
      <use x="472.771484" xlink:href="#DejaVuSans-104"/>
      <use x="536.150391" xlink:href="#DejaVuSans-32"/>
      <use x="567.9375" xlink:href="#DejaVuSans-40"/>
      <use x="606.951172" xlink:href="#DejaVuSans-109"/>
      <use x="704.363281" xlink:href="#DejaVuSans-115"/>
      <use x="756.462891" xlink:href="#DejaVuSans-41"/>
     </g>
    </g>
   </g>
   <g id="LineCollection_13">
    <path clip-path="url(#p0cebadfa86)" d="M 350.569 315.241605 
L 350.569 292.894266 
" style="fill:none;stroke:#000000;"/>
   </g>
   <g id="LineCollection_14">
    <path clip-path="url(#p0cebadfa86)" d="M 386.914 313.237831 
L 386.914 296.438399 
" style="fill:none;stroke:#000000;"/>
   </g>
   <g id="LineCollection_15">
    <path clip-path="url(#p0cebadfa86)" d="M 447.489 323.573143 
L 447.489 310.955087 
" style="fill:none;stroke:#000000;"/>
   </g>
   <g id="LineCollection_16">
    <path clip-path="url(#p0cebadfa86)" d="M 483.834 295.688104 
L 483.834 270.70448 
" style="fill:none;stroke:#000000;"/>
   </g>
   <g id="line2d_74">
    <g clip-path="url(#p0cebadfa86)">
     <use style="stroke:#000000;" x="350.569" xlink:href="#m9e3db307da" y="315.241605"/>
    </g>
   </g>
   <g id="line2d_75">
    <g clip-path="url(#p0cebadfa86)">
     <use style="stroke:#000000;" x="350.569" xlink:href="#m9e3db307da" y="292.894266"/>
    </g>
   </g>
   <g id="line2d_76">
    <g clip-path="url(#p0cebadfa86)">
     <use style="stroke:#000000;" x="386.914" xlink:href="#m9e3db307da" y="313.237831"/>
    </g>
   </g>
   <g id="line2d_77">
    <g clip-path="url(#p0cebadfa86)">
     <use style="stroke:#000000;" x="386.914" xlink:href="#m9e3db307da" y="296.438399"/>
    </g>
   </g>
   <g id="line2d_78">
    <g clip-path="url(#p0cebadfa86)">
     <use style="stroke:#000000;" x="447.489" xlink:href="#m9e3db307da" y="323.573143"/>
    </g>
   </g>
   <g id="line2d_79">
    <g clip-path="url(#p0cebadfa86)">
     <use style="stroke:#000000;" x="447.489" xlink:href="#m9e3db307da" y="310.955087"/>
    </g>
   </g>
   <g id="line2d_80">
    <g clip-path="url(#p0cebadfa86)">
     <use style="stroke:#000000;" x="483.834" xlink:href="#m9e3db307da" y="295.688104"/>
    </g>
   </g>
   <g id="line2d_81">
    <g clip-path="url(#p0cebadfa86)">
     <use style="stroke:#000000;" x="483.834" xlink:href="#m9e3db307da" y="270.70448"/>
    </g>
   </g>
   <g id="patch_32">
    <path d="M 319.07 472.52 
L 319.07 265.164 
" style="fill:none;stroke:#000000;stroke-linecap:square;stroke-linejoin:miter;stroke-width:0.8;"/>
   </g>
   <g id="patch_33">
    <path d="M 319.07 472.52 
L 512.91 472.52 
" style="fill:none;stroke:#000000;stroke-linecap:square;stroke-linejoin:miter;stroke-width:0.8;"/>
   </g>
  </g>
  <g id="axes_7">
   <g id="patch_34">
    <path d="M 584.84 472.52 
L 778.68 472.52 
L 778.68 265.164 
L 584.84 265.164 
z
" style="fill:#ffffff;"/>
   </g>
   <g id="patch_35">
    <path clip-path="url(#p23dc837dc9)" d="M 599.378 472.52 
L 633.3 472.52 
L 633.3 348.511689 
L 599.378 348.511689 
z
" style="fill:#cd5c5c;"/>
   </g>
   <g id="patch_36">
    <path clip-path="url(#p23dc837dc9)" d="M 635.723 472.52 
L 669.645 472.52 
L 669.645 317.124604 
L 635.723 317.124604 
z
" style="fill:#191970;"/>
   </g>
   <g id="patch_37">
    <path clip-path="url(#p23dc837dc9)" d="M 696.298 472.52 
L 730.22 472.52 
L 730.22 340.633281 
L 696.298 340.633281 
z
" style="fill:#cd5c5c;"/>
   </g>
   <g id="patch_38">
    <path clip-path="url(#p23dc837dc9)" d="M 732.643 472.52 
L 766.565 472.52 
L 766.565 313.921447 
L 732.643 313.921447 
z
" style="fill:#191970;"/>
   </g>
   <g id="matplotlib.axis_13">
    <g id="xtick_15">
     <g id="line2d_82">
      <g>
       <use style="stroke:#000000;stroke-width:0.8;" x="633.3" xlink:href="#m3d05276afe" y="472.52"/>
      </g>
     </g>
     <g id="text_47">
      <!-- Ctrl -->
      <g transform="translate(620.845469 490.157813)scale(0.14 -0.14)">
       <use xlink:href="#DejaVuSans-67"/>
       <use x="69.824219" xlink:href="#DejaVuSans-116"/>
       <use x="109.033203" xlink:href="#DejaVuSans-114"/>
       <use x="150.146484" xlink:href="#DejaVuSans-108"/>
      </g>
     </g>
    </g>
    <g id="xtick_16">
     <g id="line2d_83">
      <g>
       <use style="stroke:#000000;stroke-width:0.8;" x="730.22" xlink:href="#m3d05276afe" y="472.52"/>
      </g>
     </g>
     <g id="text_48">
      <!-- MEHP -->
      <g transform="translate(710.272187 490.157813)scale(0.14 -0.14)">
       <use xlink:href="#DejaVuSans-77"/>
       <use x="86.279297" xlink:href="#DejaVuSans-69"/>
       <use x="149.462891" xlink:href="#DejaVuSans-72"/>
       <use x="224.658203" xlink:href="#DejaVuSans-80"/>
      </g>
     </g>
    </g>
   </g>
   <g id="matplotlib.axis_14">
    <g id="ytick_30">
     <g id="line2d_84">
      <g>
       <use style="stroke:#000000;stroke-width:0.8;" x="584.84" xlink:href="#m6e98e8d146" y="472.52"/>
      </g>
     </g>
     <g id="text_49">
      <!-- 0 -->
      <g transform="translate(568.9325 477.838906)scale(0.14 -0.14)">
       <use xlink:href="#DejaVuSans-48"/>
      </g>
     </g>
    </g>
    <g id="ytick_31">
     <g id="line2d_85">
      <g>
       <use style="stroke:#000000;stroke-width:0.8;" x="584.84" xlink:href="#m6e98e8d146" y="438.527213"/>
      </g>
     </g>
     <g id="text_50">
      <!-- 50 -->
      <g transform="translate(560.025 443.846119)scale(0.14 -0.14)">
       <use xlink:href="#DejaVuSans-53"/>
       <use x="63.623047" xlink:href="#DejaVuSans-48"/>
      </g>
     </g>
    </g>
    <g id="ytick_32">
     <g id="line2d_86">
      <g>
       <use style="stroke:#000000;stroke-width:0.8;" x="584.84" xlink:href="#m6e98e8d146" y="404.534426"/>
      </g>
     </g>
     <g id="text_51">
      <!-- 100 -->
      <g transform="translate(551.1175 409.853332)scale(0.14 -0.14)">
       <use xlink:href="#DejaVuSans-49"/>
       <use x="63.623047" xlink:href="#DejaVuSans-48"/>
       <use x="127.246094" xlink:href="#DejaVuSans-48"/>
      </g>
     </g>
    </g>
    <g id="ytick_33">
     <g id="line2d_87">
      <g>
       <use style="stroke:#000000;stroke-width:0.8;" x="584.84" xlink:href="#m6e98e8d146" y="370.541639"/>
      </g>
     </g>
     <g id="text_52">
      <!-- 150 -->
      <g transform="translate(551.1175 375.860546)scale(0.14 -0.14)">
       <use xlink:href="#DejaVuSans-49"/>
       <use x="63.623047" xlink:href="#DejaVuSans-53"/>
       <use x="127.246094" xlink:href="#DejaVuSans-48"/>
      </g>
     </g>
    </g>
    <g id="ytick_34">
     <g id="line2d_88">
      <g>
       <use style="stroke:#000000;stroke-width:0.8;" x="584.84" xlink:href="#m6e98e8d146" y="336.548852"/>
      </g>
     </g>
     <g id="text_53">
      <!-- 200 -->
      <g transform="translate(551.1175 341.867759)scale(0.14 -0.14)">
       <use xlink:href="#DejaVuSans-50"/>
       <use x="63.623047" xlink:href="#DejaVuSans-48"/>
       <use x="127.246094" xlink:href="#DejaVuSans-48"/>
      </g>
     </g>
    </g>
    <g id="ytick_35">
     <g id="line2d_89">
      <g>
       <use style="stroke:#000000;stroke-width:0.8;" x="584.84" xlink:href="#m6e98e8d146" y="302.556066"/>
      </g>
     </g>
     <g id="text_54">
      <!-- 250 -->
      <g transform="translate(551.1175 307.874972)scale(0.14 -0.14)">
       <use xlink:href="#DejaVuSans-50"/>
       <use x="63.623047" xlink:href="#DejaVuSans-53"/>
       <use x="127.246094" xlink:href="#DejaVuSans-48"/>
      </g>
     </g>
    </g>
    <g id="ytick_36">
     <g id="line2d_90">
      <g>
       <use style="stroke:#000000;stroke-width:0.8;" x="584.84" xlink:href="#m6e98e8d146" y="268.563279"/>
      </g>
     </g>
     <g id="text_55">
      <!-- 300 -->
      <g transform="translate(551.1175 273.882185)scale(0.14 -0.14)">
       <use xlink:href="#DejaVuSans-51"/>
       <use x="63.623047" xlink:href="#DejaVuSans-48"/>
       <use x="127.246094" xlink:href="#DejaVuSans-48"/>
      </g>
     </g>
    </g>
    <g id="text_56">
     <!-- QTc (ms) -->
     <defs>
      <path d="M 48.78125 52.59375 
L 48.78125 44.1875 
Q 44.96875 46.296875 41.140625 47.34375 
Q 37.3125 48.390625 33.40625 48.390625 
Q 24.65625 48.390625 19.8125 42.84375 
Q 14.984375 37.3125 14.984375 27.296875 
Q 14.984375 17.28125 19.8125 11.734375 
Q 24.65625 6.203125 33.40625 6.203125 
Q 37.3125 6.203125 41.140625 7.25 
Q 44.96875 8.296875 48.78125 10.40625 
L 48.78125 2.09375 
Q 45.015625 0.34375 40.984375 -0.53125 
Q 36.96875 -1.421875 32.421875 -1.421875 
Q 20.0625 -1.421875 12.78125 6.34375 
Q 5.515625 14.109375 5.515625 27.296875 
Q 5.515625 40.671875 12.859375 48.328125 
Q 20.21875 56 33.015625 56 
Q 37.15625 56 41.109375 55.140625 
Q 45.0625 54.296875 48.78125 52.59375 
z
" id="DejaVuSans-99"/>
     </defs>
     <g transform="translate(544.205938 400.609969)rotate(-90)scale(0.14 -0.14)">
      <use xlink:href="#DejaVuSans-81"/>
      <use x="78.710938" xlink:href="#DejaVuSans-84"/>
      <use x="139.529297" xlink:href="#DejaVuSans-99"/>
      <use x="194.509766" xlink:href="#DejaVuSans-32"/>
      <use x="226.296875" xlink:href="#DejaVuSans-40"/>
      <use x="265.310547" xlink:href="#DejaVuSans-109"/>
      <use x="362.722656" xlink:href="#DejaVuSans-115"/>
      <use x="414.822266" xlink:href="#DejaVuSans-41"/>
     </g>
    </g>
   </g>
   <g id="LineCollection_17">
    <path clip-path="url(#p23dc837dc9)" d="M 616.339 355.056815 
L 616.339 341.966563 
" style="fill:none;stroke:#000000;"/>
   </g>
   <g id="LineCollection_18">
    <path clip-path="url(#p23dc837dc9)" d="M 652.684 328.956801 
L 652.684 305.292406 
" style="fill:none;stroke:#000000;"/>
   </g>
   <g id="LineCollection_19">
    <path clip-path="url(#p23dc837dc9)" d="M 713.259 348.83996 
L 713.259 332.426602 
" style="fill:none;stroke:#000000;"/>
   </g>
   <g id="LineCollection_20">
    <path clip-path="url(#p23dc837dc9)" d="M 749.604 322.526062 
L 749.604 305.316832 
" style="fill:none;stroke:#000000;"/>
   </g>
   <g id="line2d_91">
    <g clip-path="url(#p23dc837dc9)">
     <use style="stroke:#000000;" x="616.339" xlink:href="#m9e3db307da" y="355.056815"/>
    </g>
   </g>
   <g id="line2d_92">
    <g clip-path="url(#p23dc837dc9)">
     <use style="stroke:#000000;" x="616.339" xlink:href="#m9e3db307da" y="341.966563"/>
    </g>
   </g>
   <g id="line2d_93">
    <g clip-path="url(#p23dc837dc9)">
     <use style="stroke:#000000;" x="652.684" xlink:href="#m9e3db307da" y="328.956801"/>
    </g>
   </g>
   <g id="line2d_94">
    <g clip-path="url(#p23dc837dc9)">
     <use style="stroke:#000000;" x="652.684" xlink:href="#m9e3db307da" y="305.292406"/>
    </g>
   </g>
   <g id="line2d_95">
    <g clip-path="url(#p23dc837dc9)">
     <use style="stroke:#000000;" x="713.259" xlink:href="#m9e3db307da" y="348.83996"/>
    </g>
   </g>
   <g id="line2d_96">
    <g clip-path="url(#p23dc837dc9)">
     <use style="stroke:#000000;" x="713.259" xlink:href="#m9e3db307da" y="332.426602"/>
    </g>
   </g>
   <g id="line2d_97">
    <g clip-path="url(#p23dc837dc9)">
     <use style="stroke:#000000;" x="749.604" xlink:href="#m9e3db307da" y="322.526062"/>
    </g>
   </g>
   <g id="line2d_98">
    <g clip-path="url(#p23dc837dc9)">
     <use style="stroke:#000000;" x="749.604" xlink:href="#m9e3db307da" y="305.316832"/>
    </g>
   </g>
   <g id="patch_39">
    <path d="M 584.84 472.52 
L 584.84 265.164 
" style="fill:none;stroke:#000000;stroke-linecap:square;stroke-linejoin:miter;stroke-width:0.8;"/>
   </g>
   <g id="patch_40">
    <path d="M 584.84 472.52 
L 778.68 472.52 
" style="fill:none;stroke:#000000;stroke-linecap:square;stroke-linejoin:miter;stroke-width:0.8;"/>
   </g>
  </g>
 </g>
 <defs>
  <clipPath id="p1728d62b07">
   <rect height="90.154783" width="193.84" x="53.3" y="20.928"/>
  </clipPath>
  <clipPath id="p518d08a223">
   <rect height="90.154783" width="193.84" x="53.3" y="138.129217"/>
  </clipPath>
  <clipPath id="p0bad2a27ad">
   <rect height="207.356" width="193.84" x="319.07" y="20.928"/>
  </clipPath>
  <clipPath id="pb117292385">
   <rect height="207.356" width="193.84" x="584.84" y="20.928"/>
  </clipPath>
  <clipPath id="p4b20a46c5e">
   <rect height="207.356" width="193.84" x="53.3" y="265.164"/>
  </clipPath>
  <clipPath id="p0cebadfa86">
   <rect height="207.356" width="193.84" x="319.07" y="265.164"/>
  </clipPath>
  <clipPath id="p23dc837dc9">
   <rect height="207.356" width="193.84" x="584.84" y="265.164"/>
  </clipPath>
 </defs>
</svg>
