<?xml version="1.0" encoding="utf-8" standalone="no"?>
<!DOCTYPE svg PUBLIC "-//W3C//DTD SVG 1.1//EN"
  "http://www.w3.org/Graphics/SVG/1.1/DTD/svg11.dtd">
<!-- Created with matplotlib (https://matplotlib.org/) -->
<svg height="360pt" version="1.1" viewBox="0 0 576 360" width="576pt" xmlns="http://www.w3.org/2000/svg" xmlns:xlink="http://www.w3.org/1999/xlink">
 <defs>
  <style type="text/css">
*{stroke-linecap:butt;stroke-linejoin:round;}
  </style>
 </defs>
 <g id="figure_1">
  <g id="patch_1">
   <path d="M 0 360 
L 576 360 
L 576 0 
L 0 0 
z
" style="fill:#ffffff;"/>
  </g>
  <g id="axes_1">
   <g id="patch_2">
    <path d="M 298.471136 76.015652 
L 546.042273 76.015652 
L 546.042273 13.32 
L 298.471136 13.32 
z
" style="fill:#ffffff;"/>
   </g>
   <g id="matplotlib.axis_1"/>
   <g id="matplotlib.axis_2"/>
   <g id="line2d_1">
    <path clip-path="url(#pcaf3e907a3)" d="M 543.721293 75.445692 
L 545.268613 75.445692 
" style="fill:none;stroke:#000000;stroke-linecap:square;"/>
   </g>
   <g id="line2d_2">
    <path clip-path="url(#pcaf3e907a3)" d="M 298.477326 37.975022 
L 298.78679 37.558598 
L 298.997225 37.174622 
L 300.018456 35.906421 
L 300.055592 35.95239 
L 300.166999 36.028104 
L 300.191756 36.014583 
L 300.58168 35.957798 
L 300.649762 36.028104 
L 300.686898 35.936166 
L 300.816873 35.292601 
L 300.915901 33.480885 
L 301.120148 27.942983 
L 301.175851 29.054349 
L 301.250122 41.522741 
L 301.398665 74.057917 
L 301.460558 69.366384 
L 301.807157 38.164306 
L 302.073296 27.718546 
L 302.308489 24.627812 
L 302.457032 23.830117 
L 302.506546 24.070777 
L 302.716981 27.726658 
L 303.131663 32.899513 
L 303.453505 34.76531 
L 304.041487 36.211979 
L 304.208597 36.501313 
L 304.375708 36.647332 
L 304.511872 36.658148 
L 304.518061 36.66626 
L 304.858472 36.93937 
L 305.025582 36.885289 
L 305.031771 36.890697 
L 305.533103 36.790647 
L 305.663078 36.750086 
L 305.885892 36.650036 
L 306.152031 36.333662 
L 306.275816 36.333662 
L 306.399602 36.233612 
L 306.647173 35.957798 
L 306.777148 35.968614 
L 306.783337 35.982135 
L 306.93188 35.871268 
L 307.427022 35.581935 
L 307.600322 35.473773 
L 307.686972 35.498109 
L 307.69935 35.511629 
L 308.281143 36.447232 
L 308.4792 36.782535 
L 309.197156 36.979931 
L 309.314752 36.993451 
L 309.574702 36.885289 
L 309.859409 36.679781 
L 309.915112 36.687893 
L 309.958437 36.628404 
L 310.342172 36.279581 
L 310.354551 36.290397 
L 310.478336 36.263356 
L 310.7878 36.036216 
L 311.091075 36.055144 
L 311.239618 35.984839 
L 311.251996 35.992951 
L 311.381971 36.047032 
L 311.499567 36.106521 
L 311.518135 36.098409 
L 313.02213 36.209275 
L 313.164483 36.155194 
L 313.36254 36.106521 
L 313.368729 36.114633 
L 313.566786 36.195755 
L 314.303311 36.093001 
L 314.414718 36.101113 
L 314.575639 36.201163 
L 314.866535 36.093001 
L 314.99032 36.149786 
L 315.151242 36.193051 
L 315.361677 36.084889 
L 315.59687 36.217387 
L 315.906334 36.093001 
L 316.073444 36.201163 
L 316.19104 36.187643 
L 316.296258 36.133562 
L 316.519072 36.155194 
L 316.79759 36.163306 
L 316.933754 36.090297 
L 316.946132 36.101113 
L 317.069918 36.163306 
L 317.218461 36.195755 
L 317.22465 36.187643 
L 318.443938 36.079481 
L 318.549156 36.101113 
L 318.555345 36.114633 
L 318.85243 36.12545 
L 326.688057 36.014583 
L 326.83041 36.071368 
L 327.028467 36.098409 
L 327.282227 36.022695 
L 327.492663 36.122745 
L 327.77737 36.019991 
L 327.950669 36.12545 
L 328.055887 36.117337 
L 328.068266 36.106521 
L 328.28489 36.001063 
L 328.45819 36.093001 
L 328.501515 36.114633 
L 328.569597 36.084889 
L 328.817168 36.011879 
L 329.009036 36.117337 
L 329.101875 36.076777 
L 329.108064 36.071368 
L 329.398961 36.060552 
L 329.57845 36.130858 
L 329.584639 36.122745 
L 329.702235 36.055144 
L 329.844589 36.022695 
L 329.993131 36.12545 
L 330.067403 36.147082 
L 330.104538 36.114633 
L 330.77917 36.006471 
L 331.001984 35.730658 
L 331.094823 35.457548 
L 331.212419 33.956798 
L 331.354773 29.165215 
L 331.429044 30.6227 
L 331.583776 33.443028 
L 331.627101 33.307825 
L 331.837536 32.515538 
L 331.862293 32.53717 
L 331.880861 32.610179 
L 331.924186 32.899513 
L 332.177947 37.574822 
L 332.332679 37.388243 
L 332.376003 37.550486 
L 332.629764 38.296805 
L 332.716414 38.188643 
L 332.796874 38.164306 
L 332.827821 38.185939 
L 332.846389 38.194051 
L 332.895903 38.110225 
L 332.908281 38.115633 
L 333.316774 37.899309 
L 333.490074 38.015583 
L 333.558156 38.029103 
L 333.601481 37.983135 
L 333.818105 37.647832 
L 334.29468 36.844728 
L 334.604144 36.431008 
L 334.746497 36.249836 
L 335.154989 35.863156 
L 335.167368 35.879381 
L 335.303532 35.887493 
L 335.470643 35.757698 
L 335.476832 35.771218 
L 335.712025 35.898309 
L 335.848189 35.795555 
L 336.046246 34.227204 
L 336.287627 27.848341 
L 336.34952 29.541078 
L 336.429981 45.265152 
L 336.566145 74.076846 
L 336.628038 69.117611 
L 336.974637 37.942574 
L 337.240776 27.577935 
L 337.488347 24.29251 
L 337.605944 23.713842 
L 337.655458 23.87879 
L 337.797811 26.050145 
L 338.299143 32.875177 
L 338.800474 35.427804 
L 339.029478 35.841524 
L 339.122317 36.001063 
L 339.444159 36.45264 
L 339.561756 36.476977 
L 339.704109 36.658148 
L 340.013573 36.782535 
L 340.100223 36.758198 
L 340.131169 36.782535 
L 340.496337 36.828504 
L 340.743908 36.736566 
L 340.750097 36.750086 
L 340.941965 36.647332 
L 341.195725 36.349886 
L 341.430918 36.247132 
L 341.740382 35.914533 
L 341.888924 35.933462 
L 342.155063 35.611679 
L 342.371688 35.590047 
L 342.69972 35.300713 
L 342.718288 35.316937 
L 342.804938 35.357498 
L 342.817316 35.387243 
L 343.021562 35.568414 
L 343.269133 35.928054 
L 343.603355 36.501313 
L 344.1542 36.844728 
L 344.284175 36.863656 
L 344.290364 36.871768 
L 344.488421 36.955594 
L 344.971185 36.679781 
L 345.070214 36.568914 
L 345.330163 36.26606 
L 345.484895 36.241724 
L 345.571545 36.187643 
L 345.577734 36.176827 
L 345.806738 35.936166 
L 345.967659 35.982135 
L 346.110012 35.936166 
L 346.270934 35.819891 
L 346.277123 35.828004 
L 346.487558 35.933462 
L 346.55564 35.96591 
L 346.598965 35.944278 
L 346.772265 35.863156 
L 346.896051 35.895605 
L 347.07554 36.011879 
L 347.211704 35.919941 
L 347.217893 35.922645 
L 347.533546 36.030808 
L 347.651143 36.019991 
L 347.657332 36.014583 
L 347.972985 35.992951 
L 348.10296 36.055144 
L 348.251503 35.95239 
L 348.257692 35.957798 
L 349.600765 36.068664 
L 349.755497 36.019991 
L 349.972122 35.976727 
L 350.064961 36.055144 
L 350.374425 35.944278 
L 350.479643 35.957798 
L 350.485832 35.968614 
L 351.135706 36.079481 
L 351.240924 36.076777 
L 351.253303 36.068664 
L 351.513252 35.982135 
L 351.853663 36.019991 
L 352.014584 35.974022 
L 352.181694 36.106521 
L 352.385941 36.011879 
L 352.503537 35.982135 
L 352.65208 36.090297 
L 352.924408 35.984839 
L 353.017247 35.96591 
L 353.048193 35.990247 
L 353.240061 36.122745 
L 353.24625 36.117337 
L 353.357657 36.079481 
L 353.549525 36.006471 
L 353.821853 36.106521 
L 354.050856 35.976727 
L 354.341753 36.090297 
L 354.589324 35.984839 
L 354.601702 36.001063 
L 354.861652 36.093001 
L 355.078277 35.976727 
L 355.301091 36.117337 
L 355.313469 36.106521 
L 355.56104 35.960502 
L 355.796233 36.098409 
L 356.111886 35.96591 
L 356.483243 36.011879 
L 356.687489 35.976727 
L 356.928871 36.060552 
L 356.93506 36.047032 
L 364.516926 36.155194 
L 364.646901 36.147082 
L 365.890946 36.036216 
L 366.138517 35.684689 
L 366.256113 34.822096 
L 366.342763 32.320846 
L 366.441792 29.219296 
L 366.497495 30.111634 
L 366.670795 33.480885 
L 366.720309 33.291601 
L 366.918366 32.569619 
L 366.943123 32.599363 
L 367.005016 32.913034 
L 367.128802 35.849636 
L 367.264966 37.620791 
L 367.308291 37.534262 
L 367.388751 37.412579 
L 367.432076 37.480181 
L 367.710594 38.313029 
L 367.791055 38.226499 
L 368.057194 38.126449 
L 368.187168 38.077776 
L 368.453307 37.985839 
L 368.626607 38.107521 
L 369.072235 37.396355 
L 369.505485 36.647332 
L 369.827327 36.295805 
L 369.883031 36.203867 
L 370.248198 35.887493 
L 370.254387 35.895605 
L 370.953776 35.784739 
L 371.096129 34.908625 
L 371.226104 31.547486 
L 371.368457 27.886197 
L 371.417972 28.537874 
L 371.479864 36.344478 
L 371.653164 74.114702 
L 371.721246 68.119815 
L 372.024521 40.378926 
L 372.327796 27.550895 
L 372.569177 24.4196 
L 372.692963 23.784148 
L 372.742477 23.954503 
L 372.89102 26.198868 
L 373.293323 32.053144 
L 373.720383 34.822096 
L 374.159822 35.960502 
L 374.939671 36.812279 
L 375.057267 36.823095 
L 375.403867 36.931258 
L 375.515274 36.923145 
L 375.521463 36.906921 
L 375.731899 36.801463 
L 375.874252 36.76631 
L 375.954713 36.750086 
L 375.973281 36.728454 
L 376.400341 36.349886 
L 376.49318 36.274172 
L 376.765508 36.014583 
L 377.025458 35.903717 
L 377.743414 35.416987 
L 378.195232 35.733362 
L 378.486128 36.295805 
L 378.826538 36.671668 
L 378.937945 36.782535 
L 379.538305 36.933962 
L 379.829201 36.720341 
L 379.83539 36.725749 
L 380.547157 36.249836 
L 380.633807 36.184939 
L 380.924703 35.982135 
L 381.190842 35.982135 
L 381.444603 35.903717 
L 381.63647 35.974022 
L 383.140465 36.084889 
L 383.295197 36.079481 
L 383.425172 36.044328 
L 383.431361 36.055144 
L 388.228052 36.093001 
L 388.277566 29.627608 
L 388.358027 34.419192 
L 388.432298 35.898309 
L 388.50038 35.730658 
L 388.735573 34.356998 
L 388.983144 29.738474 
L 389.057415 30.292805 
L 389.558747 36.322845 
L 389.732047 37.331458 
L 390.029132 38.926849 
L 390.091025 38.878176 
L 390.629492 37.645128 
L 390.697574 37.801963 
L 390.963713 37.975022 
L 391.149391 37.907421 
L 391.260798 37.801963 
L 391.50218 37.309825 
L 391.854969 36.36611 
L 392.306786 35.95239 
L 392.61625 35.700913 
L 392.777171 34.640924 
L 392.938093 29.93587 
L 393.030932 27.778035 
L 393.080446 28.819096 
L 393.154717 39.448732 
L 393.315639 73.814552 
L 393.383721 67.922419 
L 393.699374 39.429803 
L 394.015027 27.139879 
L 394.237841 24.425008 
L 394.367816 23.822004 
L 394.42352 24.043737 
L 394.572062 26.282693 
L 395.02388 32.545282 
L 395.370479 34.611179 
L 395.61805 35.471068 
L 395.723268 35.630608 
L 396.076057 36.271468 
L 396.082246 36.26606 
L 396.317439 36.374222 
L 396.664038 36.658148 
L 396.81877 36.633812 
L 396.948745 36.744678 
L 397.097288 36.812279 
L 397.450077 36.650036 
L 397.580052 36.658148 
L 397.586241 36.650036 
L 397.672891 36.541874 
L 398.000922 36.279581 
L 398.050437 36.26606 
L 398.093762 36.228204 
L 398.496065 35.873973 
L 398.61985 35.855044 
L 398.62604 35.841524 
L 398.700311 35.779331 
L 398.861232 35.590047 
L 399.009775 35.576527 
L 399.13975 35.56571 
L 399.145939 35.557598 
L 399.424456 35.371018 
L 399.647271 35.644128 
L 400.606609 37.104317 
L 400.860369 37.096205 
L 401.312186 36.993451 
L 401.535 36.76631 
L 401.733057 36.655444 
L 401.931114 36.344478 
L 402.079657 36.255244 
L 402.153928 36.263356 
L 402.203442 29.846636 
L 402.290092 34.784239 
L 402.364364 35.984839 
L 402.426257 35.749586 
L 402.698585 34.132562 
L 402.939967 29.962911 
L 403.001859 30.387447 
L 403.16897 33.659352 
L 403.397973 35.489997 
L 403.645544 36.890697 
L 403.967387 38.845728 
L 404.078794 38.886289 
L 404.184012 38.956594 
L 404.202579 38.924145 
L 404.648207 37.628903 
L 404.672965 37.669464 
L 404.821507 37.950686 
L 404.889589 37.896605 
L 405.044321 37.726249 
L 405.050511 37.731658 
L 405.366164 37.631608 
L 405.632303 36.801463 
L 405.73752 36.847432 
L 405.817981 36.806871 
L 405.82417 36.790647 
L 406.183149 36.263356 
L 406.356448 36.157898 
L 406.523559 35.314233 
L 406.665912 32.458752 
L 406.795887 29.362611 
L 406.851591 30.100817 
L 406.919673 37.112429 
L 407.099162 74.788012 
L 407.179622 67.954868 
L 407.507654 37.309825 
L 407.792361 27.980839 
L 408.14515 24.122154 
L 408.194664 23.962615 
L 408.250368 24.149195 
L 408.380342 26.001472 
L 408.863106 32.656148 
L 409.160191 34.530058 
L 409.624387 35.933462 
L 409.680091 35.976727 
L 409.636766 35.949686 
L 409.698659 36.006471 
L 409.977176 36.436416 
L 410.237126 36.547282 
L 411.091246 36.801463 
L 411.301682 36.650036 
L 411.728742 36.35259 
L 411.877285 36.255244 
L 412.378616 35.957798 
L 412.564295 35.928054 
L 412.879948 35.679281 
L 413.03468 35.733362 
L 413.183222 35.776627 
L 414.136371 37.231408 
L 414.823381 36.820391 
L 414.971924 36.650036 
L 415.114277 36.547282 
L 415.361848 36.263356 
L 415.751773 36.157898 
L 415.918883 36.098409 
L 416.061237 36.176827 
L 416.073615 36.176827 
L 416.079805 36.184939 
L 416.135508 29.792555 
L 416.215969 34.768014 
L 416.296429 36.044328 
L 416.352133 35.855044 
L 416.63065 34.227204 
L 416.872032 30.179235 
L 416.921547 30.44964 
L 417.051521 32.931962 
L 417.280525 35.219591 
L 418.047995 38.951186 
L 418.109888 38.962002 
L 418.140834 38.894401 
L 418.270809 38.242724 
L 418.506002 37.637016 
L 418.592652 37.599159 
L 418.623598 37.669464 
L 418.772141 37.88038 
L 418.790709 37.864156 
L 419.007333 37.691097 
L 419.03209 37.723545 
L 419.223958 37.691097 
L 419.607693 36.83932 
L 419.613883 36.844728 
L 419.780993 36.744678 
L 420.040943 36.257948 
L 420.053321 36.263356 
L 420.288514 36.171418 
L 420.517517 34.554394 
L 420.672249 30.311734 
L 420.734142 29.392355 
L 420.783656 30.014288 
L 420.851738 36.431008 
L 421.037417 74.287762 
L 421.124067 66.819165 
L 421.433531 37.999359 
L 421.736805 27.726658 
L 422.058648 24.127562 
L 422.139108 23.835525 
L 422.194812 24.035625 
L 422.318597 25.777035 
L 422.826118 32.712934 
L 423.185096 34.768014 
L 423.556453 35.792851 
L 424.175381 36.422895 
L 424.602441 36.671668 
L 424.60863 36.658148 
L 424.689091 36.633812 
L 424.732416 36.674372 
L 424.930473 36.750086 
L 424.949041 36.728454 
L 425.227558 36.525649 
L 425.233747 36.533762 
L 425.629861 36.249836 
L 425.80935 36.117337 
L 425.926947 36.114633 
L 425.933136 36.106521 
L 426.285925 35.811779 
L 426.292114 35.817187 
L 426.471603 35.800963 
L 426.564442 35.730658 
L 426.75631 35.568414 
L 426.867717 35.630608 
L 427.127667 35.795555 
L 427.239074 35.906421 
L 427.969409 37.244928 
L 428.260305 37.134062 
L 429.628135 36.063256 
L 429.634324 36.071368 
L 429.739542 36.028104 
L 429.881896 36.006471 
L 429.888085 36.014583 
L 430.005681 36.093001 
L 430.036628 31.752994 
L 430.061385 29.714138 
L 430.129467 34.105521 
L 430.222306 35.96591 
L 430.27182 35.800963 
L 430.575095 33.856748 
L 430.804098 30.090001 
L 430.847423 30.30903 
L 430.971209 32.626404 
L 431.194023 35.016787 
L 432.041954 38.883584 
L 432.140982 38.507721 
L 432.394743 37.623495 
L 432.512339 37.504517 
L 432.549475 37.582935 
L 432.691828 37.78033 
L 432.728964 37.761402 
L 432.920831 37.561302 
L 432.951778 37.585639 
L 433.087942 37.672168 
L 433.10032 37.664056 
L 433.415974 36.893401 
L 433.53357 36.760902 
L 433.558327 36.769014 
L 433.601652 36.801463 
L 433.663545 36.744678 
L 433.96063 36.184939 
L 434.21439 36.101113 
L 434.455772 34.446232 
L 434.604315 30.473977 
L 434.666208 29.384243 
L 434.721911 30.146786 
L 434.789993 36.898809 
L 434.975672 74.144447 
L 435.056132 67.381608 
L 435.384164 37.185439 
L 435.668871 27.759107 
L 435.984524 24.11945 
L 436.089742 23.776035 
L 436.126877 23.922054 
L 436.250663 25.555303 
L 436.751995 32.599363 
L 437.401869 35.660352 
L 437.958904 36.422895 
L 438.107447 36.468864 
L 438.367396 36.706821 
L 438.652103 36.698709 
L 438.837781 36.76631 
L 439.011081 36.658148 
L 439.233895 36.541874 
L 439.339113 36.525649 
L 439.345302 36.506721 
L 439.574306 36.217387 
L 440.22418 35.792851 
L 440.446994 35.690097 
L 440.645051 35.519741 
L 441.115436 35.841524 
L 441.301114 36.257948 
L 441.579632 36.836616 
L 442.043828 37.282785 
L 442.050017 37.277376 
L 443.572579 36.093001 
L 443.931558 36.133562 
L 443.962504 31.869269 
L 443.987261 29.73577 
L 444.055343 34.105521 
L 444.148182 35.992951 
L 444.197697 35.844228 
L 444.494782 34.070369 
L 444.723785 30.130562 
L 444.76711 30.271173 
L 444.866139 31.888197 
L 445.11371 34.949186 
L 445.738827 38.770014 
L 445.930694 38.924145 
L 445.992587 38.886289 
L 446.004966 38.845728 
L 446.091616 38.399559 
L 446.345376 37.647832 
L 446.456783 37.569414 
L 446.48154 37.620791 
L 446.685786 37.777626 
L 446.716733 37.750586 
L 446.859086 37.63972 
L 446.896222 37.682985 
L 447.007629 37.734362 
L 447.032386 37.699209 
L 447.317093 37.161102 
L 447.447068 36.863656 
L 447.484203 36.871768 
L 447.539907 36.885289 
L 447.589421 36.820391 
L 447.85556 36.360702 
L 447.991724 36.290397 
L 448.010292 36.312029 
L 448.127888 36.233612 
L 448.431163 33.762106 
L 448.598273 29.495109 
L 448.660166 30.52265 
L 448.740627 40.478976 
L 448.907737 74.255313 
L 448.982009 68.557872 
L 449.334798 36.306621 
L 449.607126 27.705026 
L 449.941347 24.057257 
L 450.027997 23.830117 
L 450.065132 23.984248 
L 450.176539 25.398468 
L 450.764521 33.159102 
L 451.210149 35.354794 
L 451.476288 35.887493 
L 452.200433 36.658148 
L 452.423248 36.679781 
L 452.528465 36.655444 
L 452.534655 36.647332 
L 453.017418 36.541874 
L 453.165961 36.509425 
L 453.17215 36.517537 
L 453.203097 36.533762 
L 453.240232 36.479681 
L 453.271179 36.471568 
L 453.59921 36.101113 
L 453.6054 36.106521 
L 453.735375 36.101113 
L 453.914864 35.911829 
L 453.921053 35.914533 
L 454.812309 35.644128 
L 454.954662 35.746882 
L 455.975893 37.33957 
L 455.982083 37.334162 
L 456.242032 37.174622 
L 456.341061 37.115133 
L 456.638146 36.641924 
L 457.065206 36.257948 
L 457.176613 36.149786 
L 457.28802 36.157898 
L 457.29421 36.171418 
L 457.37467 36.187643 
L 457.405617 36.163306 
L 457.591295 36.101113 
L 457.863623 36.022695 
L 457.913137 29.762811 
L 457.987409 34.413783 
L 458.074059 36.030808 
L 458.129762 35.828004 
L 458.457794 33.329458 
L 458.655851 30.154899 
L 458.705365 30.379335 
L 458.841529 32.948186 
L 459.039586 34.954594 
L 459.565675 38.212979 
L 459.844192 38.94037 
L 459.930842 38.916033 
L 459.943221 38.872768 
L 460.345524 37.591047 
L 460.599284 37.812779 
L 460.624041 37.793851 
L 460.791152 37.628903 
L 460.80972 37.645128 
L 460.945884 37.769514 
L 460.97683 37.723545 
L 461.372944 36.869064 
L 461.41008 36.898809 
L 461.521487 36.863656 
L 461.527676 36.844728 
L 461.886654 36.320141 
L 462.072333 36.233612 
L 462.326093 34.497609 
L 462.530339 29.657353 
L 462.60461 31.328458 
L 462.69126 44.378222 
L 462.839803 74.266129 
L 462.907885 69.625973 
L 463.303999 34.540874 
L 463.563949 27.391356 
L 463.904359 23.946391 
L 463.953873 23.862565 
L 463.997198 24.024808 
L 464.046712 24.514242 
L 464.059091 23.922054 
L 464.096227 19.019605 
L 464.164309 24.19246 
L 464.337608 29.346386 
L 464.764669 32.829208 
L 464.919401 33.069869 
L 464.92559 33.064461 
L 464.962726 33.080685 
L 465.01224 32.994155 
L 465.160782 32.791351 
L 465.210297 32.867065 
L 465.365029 34.027104 
L 465.742575 36.236316 
L 465.841603 36.628404 
L 466.052039 37.071868 
L 466.188203 36.963706 
L 466.206771 36.993451 
L 466.29961 37.150286 
L 466.633831 38.029103 
L 466.745238 38.077776 
L 466.856645 38.107521 
L 466.881402 38.077776 
L 467.098027 37.637016 
L 467.104216 37.63972 
L 467.128973 37.637016 
L 467.172298 37.558598 
L 467.568412 36.820391 
L 467.66744 36.75279 
L 468.620589 35.622495 
L 468.639157 35.646832 
L 468.800078 35.754994 
L 468.806267 35.746882 
L 469.152867 36.376927 
L 469.30141 36.714933 
L 469.326167 36.66626 
L 469.38187 36.620291 
L 469.425195 36.706821 
L 469.579927 37.090797 
L 469.827498 37.409875 
L 469.839877 37.396355 
L 470.266937 37.104317 
L 470.731133 35.081685 
L 470.830161 34.619292 
L 470.873486 34.735566 
L 470.941569 35.149286 
L 471.022029 38.369814 
L 471.133436 54.234498 
L 471.300547 76.015652 
L 471.319114 75.79392 
L 471.393386 70.623769 
L 471.925664 26.247541 
L 472.167046 21.599272 
L 472.222749 21.710138 
L 472.563159 22.897218 
L 472.742649 24.644037 
L 473.380144 32.972523 
L 473.745312 34.757198 
L 474.197129 35.644128 
L 474.265211 35.749586 
L 474.432322 35.936166 
L 474.562296 35.928054 
L 474.568486 35.936166 
L 474.679893 35.922645 
L 474.686082 35.914533 
L 474.828435 36.014583 
L 474.890328 36.071368 
L 474.946032 36.022695 
L 475.373092 35.95239 
L 475.465931 35.895605 
L 475.775395 35.654944 
L 475.781584 35.660352 
L 476.022966 35.646832 
L 476.165319 35.560302 
L 476.338619 35.598159 
L 476.629515 36.149786 
L 477.155604 38.13997 
L 477.483636 38.737566 
L 477.496014 38.726749 
L 477.638368 38.621291 
L 478.269674 37.620791 
L 478.449163 37.334162 
L 478.517245 37.223295 
L 478.913359 36.463456 
L 478.919548 36.468864 
L 479.043334 36.412079 
L 479.229012 36.187643 
L 479.909833 36.001063 
L 480.045997 36.163306 
L 480.101701 36.12545 
L 480.454489 36.076777 
L 480.565896 36.220091 
L 480.6216 36.179531 
L 480.751575 36.101113 
L 480.763953 36.106521 
L 480.807278 36.117337 
L 480.862982 36.055144 
L 481.017714 36.155194 
L 481.079607 36.233612 
L 481.147689 36.193051 
L 481.444774 36.071368 
L 481.655209 36.176827 
L 481.785184 36.093001 
L 481.791374 36.106521 
L 481.840888 36.114633 
L 481.890402 36.060552 
L 482.014188 36.098409 
L 482.113216 36.217387 
L 482.150352 36.179531 
L 482.33603 36.106521 
L 482.435059 36.076777 
L 482.441248 36.071368 
L 482.540276 36.133562 
L 482.639305 36.233612 
L 482.688819 36.195755 
L 482.899254 36.101113 
L 483.097311 36.211979 
L 483.227286 36.201163 
L 483.493425 36.114633 
L 483.660536 36.26606 
L 483.685293 36.247132 
L 483.846214 36.141674 
L 483.864782 36.155194 
L 484.044271 36.141674 
L 484.13711 36.249836 
L 484.174246 36.287693 
L 484.242328 36.209275 
L 484.99123 36.101113 
L 485.102638 36.133562 
L 485.220234 36.255244 
L 485.288316 36.195755 
L 485.641105 36.155194 
L 485.777269 36.201163 
L 485.795837 36.179531 
L 485.944379 36.093001 
L 486.191951 36.201163 
L 486.241465 36.233612 
L 486.303358 36.176827 
L 486.519982 36.071368 
L 486.612821 36.079481 
L 486.631389 36.101113 
L 486.854203 36.163306 
L 486.984178 36.093001 
L 486.990367 36.101113 
L 487.015125 36.071368 
L 487.281264 36.220091 
L 487.435995 36.098409 
L 487.442185 36.101113 
L 487.745459 36.211979 
L 487.788784 36.228204 
L 487.844488 36.184939 
L 487.974463 36.090297 
L 487.980652 36.093001 
L 488.110627 36.063256 
L 488.209655 36.12545 
L 488.290116 36.233612 
L 488.352009 36.187643 
L 488.593391 36.044328 
L 488.816205 36.249836 
L 488.822394 36.228204 
L 488.921422 36.122745 
L 489.057586 36.071368 
L 489.2804 36.176827 
L 489.342293 36.211979 
L 489.391807 36.155194 
L 489.552729 36.060552 
L 489.8003 36.163306 
L 489.837435 36.209275 
L 489.911707 36.147082 
L 490.196414 36.030808 
L 490.202603 36.03892 
L 490.307821 36.149786 
L 490.363524 36.211979 
L 490.425417 36.155194 
L 490.642042 36.044328 
L 490.871045 36.233612 
L 491.223834 36.068664 
L 491.576623 36.114633 
L 491.706598 36.084889 
L 491.842762 36.193051 
L 491.917033 36.271468 
L 491.985115 36.203867 
L 493.718113 36.093001 
L 493.804763 36.079481 
L 493.82952 36.101113 
L 494.033766 36.195755 
L 494.058523 36.157898 
L 495.482057 36.263356 
L 495.574897 36.241724 
L 495.581086 36.236316 
L 495.729629 36.133562 
L 495.9772 36.233612 
L 496.039092 36.295805 
L 496.100985 36.241724 
L 496.385692 36.13897 
L 496.651831 36.201163 
L 496.670399 36.149786 
L 496.942727 35.454844 
L 497.060323 34.146082 
L 497.202677 29.441028 
L 497.276948 30.83632 
L 497.437869 33.443028 
L 497.468816 33.353794 
L 497.710198 32.477681 
L 497.759712 32.631812 
L 497.827794 33.662056 
L 498.062986 37.812779 
L 498.100122 37.78033 
L 498.211529 37.710025 
L 498.242476 37.834412 
L 498.421965 38.091297 
L 498.706671 38.304917 
L 498.712861 38.296805 
L 499.071839 38.083185 
L 499.090407 38.110225 
L 499.257517 38.110225 
L 499.461763 38.015583 
L 499.548413 37.937166 
L 499.585549 37.969614 
L 499.622685 38.015583 
L 499.684577 37.912829 
L 500.148773 37.161102 
L 500.210666 37.017787 
L 501.021462 35.974022 
L 501.095733 36.03892 
L 501.194761 36.133562 
L 501.231897 36.090297 
L 501.54755 35.957798 
L 501.628011 36.030808 
L 501.677525 35.957798 
L 501.826068 34.92485 
L 501.97461 30.720046 
L 502.086017 28.075481 
L 502.129342 28.73527 
L 502.197424 36.255244 
L 502.370724 74.049805 
L 502.451185 67.373496 
L 502.74827 40.338365 
L 503.045356 27.675281 
L 503.299116 24.50613 
L 503.43528 23.797668 
L 503.484794 24.008584 
L 503.602391 25.774331 
L 504.054208 32.326254 
L 504.388429 34.695005 
L 504.759786 35.976727 
L 504.939275 36.241724 
L 505.032114 36.35259 
L 505.304442 36.76631 
L 505.66342 36.871768 
L 505.92337 37.034012 
L 506.065723 36.979931 
L 506.52373 36.871768 
L 506.77749 36.714933 
L 506.95079 36.617587 
L 507.173604 36.336366 
L 507.674936 36.001063 
L 507.804911 35.949686 
L 507.89775 35.96591 
L 507.922507 35.933462 
L 508.120564 35.679281 
L 508.349567 35.557598 
L 508.819952 35.668464 
L 509.18512 36.320141 
L 509.284148 36.479681 
L 509.686451 36.969114 
L 509.896887 37.079981 
L 509.964969 37.16651 
L 510.026862 37.125949 
L 510.163026 37.025899 
L 510.169215 37.036716 
L 510.621032 36.728454 
L 510.850036 36.476977 
L 510.998578 36.490497 
L 511.252339 36.201163 
L 511.41326 36.149786 
L 511.419449 36.157898 
L 511.580371 36.157898 
L 511.741292 36.084889 
L 511.889834 36.068664 
L 512.490194 36.179531 
L 512.533519 36.236316 
L 512.607791 36.187643 
L 512.781091 36.141674 
L 512.972958 36.155194 
L 512.979147 36.171418 
L 513.158637 36.193051 
L 513.350504 36.122745 
L 513.529993 36.220091 
L 513.573318 36.249836 
L 513.635211 36.203867 
L 513.796132 36.13897 
L 522.312579 36.241724 
L 522.343526 36.257948 
L 522.39304 36.193051 
L 522.405418 36.193051 
L 522.523015 36.114633 
L 522.529204 36.117337 
L 522.727261 36.13897 
L 522.857236 36.249836 
L 522.894371 36.209275 
L 522.962454 36.163306 
L 522.974832 36.133562 
L 523.148132 36.079481 
L 523.432839 36.201163 
L 523.439028 36.187643 
L 523.581381 36.12545 
L 523.59376 36.133562 
L 523.773249 36.171418 
L 523.946549 36.220091 
L 523.965117 36.195755 
L 524.893508 36.306621 
L 524.998726 36.255244 
L 525.190594 36.179531 
L 525.376272 36.290397 
L 525.487679 36.295805 
L 525.512436 36.263356 
L 525.716682 36.157898 
L 525.871414 36.241724 
L 526.137553 36.130858 
L 526.304664 36.117337 
L 526.465585 36.228204 
L 526.576992 36.117337 
L 526.744103 36.036216 
L 527.103081 36.079481 
L 527.257813 36.006471 
L 527.264002 36.019991 
L 527.381598 36.060552 
L 529.541656 36.171418 
L 529.566414 36.179531 
L 529.634496 36.122745 
L 529.764471 36.060552 
L 529.77066 36.063256 
L 530.073934 36.184939 
L 530.383398 36.03892 
L 530.389588 36.047032 
L 530.569077 36.184939 
L 530.717619 36.068664 
L 530.88473 36.063256 
L 531.113733 36.201163 
L 531.287033 36.084889 
L 531.577929 36.195755 
L 531.627443 36.220091 
L 531.683147 36.179531 
L 531.868825 36.117337 
L 532.264939 36.011879 
L 532.543457 34.85184 
L 532.623917 32.631812 
L 532.729135 29.327458 
L 532.784838 30.206276 
L 532.964327 33.559302 
L 533.007652 33.386243 
L 533.187141 32.826504 
L 533.230466 32.799463 
L 533.267602 32.885993 
L 533.348063 34.146082 
L 533.564687 37.664056 
L 533.583255 37.63972 
L 533.707041 37.645128 
L 533.787501 37.915533 
L 533.936044 38.218387 
L 533.948423 38.212979 
L 534.078398 38.26706 
L 534.208372 38.413079 
L 534.245508 38.383334 
L 534.524026 37.983135 
L 534.536404 37.991247 
L 534.709704 38.13997 
L 535.130575 37.907421 
L 535.198657 37.904717 
L 535.229603 37.856044 
L 535.94137 36.563506 
L 536.54792 35.903717 
L 536.566487 35.922645 
L 536.696462 36.030808 
L 536.776923 36.055144 
L 536.820248 36.014583 
L 536.906898 35.906421 
L 537.049251 35.873973 
L 537.05544 35.879381 
L 537.191605 36.006471 
L 537.222551 35.974022 
L 537.364904 35.298009 
L 537.457744 33.597159 
L 537.66199 28.0214 
L 537.717693 29.173327 
L 537.791965 41.25504 
L 537.946697 74.209344 
L 538.008589 69.085162 
L 538.349 38.491497 
L 538.615139 27.73477 
L 538.86271 24.581844 
L 539.011252 23.846341 
L 539.066956 24.222204 
L 539.246445 27.369723 
L 539.599234 32.177531 
L 540.088187 35.16551 
L 540.66379 36.36611 
L 541.078471 36.728454 
L 541.493153 36.955594 
L 541.654074 36.925849 
L 541.845942 36.955594 
L 541.932592 36.985339 
L 541.969728 36.950186 
L 542.149217 36.744678 
L 542.458681 36.633812 
L 542.650548 36.35259 
L 542.817659 36.241724 
L 543.40564 35.873973 
L 543.591318 35.684689 
L 543.770808 35.522445 
L 543.931729 35.519741 
L 544.210246 35.408875 
L 544.216436 35.416987 
L 544.364978 35.598159 
L 544.829174 36.382335 
L 545.051988 36.712229 
L 545.163395 36.733862 
L 545.175774 36.750086 
L 545.528563 37.034012 
L 545.738998 36.933962 
L 545.924676 36.955594 
L 546.048462 36.942074 
L 546.048462 36.942074 
" style="fill:none;stroke:#cd5c5c;stroke-linecap:square;stroke-width:2;"/>
   </g>
   <g id="text_1">
    <!-- 50ms -->
    <defs>
     <path d="M 10.59375 72.90625 
L 57.328125 72.90625 
L 57.328125 59.078125 
L 25.59375 59.078125 
L 25.59375 47.796875 
Q 27.734375 48.390625 29.90625 48.703125 
Q 32.078125 49.03125 34.421875 49.03125 
Q 47.75 49.03125 55.171875 42.359375 
Q 62.59375 35.6875 62.59375 23.78125 
Q 62.59375 11.96875 54.515625 5.265625 
Q 46.4375 -1.421875 32.078125 -1.421875 
Q 25.875 -1.421875 19.796875 -0.21875 
Q 13.71875 0.984375 7.71875 3.421875 
L 7.71875 18.21875 
Q 13.671875 14.796875 19.015625 13.078125 
Q 24.359375 11.375 29.109375 11.375 
Q 35.9375 11.375 39.859375 14.71875 
Q 43.796875 18.0625 43.796875 23.78125 
Q 43.796875 29.546875 39.859375 32.859375 
Q 35.9375 36.1875 29.109375 36.1875 
Q 25.046875 36.1875 20.453125 35.125 
Q 15.875 34.078125 10.59375 31.890625 
z
" id="DejaVuSans-Bold-53"/>
     <path d="M 46 36.53125 
Q 46 50.203125 43.4375 55.78125 
Q 40.875 61.375 34.8125 61.375 
Q 28.765625 61.375 26.171875 55.78125 
Q 23.578125 50.203125 23.578125 36.53125 
Q 23.578125 22.703125 26.171875 17.03125 
Q 28.765625 11.375 34.8125 11.375 
Q 40.828125 11.375 43.40625 17.03125 
Q 46 22.703125 46 36.53125 
z
M 64.796875 36.375 
Q 64.796875 18.265625 56.984375 8.421875 
Q 49.171875 -1.421875 34.8125 -1.421875 
Q 20.40625 -1.421875 12.59375 8.421875 
Q 4.78125 18.265625 4.78125 36.375 
Q 4.78125 54.546875 12.59375 64.375 
Q 20.40625 74.21875 34.8125 74.21875 
Q 49.171875 74.21875 56.984375 64.375 
Q 64.796875 54.546875 64.796875 36.375 
z
" id="DejaVuSans-Bold-48"/>
     <path d="M 59.078125 45.609375 
Q 62.40625 50.6875 66.96875 53.34375 
Q 71.53125 56 77 56 
Q 86.421875 56 91.359375 50.1875 
Q 96.296875 44.390625 96.296875 33.296875 
L 96.296875 0 
L 78.71875 0 
L 78.71875 28.515625 
Q 78.765625 29.15625 78.78125 29.828125 
Q 78.8125 30.515625 78.8125 31.78125 
Q 78.8125 37.59375 77.09375 40.203125 
Q 75.390625 42.828125 71.578125 42.828125 
Q 66.609375 42.828125 63.890625 38.71875 
Q 61.1875 34.625 61.078125 26.859375 
L 61.078125 0 
L 43.5 0 
L 43.5 28.515625 
Q 43.5 37.59375 41.9375 40.203125 
Q 40.375 42.828125 36.375 42.828125 
Q 31.34375 42.828125 28.609375 38.703125 
Q 25.875 34.578125 25.875 26.90625 
L 25.875 0 
L 8.296875 0 
L 8.296875 54.6875 
L 25.875 54.6875 
L 25.875 46.6875 
Q 29.109375 51.3125 33.28125 53.65625 
Q 37.453125 56 42.484375 56 
Q 48.140625 56 52.484375 53.265625 
Q 56.84375 50.53125 59.078125 45.609375 
z
" id="DejaVuSans-Bold-109"/>
     <path d="M 51.125 52.984375 
L 51.125 39.703125 
Q 45.515625 42.046875 40.28125 43.21875 
Q 35.0625 44.390625 30.421875 44.390625 
Q 25.4375 44.390625 23.015625 43.140625 
Q 20.609375 41.890625 20.609375 39.3125 
Q 20.609375 37.203125 22.4375 36.078125 
Q 24.265625 34.96875 29 34.421875 
L 32.078125 33.984375 
Q 45.515625 32.28125 50.140625 28.375 
Q 54.78125 24.46875 54.78125 16.109375 
Q 54.78125 7.375 48.328125 2.96875 
Q 41.890625 -1.421875 29.109375 -1.421875 
Q 23.6875 -1.421875 17.890625 -0.5625 
Q 12.109375 0.296875 6 2 
L 6 15.28125 
Q 11.234375 12.75 16.71875 11.46875 
Q 22.21875 10.203125 27.875 10.203125 
Q 33.015625 10.203125 35.59375 11.609375 
Q 38.1875 13.03125 38.1875 15.828125 
Q 38.1875 18.171875 36.40625 19.3125 
Q 34.625 20.453125 29.296875 21.09375 
L 26.21875 21.484375 
Q 14.546875 22.953125 9.859375 26.90625 
Q 5.171875 30.859375 5.171875 38.921875 
Q 5.171875 47.609375 11.125 51.796875 
Q 17.09375 56 29.390625 56 
Q 34.234375 56 39.546875 55.265625 
Q 44.875 54.546875 51.125 52.984375 
z
" id="DejaVuSans-Bold-115"/>
    </defs>
    <g transform="translate(543.721293 83.6144)scale(0.07 -0.07)">
     <use xlink:href="#DejaVuSans-Bold-53"/>
     <use x="69.580078" xlink:href="#DejaVuSans-Bold-48"/>
     <use x="139.160156" xlink:href="#DejaVuSans-Bold-109"/>
     <use x="243.359375" xlink:href="#DejaVuSans-Bold-115"/>
    </g>
   </g>
  </g>
  <g id="axes_2">
   <g id="patch_3">
    <path d="M 298.471136 157.52 
L 546.042273 157.52 
L 546.042273 94.824348 
L 298.471136 94.824348 
z
" style="fill:#ffffff;"/>
   </g>
   <g id="matplotlib.axis_3"/>
   <g id="matplotlib.axis_4"/>
   <g id="line2d_3">
    <path clip-path="url(#p29093b9d11)" d="M 508.906602 156.95004 
L 533.663716 156.95004 
" style="fill:none;stroke:#000000;stroke-linecap:square;"/>
   </g>
   <g id="line2d_4">
    <path clip-path="url(#p29093b9d11)" d="M 298.570165 119.47937 
L 303.026445 119.135955 
L 304.412844 118.906111 
L 311.641921 118.203057 
L 315.405002 117.897499 
L 317.682657 117.792041 
L 319.168083 117.654134 
L 323.327278 117.416177 
L 325.406876 117.532451 
L 328.37773 117.424289 
L 329.6651 117.316127 
L 331.249555 117.383728 
L 332.239839 117.462146 
L 333.329152 117.532451 
L 334.517494 117.324239 
L 335.804864 116.905111 
L 336.498063 116.453534 
L 336.993205 115.888387 
L 337.884461 114.468758 
L 340.360173 109.704215 
L 340.756286 109.452738 
L 341.1524 109.509524 
L 341.449486 109.790745 
L 341.746571 110.558696 
L 342.043656 112.097303 
L 342.43977 115.834306 
L 343.033941 124.633297 
L 344.915482 154.134525 
L 345.212567 155.454103 
L 345.410624 155.519 
L 345.608681 155.037679 
L 346.004795 153.023158 
L 346.499937 149.207738 
L 348.183421 135.008752 
L 348.777591 132.0397 
L 350.16399 126.612664 
L 352.837758 116.088487 
L 354.224156 112.373117 
L 355.016384 110.839918 
L 356.204725 109.074171 
L 357.095981 107.93306 
L 357.987238 107.13266 
L 358.779465 106.548585 
L 359.472664 106.253843 
L 360.165864 106.023998 
L 362.047404 105.342577 
L 362.542546 105.388545 
L 363.235746 105.702216 
L 363.928945 106.321444 
L 364.820201 107.340872 
L 366.998827 109.852938 
L 368.880368 111.602461 
L 372.049278 113.800857 
L 373.435676 114.631002 
L 375.416246 115.488187 
L 377.000701 115.983029 
L 384.427835 117.494595 
L 385.715205 117.594645 
L 393.934567 118.167904 
L 395.519022 118.184128 
L 396.212221 118.216577 
L 398.588904 118.384228 
L 399.48016 118.443718 
L 410.967461 118.332851 
L 414.532485 118.240914 
L 415.819855 118.254434 
L 417.107225 118.154384 
L 419.087794 117.994845 
L 421.365448 117.838009 
L 422.256705 117.827193 
L 425.524644 117.716327 
L 427.604241 117.55138 
L 429.386753 117.456738 
L 432.060522 117.494595 
L 433.545948 117.399953 
L 438.200286 117.126843 
L 440.279883 117.148476 
L 440.973082 117.110619 
L 445.033249 116.991641 
L 455.431237 117.95158 
L 456.718607 118.154384 
L 457.80792 118.224689 
L 460.481688 118.343668 
L 461.471973 118.343668 
L 465.334082 118.55188 
L 475.335956 118.443718 
L 489.001883 117.802857 
L 490.388281 117.775816 
L 491.576623 117.721735 
L 496.329989 117.573012 
L 497.716387 117.621685 
L 501.677525 117.510819 
L 503.856151 117.494595 
L 504.846436 117.55138 
L 506.827005 117.605461 
L 508.41146 117.583828 
L 512.570655 117.575716 
L 516.036651 117.654134 
L 546.141301 117.646022 
L 546.141301 117.646022 
" style="fill:none;stroke:#cd5c5c;stroke-linecap:square;stroke-width:2;"/>
   </g>
   <g id="text_2">
    <!-- 50ms -->
    <g transform="translate(508.906602 165.118748)scale(0.07 -0.07)">
     <use xlink:href="#DejaVuSans-Bold-53"/>
     <use x="69.580078" xlink:href="#DejaVuSans-Bold-48"/>
     <use x="139.160156" xlink:href="#DejaVuSans-Bold-109"/>
     <use x="243.359375" xlink:href="#DejaVuSans-Bold-115"/>
    </g>
   </g>
  </g>
  <g id="axes_3">
   <g id="patch_4">
    <path d="M 24.19 76.015652 
L 271.761136 76.015652 
L 271.761136 13.32 
L 24.19 13.32 
z
" style="fill:#ffffff;"/>
   </g>
   <g id="matplotlib.axis_5">
    <g id="xtick_1">
     <g id="line2d_5">
      <defs>
       <path d="M 0 0 
L 0 3.5 
" id="m00883b93b6" style="stroke:#000000;stroke-width:0.8;"/>
      </defs>
      <g>
       <use style="stroke:#000000;stroke-width:0.8;" x="35.443233" xlink:href="#m00883b93b6" y="76.015652"/>
      </g>
     </g>
     <g id="text_3">
      <!-- 0.0 -->
      <defs>
       <path d="M 31.78125 66.40625 
Q 24.171875 66.40625 20.328125 58.90625 
Q 16.5 51.421875 16.5 36.375 
Q 16.5 21.390625 20.328125 13.890625 
Q 24.171875 6.390625 31.78125 6.390625 
Q 39.453125 6.390625 43.28125 13.890625 
Q 47.125 21.390625 47.125 36.375 
Q 47.125 51.421875 43.28125 58.90625 
Q 39.453125 66.40625 31.78125 66.40625 
z
M 31.78125 74.21875 
Q 44.046875 74.21875 50.515625 64.515625 
Q 56.984375 54.828125 56.984375 36.375 
Q 56.984375 17.96875 50.515625 8.265625 
Q 44.046875 -1.421875 31.78125 -1.421875 
Q 19.53125 -1.421875 13.0625 8.265625 
Q 6.59375 17.96875 6.59375 36.375 
Q 6.59375 54.828125 13.0625 64.515625 
Q 19.53125 74.21875 31.78125 74.21875 
z
" id="DejaVuSans-48"/>
       <path d="M 10.6875 12.40625 
L 21 12.40625 
L 21 0 
L 10.6875 0 
z
" id="DejaVuSans-46"/>
      </defs>
      <g transform="translate(27.491671 90.61409)scale(0.1 -0.1)">
       <use xlink:href="#DejaVuSans-48"/>
       <use x="63.623047" xlink:href="#DejaVuSans-46"/>
       <use x="95.410156" xlink:href="#DejaVuSans-48"/>
      </g>
     </g>
    </g>
    <g id="xtick_2">
     <g id="line2d_6">
      <g>
       <use style="stroke:#000000;stroke-width:0.8;" x="80.456167" xlink:href="#m00883b93b6" y="76.015652"/>
      </g>
     </g>
     <g id="text_4">
      <!-- 0.2 -->
      <defs>
       <path d="M 19.1875 8.296875 
L 53.609375 8.296875 
L 53.609375 0 
L 7.328125 0 
L 7.328125 8.296875 
Q 12.9375 14.109375 22.625 23.890625 
Q 32.328125 33.6875 34.8125 36.53125 
Q 39.546875 41.84375 41.421875 45.53125 
Q 43.3125 49.21875 43.3125 52.78125 
Q 43.3125 58.59375 39.234375 62.25 
Q 35.15625 65.921875 28.609375 65.921875 
Q 23.96875 65.921875 18.8125 64.3125 
Q 13.671875 62.703125 7.8125 59.421875 
L 7.8125 69.390625 
Q 13.765625 71.78125 18.9375 73 
Q 24.125 74.21875 28.421875 74.21875 
Q 39.75 74.21875 46.484375 68.546875 
Q 53.21875 62.890625 53.21875 53.421875 
Q 53.21875 48.921875 51.53125 44.890625 
Q 49.859375 40.875 45.40625 35.40625 
Q 44.1875 33.984375 37.640625 27.21875 
Q 31.109375 20.453125 19.1875 8.296875 
z
" id="DejaVuSans-50"/>
      </defs>
      <g transform="translate(72.504605 90.61409)scale(0.1 -0.1)">
       <use xlink:href="#DejaVuSans-48"/>
       <use x="63.623047" xlink:href="#DejaVuSans-46"/>
       <use x="95.410156" xlink:href="#DejaVuSans-50"/>
      </g>
     </g>
    </g>
    <g id="xtick_3">
     <g id="line2d_7">
      <g>
       <use style="stroke:#000000;stroke-width:0.8;" x="125.469101" xlink:href="#m00883b93b6" y="76.015652"/>
      </g>
     </g>
     <g id="text_5">
      <!-- 0.4 -->
      <defs>
       <path d="M 37.796875 64.3125 
L 12.890625 25.390625 
L 37.796875 25.390625 
z
M 35.203125 72.90625 
L 47.609375 72.90625 
L 47.609375 25.390625 
L 58.015625 25.390625 
L 58.015625 17.1875 
L 47.609375 17.1875 
L 47.609375 0 
L 37.796875 0 
L 37.796875 17.1875 
L 4.890625 17.1875 
L 4.890625 26.703125 
z
" id="DejaVuSans-52"/>
      </defs>
      <g transform="translate(117.517539 90.61409)scale(0.1 -0.1)">
       <use xlink:href="#DejaVuSans-48"/>
       <use x="63.623047" xlink:href="#DejaVuSans-46"/>
       <use x="95.410156" xlink:href="#DejaVuSans-52"/>
      </g>
     </g>
    </g>
    <g id="xtick_4">
     <g id="line2d_8">
      <g>
       <use style="stroke:#000000;stroke-width:0.8;" x="170.482035" xlink:href="#m00883b93b6" y="76.015652"/>
      </g>
     </g>
     <g id="text_6">
      <!-- 0.6 -->
      <defs>
       <path d="M 33.015625 40.375 
Q 26.375 40.375 22.484375 35.828125 
Q 18.609375 31.296875 18.609375 23.390625 
Q 18.609375 15.53125 22.484375 10.953125 
Q 26.375 6.390625 33.015625 6.390625 
Q 39.65625 6.390625 43.53125 10.953125 
Q 47.40625 15.53125 47.40625 23.390625 
Q 47.40625 31.296875 43.53125 35.828125 
Q 39.65625 40.375 33.015625 40.375 
z
M 52.59375 71.296875 
L 52.59375 62.3125 
Q 48.875 64.0625 45.09375 64.984375 
Q 41.3125 65.921875 37.59375 65.921875 
Q 27.828125 65.921875 22.671875 59.328125 
Q 17.53125 52.734375 16.796875 39.40625 
Q 19.671875 43.65625 24.015625 45.921875 
Q 28.375 48.1875 33.59375 48.1875 
Q 44.578125 48.1875 50.953125 41.515625 
Q 57.328125 34.859375 57.328125 23.390625 
Q 57.328125 12.15625 50.6875 5.359375 
Q 44.046875 -1.421875 33.015625 -1.421875 
Q 20.359375 -1.421875 13.671875 8.265625 
Q 6.984375 17.96875 6.984375 36.375 
Q 6.984375 53.65625 15.1875 63.9375 
Q 23.390625 74.21875 37.203125 74.21875 
Q 40.921875 74.21875 44.703125 73.484375 
Q 48.484375 72.75 52.59375 71.296875 
z
" id="DejaVuSans-54"/>
      </defs>
      <g transform="translate(162.530473 90.61409)scale(0.1 -0.1)">
       <use xlink:href="#DejaVuSans-48"/>
       <use x="63.623047" xlink:href="#DejaVuSans-46"/>
       <use x="95.410156" xlink:href="#DejaVuSans-54"/>
      </g>
     </g>
    </g>
    <g id="xtick_5">
     <g id="line2d_9">
      <g>
       <use style="stroke:#000000;stroke-width:0.8;" x="215.494969" xlink:href="#m00883b93b6" y="76.015652"/>
      </g>
     </g>
     <g id="text_7">
      <!-- 0.8 -->
      <defs>
       <path d="M 31.78125 34.625 
Q 24.75 34.625 20.71875 30.859375 
Q 16.703125 27.09375 16.703125 20.515625 
Q 16.703125 13.921875 20.71875 10.15625 
Q 24.75 6.390625 31.78125 6.390625 
Q 38.8125 6.390625 42.859375 10.171875 
Q 46.921875 13.96875 46.921875 20.515625 
Q 46.921875 27.09375 42.890625 30.859375 
Q 38.875 34.625 31.78125 34.625 
z
M 21.921875 38.8125 
Q 15.578125 40.375 12.03125 44.71875 
Q 8.5 49.078125 8.5 55.328125 
Q 8.5 64.0625 14.71875 69.140625 
Q 20.953125 74.21875 31.78125 74.21875 
Q 42.671875 74.21875 48.875 69.140625 
Q 55.078125 64.0625 55.078125 55.328125 
Q 55.078125 49.078125 51.53125 44.71875 
Q 48 40.375 41.703125 38.8125 
Q 48.828125 37.15625 52.796875 32.3125 
Q 56.78125 27.484375 56.78125 20.515625 
Q 56.78125 9.90625 50.3125 4.234375 
Q 43.84375 -1.421875 31.78125 -1.421875 
Q 19.734375 -1.421875 13.25 4.234375 
Q 6.78125 9.90625 6.78125 20.515625 
Q 6.78125 27.484375 10.78125 32.3125 
Q 14.796875 37.15625 21.921875 38.8125 
z
M 18.3125 54.390625 
Q 18.3125 48.734375 21.84375 45.5625 
Q 25.390625 42.390625 31.78125 42.390625 
Q 38.140625 42.390625 41.71875 45.5625 
Q 45.3125 48.734375 45.3125 54.390625 
Q 45.3125 60.0625 41.71875 63.234375 
Q 38.140625 66.40625 31.78125 66.40625 
Q 25.390625 66.40625 21.84375 63.234375 
Q 18.3125 60.0625 18.3125 54.390625 
z
" id="DejaVuSans-56"/>
      </defs>
      <g transform="translate(207.543407 90.61409)scale(0.1 -0.1)">
       <use xlink:href="#DejaVuSans-48"/>
       <use x="63.623047" xlink:href="#DejaVuSans-46"/>
       <use x="95.410156" xlink:href="#DejaVuSans-56"/>
      </g>
     </g>
    </g>
    <g id="xtick_6">
     <g id="line2d_10">
      <g>
       <use style="stroke:#000000;stroke-width:0.8;" x="260.507903" xlink:href="#m00883b93b6" y="76.015652"/>
      </g>
     </g>
     <g id="text_8">
      <!-- 1.0 -->
      <defs>
       <path d="M 12.40625 8.296875 
L 28.515625 8.296875 
L 28.515625 63.921875 
L 10.984375 60.40625 
L 10.984375 69.390625 
L 28.421875 72.90625 
L 38.28125 72.90625 
L 38.28125 8.296875 
L 54.390625 8.296875 
L 54.390625 0 
L 12.40625 0 
z
" id="DejaVuSans-49"/>
      </defs>
      <g transform="translate(252.55634 90.61409)scale(0.1 -0.1)">
       <use xlink:href="#DejaVuSans-49"/>
       <use x="63.623047" xlink:href="#DejaVuSans-46"/>
       <use x="95.410156" xlink:href="#DejaVuSans-48"/>
      </g>
     </g>
    </g>
   </g>
   <g id="matplotlib.axis_6">
    <g id="ytick_1">
     <g id="line2d_11">
      <defs>
       <path d="M 0 0 
L -3.5 0 
" id="md8bf9921a5" style="stroke:#000000;stroke-width:0.8;"/>
      </defs>
      <g>
       <use style="stroke:#000000;stroke-width:0.8;" x="24.19" xlink:href="#md8bf9921a5" y="73.16585"/>
      </g>
     </g>
     <g id="text_9">
      <!-- 1.0 -->
      <g transform="translate(1.286875 76.965069)scale(0.1 -0.1)">
       <use xlink:href="#DejaVuSans-49"/>
       <use x="63.623047" xlink:href="#DejaVuSans-46"/>
       <use x="95.410156" xlink:href="#DejaVuSans-48"/>
      </g>
     </g>
    </g>
    <g id="ytick_2">
     <g id="line2d_12">
      <g>
       <use style="stroke:#000000;stroke-width:0.8;" x="24.19" xlink:href="#md8bf9921a5" y="44.667826"/>
      </g>
     </g>
     <g id="text_10">
      <!-- 1.5 -->
      <defs>
       <path d="M 10.796875 72.90625 
L 49.515625 72.90625 
L 49.515625 64.59375 
L 19.828125 64.59375 
L 19.828125 46.734375 
Q 21.96875 47.46875 24.109375 47.828125 
Q 26.265625 48.1875 28.421875 48.1875 
Q 40.625 48.1875 47.75 41.5 
Q 54.890625 34.8125 54.890625 23.390625 
Q 54.890625 11.625 47.5625 5.09375 
Q 40.234375 -1.421875 26.90625 -1.421875 
Q 22.3125 -1.421875 17.546875 -0.640625 
Q 12.796875 0.140625 7.71875 1.703125 
L 7.71875 11.625 
Q 12.109375 9.234375 16.796875 8.0625 
Q 21.484375 6.890625 26.703125 6.890625 
Q 35.15625 6.890625 40.078125 11.328125 
Q 45.015625 15.765625 45.015625 23.390625 
Q 45.015625 31 40.078125 35.4375 
Q 35.15625 39.890625 26.703125 39.890625 
Q 22.75 39.890625 18.8125 39.015625 
Q 14.890625 38.140625 10.796875 36.28125 
z
" id="DejaVuSans-53"/>
      </defs>
      <g transform="translate(1.286875 48.467045)scale(0.1 -0.1)">
       <use xlink:href="#DejaVuSans-49"/>
       <use x="63.623047" xlink:href="#DejaVuSans-46"/>
       <use x="95.410156" xlink:href="#DejaVuSans-53"/>
      </g>
     </g>
    </g>
    <g id="ytick_3">
     <g id="line2d_13">
      <g>
       <use style="stroke:#000000;stroke-width:0.8;" x="24.19" xlink:href="#md8bf9921a5" y="16.169802"/>
      </g>
     </g>
     <g id="text_11">
      <!-- 2.0 -->
      <g transform="translate(1.286875 19.969021)scale(0.1 -0.1)">
       <use xlink:href="#DejaVuSans-50"/>
       <use x="63.623047" xlink:href="#DejaVuSans-46"/>
       <use x="95.410156" xlink:href="#DejaVuSans-48"/>
      </g>
     </g>
    </g>
   </g>
   <g id="line2d_14">
    <path clip-path="url(#p45ef87ea4e)" d="M 35.443233 73.16585 
L 260.507903 16.169802 
" style="fill:none;stroke:#1f77b4;stroke-linecap:square;stroke-width:1.5;"/>
   </g>
   <g id="patch_5">
    <path d="M 24.19 76.015652 
L 24.19 13.32 
" style="fill:none;stroke:#000000;stroke-linecap:square;stroke-linejoin:miter;stroke-width:0.8;"/>
   </g>
   <g id="patch_6">
    <path d="M 271.761136 76.015652 
L 271.761136 13.32 
" style="fill:none;stroke:#000000;stroke-linecap:square;stroke-linejoin:miter;stroke-width:0.8;"/>
   </g>
   <g id="patch_7">
    <path d="M 24.19 76.015652 
L 271.761136 76.015652 
" style="fill:none;stroke:#000000;stroke-linecap:square;stroke-linejoin:miter;stroke-width:0.8;"/>
   </g>
   <g id="patch_8">
    <path d="M 24.19 13.32 
L 271.761136 13.32 
" style="fill:none;stroke:#000000;stroke-linecap:square;stroke-linejoin:miter;stroke-width:0.8;"/>
   </g>
  </g>
  <g id="axes_4">
   <g id="patch_9">
    <path d="M 24.19 157.52 
L 271.761136 157.52 
L 271.761136 94.824348 
L 24.19 94.824348 
z
" style="fill:#ffffff;"/>
   </g>
   <g id="matplotlib.axis_7">
    <g id="xtick_7">
     <g id="line2d_15">
      <g>
       <use style="stroke:#000000;stroke-width:0.8;" x="35.443233" xlink:href="#m00883b93b6" y="157.52"/>
      </g>
     </g>
     <g id="text_12">
      <!-- 0.0 -->
      <g transform="translate(27.491671 172.118437)scale(0.1 -0.1)">
       <use xlink:href="#DejaVuSans-48"/>
       <use x="63.623047" xlink:href="#DejaVuSans-46"/>
       <use x="95.410156" xlink:href="#DejaVuSans-48"/>
      </g>
     </g>
    </g>
    <g id="xtick_8">
     <g id="line2d_16">
      <g>
       <use style="stroke:#000000;stroke-width:0.8;" x="80.456167" xlink:href="#m00883b93b6" y="157.52"/>
      </g>
     </g>
     <g id="text_13">
      <!-- 0.2 -->
      <g transform="translate(72.504605 172.118437)scale(0.1 -0.1)">
       <use xlink:href="#DejaVuSans-48"/>
       <use x="63.623047" xlink:href="#DejaVuSans-46"/>
       <use x="95.410156" xlink:href="#DejaVuSans-50"/>
      </g>
     </g>
    </g>
    <g id="xtick_9">
     <g id="line2d_17">
      <g>
       <use style="stroke:#000000;stroke-width:0.8;" x="125.469101" xlink:href="#m00883b93b6" y="157.52"/>
      </g>
     </g>
     <g id="text_14">
      <!-- 0.4 -->
      <g transform="translate(117.517539 172.118437)scale(0.1 -0.1)">
       <use xlink:href="#DejaVuSans-48"/>
       <use x="63.623047" xlink:href="#DejaVuSans-46"/>
       <use x="95.410156" xlink:href="#DejaVuSans-52"/>
      </g>
     </g>
    </g>
    <g id="xtick_10">
     <g id="line2d_18">
      <g>
       <use style="stroke:#000000;stroke-width:0.8;" x="170.482035" xlink:href="#m00883b93b6" y="157.52"/>
      </g>
     </g>
     <g id="text_15">
      <!-- 0.6 -->
      <g transform="translate(162.530473 172.118437)scale(0.1 -0.1)">
       <use xlink:href="#DejaVuSans-48"/>
       <use x="63.623047" xlink:href="#DejaVuSans-46"/>
       <use x="95.410156" xlink:href="#DejaVuSans-54"/>
      </g>
     </g>
    </g>
    <g id="xtick_11">
     <g id="line2d_19">
      <g>
       <use style="stroke:#000000;stroke-width:0.8;" x="215.494969" xlink:href="#m00883b93b6" y="157.52"/>
      </g>
     </g>
     <g id="text_16">
      <!-- 0.8 -->
      <g transform="translate(207.543407 172.118437)scale(0.1 -0.1)">
       <use xlink:href="#DejaVuSans-48"/>
       <use x="63.623047" xlink:href="#DejaVuSans-46"/>
       <use x="95.410156" xlink:href="#DejaVuSans-56"/>
      </g>
     </g>
    </g>
    <g id="xtick_12">
     <g id="line2d_20">
      <g>
       <use style="stroke:#000000;stroke-width:0.8;" x="260.507903" xlink:href="#m00883b93b6" y="157.52"/>
      </g>
     </g>
     <g id="text_17">
      <!-- 1.0 -->
      <g transform="translate(252.55634 172.118437)scale(0.1 -0.1)">
       <use xlink:href="#DejaVuSans-49"/>
       <use x="63.623047" xlink:href="#DejaVuSans-46"/>
       <use x="95.410156" xlink:href="#DejaVuSans-48"/>
      </g>
     </g>
    </g>
   </g>
   <g id="matplotlib.axis_8">
    <g id="ytick_4">
     <g id="line2d_21">
      <g>
       <use style="stroke:#000000;stroke-width:0.8;" x="24.19" xlink:href="#md8bf9921a5" y="154.670198"/>
      </g>
     </g>
     <g id="text_18">
      <!-- 1.0 -->
      <g transform="translate(1.286875 158.469416)scale(0.1 -0.1)">
       <use xlink:href="#DejaVuSans-49"/>
       <use x="63.623047" xlink:href="#DejaVuSans-46"/>
       <use x="95.410156" xlink:href="#DejaVuSans-48"/>
      </g>
     </g>
    </g>
    <g id="ytick_5">
     <g id="line2d_22">
      <g>
       <use style="stroke:#000000;stroke-width:0.8;" x="24.19" xlink:href="#md8bf9921a5" y="126.172174"/>
      </g>
     </g>
     <g id="text_19">
      <!-- 1.5 -->
      <g transform="translate(1.286875 129.971393)scale(0.1 -0.1)">
       <use xlink:href="#DejaVuSans-49"/>
       <use x="63.623047" xlink:href="#DejaVuSans-46"/>
       <use x="95.410156" xlink:href="#DejaVuSans-53"/>
      </g>
     </g>
    </g>
    <g id="ytick_6">
     <g id="line2d_23">
      <g>
       <use style="stroke:#000000;stroke-width:0.8;" x="24.19" xlink:href="#md8bf9921a5" y="97.67415"/>
      </g>
     </g>
     <g id="text_20">
      <!-- 2.0 -->
      <g transform="translate(1.286875 101.473369)scale(0.1 -0.1)">
       <use xlink:href="#DejaVuSans-50"/>
       <use x="63.623047" xlink:href="#DejaVuSans-46"/>
       <use x="95.410156" xlink:href="#DejaVuSans-48"/>
      </g>
     </g>
    </g>
   </g>
   <g id="line2d_24">
    <path clip-path="url(#p0f2de2d01a)" d="M 35.443233 154.670198 
L 260.507903 97.67415 
" style="fill:none;stroke:#1f77b4;stroke-linecap:square;stroke-width:1.5;"/>
   </g>
   <g id="patch_10">
    <path d="M 24.19 157.52 
L 24.19 94.824348 
" style="fill:none;stroke:#000000;stroke-linecap:square;stroke-linejoin:miter;stroke-width:0.8;"/>
   </g>
   <g id="patch_11">
    <path d="M 271.761136 157.52 
L 271.761136 94.824348 
" style="fill:none;stroke:#000000;stroke-linecap:square;stroke-linejoin:miter;stroke-width:0.8;"/>
   </g>
   <g id="patch_12">
    <path d="M 24.19 157.52 
L 271.761136 157.52 
" style="fill:none;stroke:#000000;stroke-linecap:square;stroke-linejoin:miter;stroke-width:0.8;"/>
   </g>
   <g id="patch_13">
    <path d="M 24.19 94.824348 
L 271.761136 94.824348 
" style="fill:none;stroke:#000000;stroke-linecap:square;stroke-linejoin:miter;stroke-width:0.8;"/>
   </g>
  </g>
  <g id="axes_5">
   <g id="patch_14">
    <path d="M 24.19 250.615652 
L 271.761136 250.615652 
L 271.761136 187.92 
L 24.19 187.92 
z
" style="fill:#ffffff;"/>
   </g>
   <g id="matplotlib.axis_9">
    <g id="xtick_13">
     <g id="line2d_25">
      <g>
       <use style="stroke:#000000;stroke-width:0.8;" x="35.443233" xlink:href="#m00883b93b6" y="250.615652"/>
      </g>
     </g>
     <g id="text_21">
      <!-- 0.0 -->
      <g transform="translate(27.491671 265.21409)scale(0.1 -0.1)">
       <use xlink:href="#DejaVuSans-48"/>
       <use x="63.623047" xlink:href="#DejaVuSans-46"/>
       <use x="95.410156" xlink:href="#DejaVuSans-48"/>
      </g>
     </g>
    </g>
    <g id="xtick_14">
     <g id="line2d_26">
      <g>
       <use style="stroke:#000000;stroke-width:0.8;" x="80.456167" xlink:href="#m00883b93b6" y="250.615652"/>
      </g>
     </g>
     <g id="text_22">
      <!-- 0.2 -->
      <g transform="translate(72.504605 265.21409)scale(0.1 -0.1)">
       <use xlink:href="#DejaVuSans-48"/>
       <use x="63.623047" xlink:href="#DejaVuSans-46"/>
       <use x="95.410156" xlink:href="#DejaVuSans-50"/>
      </g>
     </g>
    </g>
    <g id="xtick_15">
     <g id="line2d_27">
      <g>
       <use style="stroke:#000000;stroke-width:0.8;" x="125.469101" xlink:href="#m00883b93b6" y="250.615652"/>
      </g>
     </g>
     <g id="text_23">
      <!-- 0.4 -->
      <g transform="translate(117.517539 265.21409)scale(0.1 -0.1)">
       <use xlink:href="#DejaVuSans-48"/>
       <use x="63.623047" xlink:href="#DejaVuSans-46"/>
       <use x="95.410156" xlink:href="#DejaVuSans-52"/>
      </g>
     </g>
    </g>
    <g id="xtick_16">
     <g id="line2d_28">
      <g>
       <use style="stroke:#000000;stroke-width:0.8;" x="170.482035" xlink:href="#m00883b93b6" y="250.615652"/>
      </g>
     </g>
     <g id="text_24">
      <!-- 0.6 -->
      <g transform="translate(162.530473 265.21409)scale(0.1 -0.1)">
       <use xlink:href="#DejaVuSans-48"/>
       <use x="63.623047" xlink:href="#DejaVuSans-46"/>
       <use x="95.410156" xlink:href="#DejaVuSans-54"/>
      </g>
     </g>
    </g>
    <g id="xtick_17">
     <g id="line2d_29">
      <g>
       <use style="stroke:#000000;stroke-width:0.8;" x="215.494969" xlink:href="#m00883b93b6" y="250.615652"/>
      </g>
     </g>
     <g id="text_25">
      <!-- 0.8 -->
      <g transform="translate(207.543407 265.21409)scale(0.1 -0.1)">
       <use xlink:href="#DejaVuSans-48"/>
       <use x="63.623047" xlink:href="#DejaVuSans-46"/>
       <use x="95.410156" xlink:href="#DejaVuSans-56"/>
      </g>
     </g>
    </g>
    <g id="xtick_18">
     <g id="line2d_30">
      <g>
       <use style="stroke:#000000;stroke-width:0.8;" x="260.507903" xlink:href="#m00883b93b6" y="250.615652"/>
      </g>
     </g>
     <g id="text_26">
      <!-- 1.0 -->
      <g transform="translate(252.55634 265.21409)scale(0.1 -0.1)">
       <use xlink:href="#DejaVuSans-49"/>
       <use x="63.623047" xlink:href="#DejaVuSans-46"/>
       <use x="95.410156" xlink:href="#DejaVuSans-48"/>
      </g>
     </g>
    </g>
   </g>
   <g id="matplotlib.axis_10">
    <g id="ytick_7">
     <g id="line2d_31">
      <g>
       <use style="stroke:#000000;stroke-width:0.8;" x="24.19" xlink:href="#md8bf9921a5" y="247.76585"/>
      </g>
     </g>
     <g id="text_27">
      <!-- 1.0 -->
      <g transform="translate(1.286875 251.565069)scale(0.1 -0.1)">
       <use xlink:href="#DejaVuSans-49"/>
       <use x="63.623047" xlink:href="#DejaVuSans-46"/>
       <use x="95.410156" xlink:href="#DejaVuSans-48"/>
      </g>
     </g>
    </g>
    <g id="ytick_8">
     <g id="line2d_32">
      <g>
       <use style="stroke:#000000;stroke-width:0.8;" x="24.19" xlink:href="#md8bf9921a5" y="219.267826"/>
      </g>
     </g>
     <g id="text_28">
      <!-- 1.5 -->
      <g transform="translate(1.286875 223.067045)scale(0.1 -0.1)">
       <use xlink:href="#DejaVuSans-49"/>
       <use x="63.623047" xlink:href="#DejaVuSans-46"/>
       <use x="95.410156" xlink:href="#DejaVuSans-53"/>
      </g>
     </g>
    </g>
    <g id="ytick_9">
     <g id="line2d_33">
      <g>
       <use style="stroke:#000000;stroke-width:0.8;" x="24.19" xlink:href="#md8bf9921a5" y="190.769802"/>
      </g>
     </g>
     <g id="text_29">
      <!-- 2.0 -->
      <g transform="translate(1.286875 194.569021)scale(0.1 -0.1)">
       <use xlink:href="#DejaVuSans-50"/>
       <use x="63.623047" xlink:href="#DejaVuSans-46"/>
       <use x="95.410156" xlink:href="#DejaVuSans-48"/>
      </g>
     </g>
    </g>
   </g>
   <g id="line2d_34">
    <path clip-path="url(#p4c78a35579)" d="M 35.443233 247.76585 
L 260.507903 190.769802 
" style="fill:none;stroke:#1f77b4;stroke-linecap:square;stroke-width:1.5;"/>
   </g>
   <g id="patch_15">
    <path d="M 24.19 250.615652 
L 24.19 187.92 
" style="fill:none;stroke:#000000;stroke-linecap:square;stroke-linejoin:miter;stroke-width:0.8;"/>
   </g>
   <g id="patch_16">
    <path d="M 271.761136 250.615652 
L 271.761136 187.92 
" style="fill:none;stroke:#000000;stroke-linecap:square;stroke-linejoin:miter;stroke-width:0.8;"/>
   </g>
   <g id="patch_17">
    <path d="M 24.19 250.615652 
L 271.761136 250.615652 
" style="fill:none;stroke:#000000;stroke-linecap:square;stroke-linejoin:miter;stroke-width:0.8;"/>
   </g>
   <g id="patch_18">
    <path d="M 24.19 187.92 
L 271.761136 187.92 
" style="fill:none;stroke:#000000;stroke-linecap:square;stroke-linejoin:miter;stroke-width:0.8;"/>
   </g>
  </g>
  <g id="axes_6">
   <g id="patch_19">
    <path d="M 24.19 332.12 
L 271.761136 332.12 
L 271.761136 269.424348 
L 24.19 269.424348 
z
" style="fill:#ffffff;"/>
   </g>
   <g id="matplotlib.axis_11">
    <g id="xtick_19">
     <g id="line2d_35">
      <g>
       <use style="stroke:#000000;stroke-width:0.8;" x="35.443233" xlink:href="#m00883b93b6" y="332.12"/>
      </g>
     </g>
     <g id="text_30">
      <!-- 0.0 -->
      <g transform="translate(27.491671 346.718437)scale(0.1 -0.1)">
       <use xlink:href="#DejaVuSans-48"/>
       <use x="63.623047" xlink:href="#DejaVuSans-46"/>
       <use x="95.410156" xlink:href="#DejaVuSans-48"/>
      </g>
     </g>
    </g>
    <g id="xtick_20">
     <g id="line2d_36">
      <g>
       <use style="stroke:#000000;stroke-width:0.8;" x="80.456167" xlink:href="#m00883b93b6" y="332.12"/>
      </g>
     </g>
     <g id="text_31">
      <!-- 0.2 -->
      <g transform="translate(72.504605 346.718437)scale(0.1 -0.1)">
       <use xlink:href="#DejaVuSans-48"/>
       <use x="63.623047" xlink:href="#DejaVuSans-46"/>
       <use x="95.410156" xlink:href="#DejaVuSans-50"/>
      </g>
     </g>
    </g>
    <g id="xtick_21">
     <g id="line2d_37">
      <g>
       <use style="stroke:#000000;stroke-width:0.8;" x="125.469101" xlink:href="#m00883b93b6" y="332.12"/>
      </g>
     </g>
     <g id="text_32">
      <!-- 0.4 -->
      <g transform="translate(117.517539 346.718437)scale(0.1 -0.1)">
       <use xlink:href="#DejaVuSans-48"/>
       <use x="63.623047" xlink:href="#DejaVuSans-46"/>
       <use x="95.410156" xlink:href="#DejaVuSans-52"/>
      </g>
     </g>
    </g>
    <g id="xtick_22">
     <g id="line2d_38">
      <g>
       <use style="stroke:#000000;stroke-width:0.8;" x="170.482035" xlink:href="#m00883b93b6" y="332.12"/>
      </g>
     </g>
     <g id="text_33">
      <!-- 0.6 -->
      <g transform="translate(162.530473 346.718437)scale(0.1 -0.1)">
       <use xlink:href="#DejaVuSans-48"/>
       <use x="63.623047" xlink:href="#DejaVuSans-46"/>
       <use x="95.410156" xlink:href="#DejaVuSans-54"/>
      </g>
     </g>
    </g>
    <g id="xtick_23">
     <g id="line2d_39">
      <g>
       <use style="stroke:#000000;stroke-width:0.8;" x="215.494969" xlink:href="#m00883b93b6" y="332.12"/>
      </g>
     </g>
     <g id="text_34">
      <!-- 0.8 -->
      <g transform="translate(207.543407 346.718437)scale(0.1 -0.1)">
       <use xlink:href="#DejaVuSans-48"/>
       <use x="63.623047" xlink:href="#DejaVuSans-46"/>
       <use x="95.410156" xlink:href="#DejaVuSans-56"/>
      </g>
     </g>
    </g>
    <g id="xtick_24">
     <g id="line2d_40">
      <g>
       <use style="stroke:#000000;stroke-width:0.8;" x="260.507903" xlink:href="#m00883b93b6" y="332.12"/>
      </g>
     </g>
     <g id="text_35">
      <!-- 1.0 -->
      <g transform="translate(252.55634 346.718437)scale(0.1 -0.1)">
       <use xlink:href="#DejaVuSans-49"/>
       <use x="63.623047" xlink:href="#DejaVuSans-46"/>
       <use x="95.410156" xlink:href="#DejaVuSans-48"/>
      </g>
     </g>
    </g>
   </g>
   <g id="matplotlib.axis_12">
    <g id="ytick_10">
     <g id="line2d_41">
      <g>
       <use style="stroke:#000000;stroke-width:0.8;" x="24.19" xlink:href="#md8bf9921a5" y="329.270198"/>
      </g>
     </g>
     <g id="text_36">
      <!-- 1.0 -->
      <g transform="translate(1.286875 333.069416)scale(0.1 -0.1)">
       <use xlink:href="#DejaVuSans-49"/>
       <use x="63.623047" xlink:href="#DejaVuSans-46"/>
       <use x="95.410156" xlink:href="#DejaVuSans-48"/>
      </g>
     </g>
    </g>
    <g id="ytick_11">
     <g id="line2d_42">
      <g>
       <use style="stroke:#000000;stroke-width:0.8;" x="24.19" xlink:href="#md8bf9921a5" y="300.772174"/>
      </g>
     </g>
     <g id="text_37">
      <!-- 1.5 -->
      <g transform="translate(1.286875 304.571393)scale(0.1 -0.1)">
       <use xlink:href="#DejaVuSans-49"/>
       <use x="63.623047" xlink:href="#DejaVuSans-46"/>
       <use x="95.410156" xlink:href="#DejaVuSans-53"/>
      </g>
     </g>
    </g>
    <g id="ytick_12">
     <g id="line2d_43">
      <g>
       <use style="stroke:#000000;stroke-width:0.8;" x="24.19" xlink:href="#md8bf9921a5" y="272.27415"/>
      </g>
     </g>
     <g id="text_38">
      <!-- 2.0 -->
      <g transform="translate(1.286875 276.073369)scale(0.1 -0.1)">
       <use xlink:href="#DejaVuSans-50"/>
       <use x="63.623047" xlink:href="#DejaVuSans-46"/>
       <use x="95.410156" xlink:href="#DejaVuSans-48"/>
      </g>
     </g>
    </g>
   </g>
   <g id="line2d_44">
    <path clip-path="url(#p201fa09577)" d="M 35.443233 329.270198 
L 260.507903 272.27415 
" style="fill:none;stroke:#1f77b4;stroke-linecap:square;stroke-width:1.5;"/>
   </g>
   <g id="patch_20">
    <path d="M 24.19 332.12 
L 24.19 269.424348 
" style="fill:none;stroke:#000000;stroke-linecap:square;stroke-linejoin:miter;stroke-width:0.8;"/>
   </g>
   <g id="patch_21">
    <path d="M 271.761136 332.12 
L 271.761136 269.424348 
" style="fill:none;stroke:#000000;stroke-linecap:square;stroke-linejoin:miter;stroke-width:0.8;"/>
   </g>
   <g id="patch_22">
    <path d="M 24.19 332.12 
L 271.761136 332.12 
" style="fill:none;stroke:#000000;stroke-linecap:square;stroke-linejoin:miter;stroke-width:0.8;"/>
   </g>
   <g id="patch_23">
    <path d="M 24.19 269.424348 
L 271.761136 269.424348 
" style="fill:none;stroke:#000000;stroke-linecap:square;stroke-linejoin:miter;stroke-width:0.8;"/>
   </g>
  </g>
  <g id="axes_7">
   <g id="patch_24">
    <path d="M 298.471136 250.615652 
L 546.042273 250.615652 
L 546.042273 187.92 
L 298.471136 187.92 
z
" style="fill:#ffffff;"/>
   </g>
   <g id="matplotlib.axis_13">
    <g id="xtick_25">
     <g id="line2d_45">
      <g>
       <use style="stroke:#000000;stroke-width:0.8;" x="309.72437" xlink:href="#m00883b93b6" y="250.615652"/>
      </g>
     </g>
     <g id="text_39">
      <!-- 0.0 -->
      <g transform="translate(301.772807 265.21409)scale(0.1 -0.1)">
       <use xlink:href="#DejaVuSans-48"/>
       <use x="63.623047" xlink:href="#DejaVuSans-46"/>
       <use x="95.410156" xlink:href="#DejaVuSans-48"/>
      </g>
     </g>
    </g>
    <g id="xtick_26">
     <g id="line2d_46">
      <g>
       <use style="stroke:#000000;stroke-width:0.8;" x="354.737304" xlink:href="#m00883b93b6" y="250.615652"/>
      </g>
     </g>
     <g id="text_40">
      <!-- 0.2 -->
      <g transform="translate(346.785741 265.21409)scale(0.1 -0.1)">
       <use xlink:href="#DejaVuSans-48"/>
       <use x="63.623047" xlink:href="#DejaVuSans-46"/>
       <use x="95.410156" xlink:href="#DejaVuSans-50"/>
      </g>
     </g>
    </g>
    <g id="xtick_27">
     <g id="line2d_47">
      <g>
       <use style="stroke:#000000;stroke-width:0.8;" x="399.750238" xlink:href="#m00883b93b6" y="250.615652"/>
      </g>
     </g>
     <g id="text_41">
      <!-- 0.4 -->
      <g transform="translate(391.798675 265.21409)scale(0.1 -0.1)">
       <use xlink:href="#DejaVuSans-48"/>
       <use x="63.623047" xlink:href="#DejaVuSans-46"/>
       <use x="95.410156" xlink:href="#DejaVuSans-52"/>
      </g>
     </g>
    </g>
    <g id="xtick_28">
     <g id="line2d_48">
      <g>
       <use style="stroke:#000000;stroke-width:0.8;" x="444.763171" xlink:href="#m00883b93b6" y="250.615652"/>
      </g>
     </g>
     <g id="text_42">
      <!-- 0.6 -->
      <g transform="translate(436.811609 265.21409)scale(0.1 -0.1)">
       <use xlink:href="#DejaVuSans-48"/>
       <use x="63.623047" xlink:href="#DejaVuSans-46"/>
       <use x="95.410156" xlink:href="#DejaVuSans-54"/>
      </g>
     </g>
    </g>
    <g id="xtick_29">
     <g id="line2d_49">
      <g>
       <use style="stroke:#000000;stroke-width:0.8;" x="489.776105" xlink:href="#m00883b93b6" y="250.615652"/>
      </g>
     </g>
     <g id="text_43">
      <!-- 0.8 -->
      <g transform="translate(481.824543 265.21409)scale(0.1 -0.1)">
       <use xlink:href="#DejaVuSans-48"/>
       <use x="63.623047" xlink:href="#DejaVuSans-46"/>
       <use x="95.410156" xlink:href="#DejaVuSans-56"/>
      </g>
     </g>
    </g>
    <g id="xtick_30">
     <g id="line2d_50">
      <g>
       <use style="stroke:#000000;stroke-width:0.8;" x="534.789039" xlink:href="#m00883b93b6" y="250.615652"/>
      </g>
     </g>
     <g id="text_44">
      <!-- 1.0 -->
      <g transform="translate(526.837477 265.21409)scale(0.1 -0.1)">
       <use xlink:href="#DejaVuSans-49"/>
       <use x="63.623047" xlink:href="#DejaVuSans-46"/>
       <use x="95.410156" xlink:href="#DejaVuSans-48"/>
      </g>
     </g>
    </g>
   </g>
   <g id="matplotlib.axis_14">
    <g id="ytick_13">
     <g id="line2d_51">
      <g>
       <use style="stroke:#000000;stroke-width:0.8;" x="298.471136" xlink:href="#md8bf9921a5" y="247.76585"/>
      </g>
     </g>
     <g id="text_45">
      <!-- 1.0 -->
      <g transform="translate(275.568011 251.565069)scale(0.1 -0.1)">
       <use xlink:href="#DejaVuSans-49"/>
       <use x="63.623047" xlink:href="#DejaVuSans-46"/>
       <use x="95.410156" xlink:href="#DejaVuSans-48"/>
      </g>
     </g>
    </g>
    <g id="ytick_14">
     <g id="line2d_52">
      <g>
       <use style="stroke:#000000;stroke-width:0.8;" x="298.471136" xlink:href="#md8bf9921a5" y="219.267826"/>
      </g>
     </g>
     <g id="text_46">
      <!-- 1.5 -->
      <g transform="translate(275.568011 223.067045)scale(0.1 -0.1)">
       <use xlink:href="#DejaVuSans-49"/>
       <use x="63.623047" xlink:href="#DejaVuSans-46"/>
       <use x="95.410156" xlink:href="#DejaVuSans-53"/>
      </g>
     </g>
    </g>
    <g id="ytick_15">
     <g id="line2d_53">
      <g>
       <use style="stroke:#000000;stroke-width:0.8;" x="298.471136" xlink:href="#md8bf9921a5" y="190.769802"/>
      </g>
     </g>
     <g id="text_47">
      <!-- 2.0 -->
      <g transform="translate(275.568011 194.569021)scale(0.1 -0.1)">
       <use xlink:href="#DejaVuSans-50"/>
       <use x="63.623047" xlink:href="#DejaVuSans-46"/>
       <use x="95.410156" xlink:href="#DejaVuSans-48"/>
      </g>
     </g>
    </g>
   </g>
   <g id="line2d_54">
    <path clip-path="url(#p9fcdeae751)" d="M 309.72437 247.76585 
L 534.789039 190.769802 
" style="fill:none;stroke:#1f77b4;stroke-linecap:square;stroke-width:1.5;"/>
   </g>
   <g id="patch_25">
    <path d="M 298.471136 250.615652 
L 298.471136 187.92 
" style="fill:none;stroke:#000000;stroke-linecap:square;stroke-linejoin:miter;stroke-width:0.8;"/>
   </g>
   <g id="patch_26">
    <path d="M 546.042273 250.615652 
L 546.042273 187.92 
" style="fill:none;stroke:#000000;stroke-linecap:square;stroke-linejoin:miter;stroke-width:0.8;"/>
   </g>
   <g id="patch_27">
    <path d="M 298.471136 250.615652 
L 546.042273 250.615652 
" style="fill:none;stroke:#000000;stroke-linecap:square;stroke-linejoin:miter;stroke-width:0.8;"/>
   </g>
   <g id="patch_28">
    <path d="M 298.471136 187.92 
L 546.042273 187.92 
" style="fill:none;stroke:#000000;stroke-linecap:square;stroke-linejoin:miter;stroke-width:0.8;"/>
   </g>
  </g>
  <g id="axes_8">
   <g id="patch_29">
    <path d="M 298.471136 332.12 
L 546.042273 332.12 
L 546.042273 269.424348 
L 298.471136 269.424348 
z
" style="fill:#ffffff;"/>
   </g>
   <g id="matplotlib.axis_15">
    <g id="xtick_31">
     <g id="line2d_55">
      <g>
       <use style="stroke:#000000;stroke-width:0.8;" x="309.72437" xlink:href="#m00883b93b6" y="332.12"/>
      </g>
     </g>
     <g id="text_48">
      <!-- 0.0 -->
      <g transform="translate(301.772807 346.718437)scale(0.1 -0.1)">
       <use xlink:href="#DejaVuSans-48"/>
       <use x="63.623047" xlink:href="#DejaVuSans-46"/>
       <use x="95.410156" xlink:href="#DejaVuSans-48"/>
      </g>
     </g>
    </g>
    <g id="xtick_32">
     <g id="line2d_56">
      <g>
       <use style="stroke:#000000;stroke-width:0.8;" x="354.737304" xlink:href="#m00883b93b6" y="332.12"/>
      </g>
     </g>
     <g id="text_49">
      <!-- 0.2 -->
      <g transform="translate(346.785741 346.718437)scale(0.1 -0.1)">
       <use xlink:href="#DejaVuSans-48"/>
       <use x="63.623047" xlink:href="#DejaVuSans-46"/>
       <use x="95.410156" xlink:href="#DejaVuSans-50"/>
      </g>
     </g>
    </g>
    <g id="xtick_33">
     <g id="line2d_57">
      <g>
       <use style="stroke:#000000;stroke-width:0.8;" x="399.750238" xlink:href="#m00883b93b6" y="332.12"/>
      </g>
     </g>
     <g id="text_50">
      <!-- 0.4 -->
      <g transform="translate(391.798675 346.718437)scale(0.1 -0.1)">
       <use xlink:href="#DejaVuSans-48"/>
       <use x="63.623047" xlink:href="#DejaVuSans-46"/>
       <use x="95.410156" xlink:href="#DejaVuSans-52"/>
      </g>
     </g>
    </g>
    <g id="xtick_34">
     <g id="line2d_58">
      <g>
       <use style="stroke:#000000;stroke-width:0.8;" x="444.763171" xlink:href="#m00883b93b6" y="332.12"/>
      </g>
     </g>
     <g id="text_51">
      <!-- 0.6 -->
      <g transform="translate(436.811609 346.718437)scale(0.1 -0.1)">
       <use xlink:href="#DejaVuSans-48"/>
       <use x="63.623047" xlink:href="#DejaVuSans-46"/>
       <use x="95.410156" xlink:href="#DejaVuSans-54"/>
      </g>
     </g>
    </g>
    <g id="xtick_35">
     <g id="line2d_59">
      <g>
       <use style="stroke:#000000;stroke-width:0.8;" x="489.776105" xlink:href="#m00883b93b6" y="332.12"/>
      </g>
     </g>
     <g id="text_52">
      <!-- 0.8 -->
      <g transform="translate(481.824543 346.718437)scale(0.1 -0.1)">
       <use xlink:href="#DejaVuSans-48"/>
       <use x="63.623047" xlink:href="#DejaVuSans-46"/>
       <use x="95.410156" xlink:href="#DejaVuSans-56"/>
      </g>
     </g>
    </g>
    <g id="xtick_36">
     <g id="line2d_60">
      <g>
       <use style="stroke:#000000;stroke-width:0.8;" x="534.789039" xlink:href="#m00883b93b6" y="332.12"/>
      </g>
     </g>
     <g id="text_53">
      <!-- 1.0 -->
      <g transform="translate(526.837477 346.718437)scale(0.1 -0.1)">
       <use xlink:href="#DejaVuSans-49"/>
       <use x="63.623047" xlink:href="#DejaVuSans-46"/>
       <use x="95.410156" xlink:href="#DejaVuSans-48"/>
      </g>
     </g>
    </g>
   </g>
   <g id="matplotlib.axis_16">
    <g id="ytick_16">
     <g id="line2d_61">
      <g>
       <use style="stroke:#000000;stroke-width:0.8;" x="298.471136" xlink:href="#md8bf9921a5" y="329.270198"/>
      </g>
     </g>
     <g id="text_54">
      <!-- 1.0 -->
      <g transform="translate(275.568011 333.069416)scale(0.1 -0.1)">
       <use xlink:href="#DejaVuSans-49"/>
       <use x="63.623047" xlink:href="#DejaVuSans-46"/>
       <use x="95.410156" xlink:href="#DejaVuSans-48"/>
      </g>
     </g>
    </g>
    <g id="ytick_17">
     <g id="line2d_62">
      <g>
       <use style="stroke:#000000;stroke-width:0.8;" x="298.471136" xlink:href="#md8bf9921a5" y="300.772174"/>
      </g>
     </g>
     <g id="text_55">
      <!-- 1.5 -->
      <g transform="translate(275.568011 304.571393)scale(0.1 -0.1)">
       <use xlink:href="#DejaVuSans-49"/>
       <use x="63.623047" xlink:href="#DejaVuSans-46"/>
       <use x="95.410156" xlink:href="#DejaVuSans-53"/>
      </g>
     </g>
    </g>
    <g id="ytick_18">
     <g id="line2d_63">
      <g>
       <use style="stroke:#000000;stroke-width:0.8;" x="298.471136" xlink:href="#md8bf9921a5" y="272.27415"/>
      </g>
     </g>
     <g id="text_56">
      <!-- 2.0 -->
      <g transform="translate(275.568011 276.073369)scale(0.1 -0.1)">
       <use xlink:href="#DejaVuSans-50"/>
       <use x="63.623047" xlink:href="#DejaVuSans-46"/>
       <use x="95.410156" xlink:href="#DejaVuSans-48"/>
      </g>
     </g>
    </g>
   </g>
   <g id="line2d_64">
    <path clip-path="url(#p751dc01772)" d="M 309.72437 329.270198 
L 534.789039 272.27415 
" style="fill:none;stroke:#1f77b4;stroke-linecap:square;stroke-width:1.5;"/>
   </g>
   <g id="patch_30">
    <path d="M 298.471136 332.12 
L 298.471136 269.424348 
" style="fill:none;stroke:#000000;stroke-linecap:square;stroke-linejoin:miter;stroke-width:0.8;"/>
   </g>
   <g id="patch_31">
    <path d="M 546.042273 332.12 
L 546.042273 269.424348 
" style="fill:none;stroke:#000000;stroke-linecap:square;stroke-linejoin:miter;stroke-width:0.8;"/>
   </g>
   <g id="patch_32">
    <path d="M 298.471136 332.12 
L 546.042273 332.12 
" style="fill:none;stroke:#000000;stroke-linecap:square;stroke-linejoin:miter;stroke-width:0.8;"/>
   </g>
   <g id="patch_33">
    <path d="M 298.471136 269.424348 
L 546.042273 269.424348 
" style="fill:none;stroke:#000000;stroke-linecap:square;stroke-linejoin:miter;stroke-width:0.8;"/>
   </g>
  </g>
 </g>
 <defs>
  <clipPath id="pcaf3e907a3">
   <rect height="62.695652" width="247.571136" x="298.471136" y="13.32"/>
  </clipPath>
  <clipPath id="p29093b9d11">
   <rect height="62.695652" width="247.571136" x="298.471136" y="94.824348"/>
  </clipPath>
  <clipPath id="p45ef87ea4e">
   <rect height="62.695652" width="247.571136" x="24.19" y="13.32"/>
  </clipPath>
  <clipPath id="p0f2de2d01a">
   <rect height="62.695652" width="247.571136" x="24.19" y="94.824348"/>
  </clipPath>
  <clipPath id="p4c78a35579">
   <rect height="62.695652" width="247.571136" x="24.19" y="187.92"/>
  </clipPath>
  <clipPath id="p201fa09577">
   <rect height="62.695652" width="247.571136" x="24.19" y="269.424348"/>
  </clipPath>
  <clipPath id="p9fcdeae751">
   <rect height="62.695652" width="247.571136" x="298.471136" y="187.92"/>
  </clipPath>
  <clipPath id="p751dc01772">
   <rect height="62.695652" width="247.571136" x="298.471136" y="269.424348"/>
  </clipPath>
 </defs>
</svg>
